<svg xmlns="http://www.w3.org/2000/svg" width="14.213" height="14.213" viewBox="0 0 14.213 14.213"><g transform="translate(14.213 0) rotate(90)"><g transform="translate(4.786 5.241)"><path d="M49.6,4.415l-.707-.707,1.5-1.5-1.5-1.5L49.6,0l2.208,2.208Z" transform="translate(-46.525 -0.334)" fill="#fff"/><path d="M4.574.5H0v-1H4.574Z" transform="translate(0 1.874)" fill="#fff"/></g><path d="M5.8,1a4.8,4.8,0,1,0,4.8,4.8A4.808,4.808,0,0,0,5.8,1m0-1A5.8,5.8,0,1,1,0,5.8,5.8,5.8,0,0,1,5.8,0Z" transform="matrix(-0.966, 0.259, -0.259, -0.966, 14.213, 11.209)" fill="#fff"/></g></svg>