<svg xmlns="http://www.w3.org/2000/svg" xmlns:xlink="http://www.w3.org/1999/xlink" width="128.695" height="65.867" viewBox="0 0 128.695 65.867"><defs><clipPath id="a"><rect width="30.875" height="25.078" fill="none" stroke="rgba(0,0,0,0)" stroke-width="1"/></clipPath></defs><g transform="translate(-275.579 -759.906)"><path d="M0,0V65.867H49.651V36.73H128.7V0Z" transform="translate(404.274 825.772) rotate(180)" fill="#102d8e"/><g transform="translate(317.918 786.661)"><g transform="translate(49.63 30.875) rotate(-90)"><g transform="translate(0 0)"><g clip-path="url(#a)"><path d="M.354,25.17l-.707-.707L11.7,12.408-.354.354.354-.354,13.116,12.408Z" transform="translate(18.206 0.131)" fill="#fff"/><path d="M30.614.5H0v-1H30.614Z" transform="translate(0 12.539)" fill="#fff"/></g></g></g><path d="M-7.733-10.545l.266-2.128h-8.17l-.266,2.128h2.85L-14.345,0h2.47l1.292-10.545ZM.456-12.958a7.923,7.923,0,0,0-5.4,1.995A7.359,7.359,0,0,0-7.125-5.681a6.049,6.049,0,0,0,1.672,4.2A6.218,6.218,0,0,0-.8.285,7.121,7.121,0,0,0,4.484-1.786a7.773,7.773,0,0,0,2.033-5.32,5.724,5.724,0,0,0-1.672-4.218A6.36,6.36,0,0,0,.456-12.958Zm-1.121,11A3.932,3.932,0,0,1-3.553-3.116,3.872,3.872,0,0,1-4.56-5.871,4.93,4.93,0,0,1-3.1-9.481,4.513,4.513,0,0,1,.057-10.7,3.921,3.921,0,0,1,2.945-9.6,3.816,3.816,0,0,1,3.952-6.916a5.289,5.289,0,0,1-1.5,3.7A4.436,4.436,0,0,1-.665-1.957ZM10.146-12.673,8.588,0h2.47l.57-4.693h1.691A5,5,0,0,0,16.8-5.8a4.278,4.278,0,0,0,1.2-3.154,3.5,3.5,0,0,0-1.026-2.7,5.179,5.179,0,0,0-3.4-1.026Zm2.2,2.128h.874a3.264,3.264,0,0,1,1.539.342,1.485,1.485,0,0,1,.684,1.349,1.915,1.915,0,0,1-.608,1.5,2.784,2.784,0,0,1-1.9.532H11.894Z" transform="translate(17 26.763)" fill="#fff"/></g></g></svg>