<svg xmlns="http://www.w3.org/2000/svg" xmlns:xlink="http://www.w3.org/1999/xlink" width="681.262" height="468.928" viewBox="0 0 681.262 468.928"><defs><filter id="a" x="334.184" y="341.207" width="347.078" height="127.721" filterUnits="userSpaceOnUse"><feOffset dx="2" dy="4" input="SourceAlpha"/><feGaussianBlur stdDeviation="2" result="b"/><feFlood flood-opacity="0.443"/><feComposite operator="in" in2="b"/><feComposite in="SourceGraphic"/></filter></defs><g transform="translate(-623.338 -417.276)"><path d="M12.336,0H50.115V-154.2H12.336Zm9.509-7.2V-147H40.606V-7.2Zm2.57-136.21H38.036v-1.285H24.415Zm0,5.14H38.036v-1.285H24.415Zm0,5.14H38.036v-1.285H24.415Zm0,5.14H38.036v-1.285H24.415Zm0,5.14H38.036v-1.285H24.415Zm0,5.14H38.036v-1.285H24.415Zm0,5.14H38.036v-1.285H24.415Zm0,5.14H38.036v-1.285H24.415Zm0,5.14H38.036v-1.285H24.415Zm0,5.14H38.036v-1.285H24.415Zm0,5.14H38.036v-1.285H24.415Zm0,5.14H38.036v-1.285H24.415Zm0,5.14H38.036v-1.285H24.415Zm0,5.14H38.036v-1.285H24.415Zm0,5.14H38.036v-1.285H24.415Z" transform="translate(1232.098 744.811) rotate(-14)" fill="#fff" opacity="0.77"/><path d="M12.384,0H50.31V-69.4L84.108,5.16H90.3l33.8-74.046V0h37.668V-154.8h-34.83L87.2-71.208,47.73-154.8H12.384ZM21.93-7.224V-147.576H41.28L83.592-57.018h7.224l42.57-90.558H152.22V-7.224H133.644v-94.17h-3.612L87.2-10.578,45.15-101.394H40.764v94.17ZM136.224-143.448H149.64v-1.29H136.224Zm-109.65,0H39.99l-.516-1.29H25.8Zm109.65,5.16H149.64v-1.29H136.224Zm-107.07,0H42.312l-.516-1.29H28.38Zm107.07,5.16H149.64v-1.29H136.224Zm-104.49,0H44.892l-.516-1.29H30.96Zm104.49,5.16H149.64v-1.29H136.224Zm-101.91,0h12.9l-.516-1.29H33.54Zm101.91,5.16H149.64v-1.29H136.224Zm-99.33,0h12.9l-.516-1.29H36.12Zm99.33,5.16H149.64v-1.29H136.224Zm-96.492,0H52.116l-.516-1.29H38.958Zm96.492,5.16H149.64v-1.29H136.224Zm-93.912,0H54.438l-.516-1.29H41.538Zm93.912,5.16H149.64v-1.29H136.224Zm-91.332,0H56.76l-.516-1.29H44.118Zm91.332,5.16H149.64v-1.29H136.224Zm-88.752,0H59.34l-.774-1.29H46.7Zm88.752,5.16H149.64V-98.3H136.224Zm-86.172,0h11.61l-.516-1.29H49.278Zm86.172,5.16H149.64v-1.29H136.224Zm-83.592,0h11.61l-.774-1.29H51.858Zm83.592,5.16H149.64v-1.29H136.224Zm-81.27,0h11.61l-.516-1.29H54.18Zm81.27,5.16H149.64v-1.29H136.224Zm-78.948,0h11.61l-.516-1.29H56.5Zm78.948,5.16H149.64v-1.29H136.224Zm-76.626,0h11.61l-.516-1.29H58.824Zm76.626,5.16H149.64V-72.5H136.224Zm-74.046,0h11.61l-.516-1.29H61.4Zm74.046,5.16H149.64v-1.29H136.224Zm-71.724,0H76.11l-.516-1.29H63.726Zm71.724,5.16H149.64v-1.29H136.224Zm-69.4,0H78.69l-.516-1.29H66.048Zm69.4,5.16H149.64v-1.29H136.224Zm-66.822,0h11.61l-.774-1.29H68.628Zm66.822,5.16H149.64v-1.29H136.224Zm-64.5,0H83.592l-.774-1.29H70.95Zm64.5,5.16H149.64V-46.7H136.224Zm-62.178,0H86.172L85.4-46.7H73.272Zm62.178,5.16H149.64v-1.29H136.224Zm-60.63-1.29.774,1.29H88.752l-.774-1.29Zm60.63,6.45H149.64v-1.29H136.224Zm-58.308-1.29.774,1.29H91.332l-.774-1.29Zm58.308,6.45H149.64v-1.29H136.224ZM80.5-31.218l.774,1.548H93.138l.516-.774-.774-.774Zm55.728,6.45H149.64v-1.29H136.224Zm-53.406-1.29.774,1.29h7.224l.774-1.29Zm53.406,6.45H149.64V-20.9H136.224ZM85.14-20.9l.774,1.29h2.58l.774-1.29Zm1.032,4.644,1.032,1.29,1.032-1.29Zm50.052,1.806H149.64v-1.29H136.224Zm0,4.9H149.64v-1.032H136.224ZM203.3,0H308.568V-32.508H241.23V-60.372h59.6V-93.4h-59.6V-121.26h64.5V-154.8H203.3Zm9.546-7.224V-147.576h83.334v19.092h-64.5v42.312h59.6V-67.6h-59.6v42.312h67.338v18.06Zm4.9-135.45H293.6v-1.29H216.462Zm5.16,5.16H293.6v-1.29H221.622Zm5.16,5.16H293.6v-1.29H226.782Zm3.612,50.826H288.7v-1.29H231.684Zm0,5.16H288.7v-1.29H231.684Zm0,5.16H288.7V-72.5H231.684Zm-4.9,50.568h69.66v-1.29H228.33Zm-5.16,5.16h74.82v-1.29h-73.53ZM216.2-10.32h80.238v-1.29H217.494Z" transform="translate(807.469 851.553) rotate(-14)" fill="#fff" opacity="0.77"/><path d="M7.392-22.946C7.392-9.24,16.632,3.08,35.728,3.08c10.626,0,17.556-3.234,27.72-12.628l2.31-2.156L82.39,3.85,97.482-10.626,80.08-26.334l16.94-16.94L82.39-56.518,65.6-39.732,53.592-50.974l1.54-1.386C62.37-58.982,67.144-65.3,67.144-73.3c0-12.628-10.626-22.176-27.1-22.176-16.17,0-26.334,10.934-26.334,23.408,0,7.7,2.464,13.4,8.624,19.558l2.156,2.156-5.7,4.774C10.934-39.27,7.392-31.724,7.392-22.946Zm5.39,0c0-7.7,2.772-13.86,9.394-19.25l9.7-8.008-5.7-5.236C21.1-60.368,19.4-65.6,19.4-72.072c0-10.164,7.854-19.25,20.636-19.25,13.09,0,21.406,7.854,21.406,18.018,0,6.622-4.312,12.474-10.626,18.326l-4.312,4L66.374-33.11,82.852-49.742l6.93,6.622L73.15-26.334,90.244-10.472l-7.854,7.7L65.6-18.326,59.6-12.782c-9.086,8.47-16.17,11.55-23.87,11.55C20.328-1.232,12.782-11.55,12.782-22.946Zm18.942-66.22H40.81v-.77H34.034Zm-5.236,3.08H40.964v-.77H27.412A4.083,4.083,0,0,1,26.488-86.086Zm-2.772,3.08H40.964v-.77H24.178ZM40.04-56.98l8.008-7.238a10.973,10.973,0,0,0,3.85-8.008c0-4.62-3.542-9.548-11.55-9.548-7.084,0-11.55,5.082-11.55,10.01a12.006,12.006,0,0,0,3.388,7.392ZM21.868-79.926H32.34l1.232-.77h-11.4C22.022-80.388,22.022-80.08,21.868-79.926Zm-1.078,3.08h8.778l.462-.77H20.944A1.674,1.674,0,0,0,20.79-76.846Zm19.4,13.4-4.158-4a6.356,6.356,0,0,1-1.848-4.312,6,6,0,0,1,6.16-5.7c4.158,0,6.006,2.772,6.006,5.236a6.647,6.647,0,0,1-2,4.774ZM20.174-73.766h8.008c.154-.154.154-.462.308-.77H20.328A6.67,6.67,0,0,1,20.174-73.766Zm0,3.08h7.854v-.77H20.174Zm.308,3.08h8.47c-.154-.154-.154-.462-.308-.77H20.328A1.674,1.674,0,0,1,20.482-67.606Zm.924,3.08h9.548l-.616-.77H21.1A1.176,1.176,0,0,0,21.406-64.526Zm1.232,3.08h11.55l-.77-.77H22.33A1.176,1.176,0,0,0,22.638-61.446Zm2,3.08H37.576l-.924-.77H24.024Zm2.618,3.08H41.58l-1.232-.77H26.488Zm3.388,3.08h13.86l-.924-.77H29.722Zm.77,3.08h11.55l1.078-.77H32.34Zm48.818,3.08h5.544l-.77-.77H81Zm-52.514,0H39.578l1.078-.77H28.644Zm-.154,31.262a13.774,13.774,0,0,0,9.394,3.7,17.684,17.684,0,0,0,12.474-5.7l8.624-8.778L38.346-43.89l-9.24,8.47c-4.158,3.85-5.852,7.546-5.852,11.242A13.118,13.118,0,0,0,27.566-14.784ZM77.154-42.966h11.4l.154-.154-.616-.616H77.924Zm-53.13,0h12.32l.77-.77H24.948Zm50.2,3.08H85.47l.77-.77H75Zm-53.592,0h12.32l.924-.77H21.406Zm50.512,3.08H82.39l.77-.77H71.918Zm-53.13,0h11.55l.924-.77H18.48Zm13.4,18.634A9.867,9.867,0,0,1,28.8-24.486a11.3,11.3,0,0,1,3.85-8.008l5.544-4.774L50.82-25.41l-4.774,4.928c-2.464,2.464-4.774,4.774-9.086,4.774A7.888,7.888,0,0,1,31.416-18.172ZM68.068-33.726h11.4l.77-.77h-11.4Zm-52.052,0H26.488l.616-.77H16.478ZM67.3-31.416l.924.77h8.162l.77-.77Zm-52.514.77h9.394l.616-.77h-9.7C14.938-31.108,14.784-30.954,14.784-30.646Zm56.056,2.31.924.77H73.3l.77-.77Zm-56.826.77h8.932a1.154,1.154,0,0,0,.154-.77H14.014Zm-.462,3.08h8.932v-.77H13.552Zm44.506,0h1.386l-.77-.616Zm-3.08,3.08h7.238l-.924-.77H55.748Zm-41.426,0h9.24a1.154,1.154,0,0,1-.154-.77H13.552Zm38.5,3.08H64.526l.924-.77H52.822Zm-38.192,0H24.024l-.462-.77h-9.7Zm35.112,3.08h12.32l.77-.77H49.742A1.856,1.856,0,0,1,48.972-15.246Zm-34.188,0h11.4a1.537,1.537,0,0,1-.616-.77H14.476C14.63-15.708,14.63-15.4,14.784-15.246Zm29.568,3.08H57.9a4.083,4.083,0,0,0,.924-.77H45.892A4.817,4.817,0,0,1,44.352-12.166Zm-28.182,0H30.03a3.353,3.353,0,0,1-1.232-.77H15.708Zm1.386,2.31.616.77H54.208a4.083,4.083,0,0,0,.924-.77Zm2.926,3.08,1.078.77H49.742a6.242,6.242,0,0,0,1.386-.77ZM25.718-3.7a7.736,7.736,0,0,0,2,.77H42.966a13.552,13.552,0,0,0,2.31-.77Z" transform="translate(1127.985 769.402) rotate(-14)" fill="#fff" opacity="0.5"/><path d="M11.61-45.408C11.61-17.544,30.7,5.16,64.5,5.16c29.154,0,52.374-22.7,52.374-50.052,0-24.252-12.9-39.732-40.506-47.988C63.21-96.75,49.02-98.814,49.02-110.424c0-10.062,8-14.964,16.254-14.964,10.578,0,16,7.224,16,16h35.6C114.81-138.03,98.556-159.96,64.242-159.96c-29.154,0-52.632,22.7-52.632,50.052,0,26.574,14.448,38.7,40.506,47.988C64.758-57.534,79.98-54.18,79.98-42.57c0,8-5.934,13.416-15.48,13.416a16.133,16.133,0,0,1-16-16.254Zm9.03,7.224H40.764c2.322,8.514,10.578,16,23.736,16.254,12.126,0,23.994-6.966,23.994-20.64,0-16.77-17.8-20.64-32.508-26.058-28.38-10.062-35.6-22.188-35.6-41.28,0-23.478,20.124-42.828,44.118-42.828,30.186,0,41.538,20.9,43.086,36.12H88.236c-2.322-6.45-7.74-16-23.736-16-13.932,0-23.994,8.772-23.994,22.188,0,15.222,13.158,18.834,28.38,23.22C92.622-80.5,108.1-70.95,108.1-44.892c0,23.478-19.608,42.828-43.6,42.828C39.99-2.064,21.156-18.834,20.64-38.184ZM52.89-148.35H64.5v-1.29H59.082ZM41.8-143.19H64.5v-1.29H43.86Zm-7.224,5.418H64.5v-1.29H36.12Zm-4.386,5.16h20.9l2.838-1.29h-22.7Zm-3.1,5.418H43.86l1.806-1.548h-17.8Zm-2.064,5.16H40.248l.774-1.29H25.284Zm-1.548,5.418H38.442l.516-1.548H23.994Zm-.516,5.16H37.926v-1.29H22.962Zm0,5.16H38.184l-.258-1.29H22.962Zm.774,5.418H39.474l-.516-1.29H23.478Zm1.29,5.16H43.344L41.8-97.266l.258.258H24.768Zm3.1,5.418H50.31l-2.064-1.29h-20.9Zm4.644,5.16H66.048l-4.9-1.29H31.476Zm7.482,5.418H81.786l-3.87-1.548H37.41Zm7.224,3.87,2.064,1.29H90.558l-1.548-1.29Zm10.578,5.16,3.87,1.548H97.266l-1.29-1.548Zm14.964,5.418,2.838,1.29h25.026l-.516-1.29Zm9.8,5.16,1.548,1.29H103.2l-.516-1.29Zm5.418,6.708h16.77l-.516-1.29H87.462Zm2.064,5.16h14.964v-1.29H90.042Zm.774,5.418h14.19l.258-1.29H91.074Zm-.516,5.16h14.19l.258-1.29H90.816ZM88.752-32.25H103.2l.516-1.548H89.526Zm-3.87,5.16H100.62l.774-1.29H86.172Zm-7.74,5.418H97.524l.258-.516.774-1.032H80.238ZM64.5-16.512H92.622l1.29-1.29H64.5Zm0,5.16H85.914l1.806-1.29H64.5Zm0,5.418h8.256l4.9-1.29H64.5ZM155.832,0h37.926V-154.8H155.832Zm9.546-7.224V-147.576h18.834V-7.224Zm2.58-136.74h13.674v-1.29H167.958Zm0,5.16h13.674v-1.29H167.958Zm0,5.16h13.674v-1.29H167.958Zm0,5.16h13.674v-1.29H167.958Zm0,5.16h13.674v-1.29H167.958Zm0,5.16h13.674v-1.29H167.958Zm0,5.16h13.674v-1.29H167.958Zm0,5.16h13.674v-1.29H167.958Zm0,5.16h13.674v-1.29H167.958Zm0,5.16h13.674v-1.29H167.958Zm0,5.16h13.674v-1.29H167.958Zm0,5.16h13.674v-1.29H167.958Zm0,5.16h13.674v-1.29H167.958Zm0,5.16h13.674v-1.29H167.958Zm0,5.16h13.674v-1.29H167.958ZM234.78,0h37.926V-91.848L333.078,0h39.474V-154.8H334.884v91.848L274.77-154.8H234.78Zm9.546-7.224V-147.576h24.51l70.95,107.844h4.644V-147.576h18.576V-7.224H339.012L267.03-116.358h-3.87V-7.224Zm7.482-136.224H268.32l-1.032-1.29H251.034Zm3.612,5.16h16.254l-1.032-1.29h-16Zm3.354,5.16h16.254L274-134.418H258Zm3.612,5.16h16l-1.032-1.29H261.612Zm3.354,5.16h16L280.7-124.1H264.966Zm3.612,5.16H285.09l-1.032-1.29h-15.48Zm3.354,5.16h16l-1.032-1.29H271.932Zm3.354,5.16h16l-1.032-1.29H275.286Zm3.612,5.16H295.41l-1.032-1.29H278.9Zm3.354,5.16h15.738l-1.032-1.29h-15.48Zm3.354,5.16h15.738l-1.032-1.29h-15.48Zm3.354,5.16h16l-1.032-1.29H288.96Zm3.354,5.16h16l-1.032-1.29H292.314Zm3.354,5.16h16l-1.032-1.29H295.668Zm3.612,5.16h15.738L314.76-72.5H299.28Zm3.354,5.16h15.738l-1.032-1.29h-15.48Zm3.354,5.16H322.5l-1.032-1.29h-15.48Zm3.354,5.16h16l-1.032-1.29H309.342Zm2.58,3.87.774,1.29h16l-1.032-1.29Zm3.612,5.16.774,1.29H332.82l-1.032-1.29Zm3.354,5.16.774,1.29h15.738l-1.032-1.29Zm3.354,5.16.774,1.29h16.254l-1.032-1.29Zm3.354,5.16.774,1.29h16.77l-1.29-1.29Zm3.354,5.16.774,1.29h17.286l-1.29-1.29Zm3.354,5.16.774,1.29H351.4l-1.032-1.29Zm3.612,5.16.774,1.29h18.06l-1.29-1.29Zm2.838,4.644L340.3-9.8h18.834l-1.29-1.29Z" transform="translate(650.771 707.492) rotate(-14)" fill="#fff" opacity="0.77"/><path d="M11.61-77.4c0,46.182,34.83,82.56,83.85,82.56,56.244,0,83.076-38.184,83.076-83.85V-93.4H93.4V-60.63h44.118C136.482-45.666,123.324-30.7,96.234-30.7c-25.8,0-46.182-18.06-46.182-46.7,0-26.058,17.8-46.7,45.408-46.7,14.706,0,27.864,5.934,38.442,15.48l26.316-24.252c-16.254-16.512-36.12-27.09-64.758-27.09C46.44-159.96,11.61-123.582,11.61-77.4Zm9.546,0c0-42.054,31.218-75.336,74.3-75.336,22.188,0,39.474,6.708,52.89,19.35l-14.964,14.448c-10.836-7.482-24.252-12.384-37.926-12.384-33.282,0-55.212,23.736-55.212,53.922S62.178-23.478,95.46-23.478c36.378,0,52.116-23.22,52.374-44.376H102.942V-86.172H168.99v9.03c0,42.828-23.736,75.078-73.53,75.078C52.374-2.064,21.156-35.346,21.156-77.4Zm3.87-14.706h14.19l.516-1.29H25.284Zm-.774,5.16H38.184l.516-1.29H24.51Zm82.044,5.16h59.6v-1.29H106.3Zm-82.56,0H37.668l.258-1.29H23.994Zm82.56,5.16h59.6v-1.29H106.3Zm-82.56,0H37.668v-1.29H23.736Zm82.56,5.16h59.6v-1.29H106.3Zm-82.3,0H37.926l-.258-1.29H23.736Zm126.936,5.16h14.19V-67.6H151.188Zm-126.42,0H38.7l-.516-1.29H24.252Zm125.646,5.16h14.19l.258-1.29H150.672Zm-124.614,0h14.19l-.516-1.29H25.026Zm123.84,5.16h13.932l.516-1.29H149.64Zm-122.808,0H41.28l-.516-1.29H26.316Zm120.744,5.16h14.706l.516-1.29H147.834Zm-119.2,0H43.6l-.774-1.29H27.864Zm116.616,5.16h15.738l.774-1.29H145.77Zm-114.294,0H46.7l-1.032-1.29h-16Zm111.2,5.16h16.512l.774-1.29h-16Zm-108.618,0H50.568l-1.29-1.29H32.25Zm104.232,5.16h18.318l1.032-1.29h-18.06Zm-101.136,0H55.212l-1.29-1.29H35.346Zm94.686,5.16h21.93l1.032-1.29h-20.9Zm-90.816,0H61.4l-1.548-1.29H39.216Zm80.5,5.16h28.122l1.29-1.29H123.066ZM43.6-26.316l1.29,1.29H71.466l-2.58-1.29Zm5.934,5.16,1.548,1.29h91.59l1.548-1.29H103.716a66.658,66.658,0,0,1-8.256.516,79.387,79.387,0,0,1-8.514-.516ZM56.76-16l1.806,1.29h77.4L137.772-16Zm9.03,5.16,3.354,1.29h55.728l3.354-1.29Zm17.544,5.16A89.857,89.857,0,0,0,95.46-4.9c6.45,0,9.8-.258,11.868-.774Z" transform="translate(1026.788 615.676) rotate(-14)" fill="#fff" opacity="0.5"/><g transform="matrix(1, 0, 0, 1, 623.34, 417.28)" filter="url(#a)"><path d="M38.64-.32A70.843,70.843,0,0,0,31.8-17l-3.84,1.72A48.419,48.419,0,0,1,32.08-6.6a84.165,84.165,0,0,1-9,1.56c2-8.04,4.88-21.4,4.96-22,.36-2.16.44-2.2.92-2.44.24-.12.44-.2.44-.48,0-.24-.28-.4-.96-.56l-4.4-1.12c-1.52,9.88-3.56,20.16-5.2,27.08-.76.08-2.28.2-3.52.2L16.44.08c.08.4.28,1,.6,1,.12,0,.24-.12.48-.52C17.8.04,18,0,19.44-.16,20.8-.32,29.68-2.08,33.28-2.88c.48,1.72.72,2.72.96,3.96Zm-19.36-12a17.493,17.493,0,0,1-5.16-6.76h5.12v-3.88H13.68v-4.68c1.32-.32,3.24-.88,4.28-1.24.2,0,.92.16,1.04.16.2,0,.28-.2.28-.36a1.277,1.277,0,0,0-.36-.64l-3.08-3.12c-2.6,1.52-7.08,2.84-13.36,3.4L4.6-26.08c1.92-.2,2.84-.36,4.76-.68v3.8H2.76v3.88H8.44A28.552,28.552,0,0,1,1.64-6.24l3.8,2.28A35.823,35.823,0,0,0,9.36-10V2.04h4.32V-12.72a28.2,28.2,0,0,0,2.8,3.28ZM75.92-5.8a32.016,32.016,0,0,0-6.88-3.76,98.269,98.269,0,0,1-.56-10.72,37.369,37.369,0,0,0,5-1.12v-4.32a17.465,17.465,0,0,1-4.96,1.64,46.143,46.143,0,0,1,.56-4.96c.4-.24.76-.44.76-.64,0-.24-.12-.44-.96-.56l-4.48-.72c-.08,3.96-.08,4.4-.16,7.4a31.665,31.665,0,0,1-3.72.24,20.821,20.821,0,0,1-3.6-.24l.04,4.12a44.463,44.463,0,0,0,7.24-.32c.08,2.72.2,4.4.52,9.16-.8-.08-1.64-.16-2.44-.16-3.88,0-7.04,1.56-7.04,5.16C55.24.16,61.96.16,63.12.16c5.44,0,6.24-2.08,6.32-5.16a21.4,21.4,0,0,1,4.2,3.16ZM53.08-9.32l-2.52-1.72-1.64,2.4a39.411,39.411,0,0,1-.2-4.2,101.638,101.638,0,0,1,1.48-12.4,11.434,11.434,0,0,1,.88-2.72,6.154,6.154,0,0,0,.76-.32.347.347,0,0,0,.16-.28c0-.4-.84-.76-.96-.8l-3.88-1.52a75.829,75.829,0,0,0-2.44,18.72A43.03,43.03,0,0,0,46.24.24l3.68-.6C50.36-3.56,52.2-7.44,53.08-9.32ZM64.96-6.8c.08,2.08.16,3-2.48,3-2.36,0-3.52-.84-3.52-1.76s1.28-1.6,3.16-1.6A13.759,13.759,0,0,1,64.96-6.8Zm52.48,5.72c-6.2-6.36-7.48-11.36-7.48-16.56a8.213,8.213,0,0,1,.2-2.04c0-.04.6-.44.68-.52a.356.356,0,0,0,.2-.32c0-.32-.36-.48-1.12-.52l-4.12-.28c.08,3.72.24,14.48-6.04,19.88v-10.8h2.56V-15.8H98.2a2.612,2.612,0,0,0,1.6-1.68l3.04,1.8a34.893,34.893,0,0,0,3.12-7.24h6.88c-.64,2.08-1.56,4.92-2.56,7.72l3.96,1.2c1-3.24,2.36-8.44,2.96-11.08l-1.72-1.72h-8.32a22.907,22.907,0,0,0,.8-3.28c.08-.32.16-.36.84-.72.2-.08.36-.16.36-.32,0-.24-.2-.4-.92-.56l-4.28-.92c-.72,5.56-1.4,8.8-4,13.12V-28.2h2.36v-3.56H82.84v3.56H95.92v7.28c0,.88-.28,1.72-1.24,1.72a2.168,2.168,0,0,1-.6-.08V-26.6H84.92v8.12h8.92L95-15.8H82.68v3.56H95.76v9.28c0,.32-.12,1.24-1,1.36a14.666,14.666,0,0,1-2.12,0l1.32,3.68c.92-.04,4.04-.12,5.44-2.24l3,2.4c1.96-1.92,4-4.48,5.84-9.76a26.1,26.1,0,0,0,5.6,9.12ZM91-21.32H88v-2.32h3ZM93.76-2.2v-8.64H84.12V-.8h3.44V-2.2Zm-3.08-3H87.56V-7.88h3.12Zm52.04-26.32a47.5,47.5,0,0,1-12-1.4l.36,4.92a109.01,109.01,0,0,0,11.08,1Zm5.16,15.92c0-1.68-.28-4.08-1.72-5.68a7.146,7.146,0,0,0-5.32-2.2c-5.12,0-12.76,3.04-15.72,4.2l1.84,4.64c2.92-1.44,9.36-4.64,12.68-4.64,1.24,0,3.6.72,3.6,4.24a12.277,12.277,0,0,1-2.92,7.64,18.95,18.95,0,0,1-10,6l3.08,3.84c2.72-1,7-2.52,10.4-6.64A17.923,17.923,0,0,0,147.88-15.6ZM192.8-.32A70.842,70.842,0,0,0,185.96-17l-3.84,1.72a48.418,48.418,0,0,1,4.12,8.68,84.165,84.165,0,0,1-9,1.56c2-8.04,4.88-21.4,4.96-22,.36-2.16.44-2.2.92-2.44.24-.12.44-.2.44-.48,0-.24-.28-.4-.96-.56l-4.4-1.12c-1.52,9.88-3.56,20.16-5.2,27.08-.76.08-2.28.2-3.52.2L170.6.08c.08.4.28,1,.6,1,.12,0,.24-.12.48-.52.28-.52.48-.56,1.92-.72,1.36-.16,10.24-1.92,13.84-2.72.48,1.72.72,2.72.96,3.96Zm-19.36-12a17.493,17.493,0,0,1-5.16-6.76h5.12v-3.88h-5.56v-4.68c1.32-.32,3.24-.88,4.28-1.24.2,0,.92.16,1.04.16.2,0,.28-.2.28-.36a1.277,1.277,0,0,0-.36-.64L170-32.84c-2.6,1.52-7.08,2.84-13.36,3.4l2.12,3.36c1.92-.2,2.84-.36,4.76-.68v3.8h-6.6v3.88h5.68a28.552,28.552,0,0,1-6.8,12.84l3.8,2.28A35.823,35.823,0,0,0,163.52-10V2.04h4.32V-12.72a28.2,28.2,0,0,0,2.8,3.28Zm54.24-2.96c0-8.92-6.56-14.56-14.88-14.56a17.252,17.252,0,0,0-17.64,16.96c0,7.16,6.56,10.76,8,10.76,2.08,0,3.92-3.36,5.12-5.84,1.32-2.68,3.68-8.28,4.96-17.8a10.233,10.233,0,0,1,6.8,2.68,9.43,9.43,0,0,1,2.88,7,12.514,12.514,0,0,1-2.88,7.96,13.472,13.472,0,0,1-7.2,4.28L215.8.28a19.31,19.31,0,0,0,9.32-7.04A14.946,14.946,0,0,0,227.68-15.28Zm-19.2-9.76c-.8,6.24-4.24,16.68-6.32,16.68-.72,0-2.56-1.68-2.56-4.92a13.1,13.1,0,0,1,4-8.88A11.809,11.809,0,0,1,208.48-25.04Zm54.56,10.48V-18.8a45.936,45.936,0,0,0-5.28-.24c-2.12,0-4.12.12-6.2.28v4.2a49.023,49.023,0,0,1,6-.44A43.471,43.471,0,0,1,263.04-14.56ZM254-22.6v-4.44a31.285,31.285,0,0,1-6.36,2.36c.28-1.12.6-2.56.96-4.36.08-.4.16-.44.68-.68.36-.16.48-.28.48-.56,0-.44-.92-.64-1-.64l-4.92-1.16a48.574,48.574,0,0,1-1.36,8.48,29.022,29.022,0,0,1-3.96.24,16.139,16.139,0,0,1-3.24-.24l.32,4.16a52.737,52.737,0,0,0,5.96-.48C238.4-9.08,235.84-4.76,233.44-.88L238.32.6a113.439,113.439,0,0,0,8.24-21.28A48.276,48.276,0,0,0,254-22.6ZM263.68.28l-.4-4.64a26.334,26.334,0,0,1-7.04.88c-.92,0-3.96-.04-5.08-1.08a1.373,1.373,0,0,1-.48-1.2,7.563,7.563,0,0,1,.16-1.48l-3.96-.84a9.27,9.27,0,0,0-.48,2.88c0,4.08,3.08,6.08,10.28,6.08A38.689,38.689,0,0,0,263.68.28ZM301.72-12.8a11.825,11.825,0,0,0-4.04-9.04,13.751,13.751,0,0,0-7.24-2.96c.4-1.8.44-2.08.92-4.88,0-.16.2-.32.32-.4.4-.28.56-.36.56-.56,0-.48-.92-.56-1.28-.6l-4.64-.44a39.682,39.682,0,0,1-.56,6.92,19.5,19.5,0,0,0-6.56,2.16,33.09,33.09,0,0,1-1.32-6.52l-4.68,1.88c.52,2.12,1.12,4.12,2.24,7.36-1.52,1.52-5.36,5.32-5.36,11.6,0,4.32,2.24,6.84,5.04,6.84,2.64,0,5.44-2.8,6.6-3.96a21.531,21.531,0,0,0,1.6,2.44l3.32-3.64a26.4,26.4,0,0,1-1.84-2.72,49.382,49.382,0,0,0,4.64-11.48c4.84.56,7.44,4.08,7.44,7.56a10.35,10.35,0,0,1-3.24,7.44,14.606,14.606,0,0,1-7.6,3.56L288.8,1.6a18.076,18.076,0,0,0,8.32-4.56A13.862,13.862,0,0,0,301.72-12.8Zm-16.84-7.64a44.169,44.169,0,0,1-2.36,6.68c-.8-1.72-1.4-3.16-1.96-4.68A12.465,12.465,0,0,1,284.88-20.44ZM279.76-9.16c-.56.72-2.2,2.76-3.88,2.76-1.08,0-1.56-1.08-1.56-2.24,0-.96.16-3.56,2.68-6.96C278.28-12.36,278.92-10.96,279.76-9.16Zm56.48-14.76v-4.64a27.942,27.942,0,0,1-9.48,1.64,35.234,35.234,0,0,1-5.12-.44v4.4c2.12.2,3.96.2,4.28.2A53.722,53.722,0,0,0,336.24-23.92Zm1.92,21V-7.88a32.63,32.63,0,0,1-9.12,1.24c-4.04,0-4.44-1.08-4.48-4.88l-4.36.6c.12,6.76,1.64,8.72,8.92,8.72A54.675,54.675,0,0,0,338.16-2.92Zm-20.92-7.12-2.36-1.28c-.88,1.56-1.12,1.96-1.6,2.8a22,22,0,0,1-.56-5.48c0-6.04,1.72-13.28,2.32-13.64.08-.04.6-.24.68-.28a.474.474,0,0,0,.2-.36c0-.32-.76-.6-1.04-.72l-4.08-1.48a78.839,78.839,0,0,0-1.68,9.12,70.755,70.755,0,0,0-.6,7.88,34.849,34.849,0,0,0,1.64,10.52A12.244,12.244,0,0,0,311.64.2l3.16-1.24A35.487,35.487,0,0,1,317.24-10.04Z" transform="translate(344.56 456.96) rotate(-14)" fill="#fff"/></g></g></svg>