<svg xmlns="http://www.w3.org/2000/svg" xmlns:xlink="http://www.w3.org/1999/xlink" width="518.054" height="143.901" viewBox="0 0 518.054 143.901"><defs><clipPath id="a"><rect width="143.531" height="143.901" fill="none"/></clipPath><clipPath id="b"><rect width="143.901" height="143.901" fill="none"/></clipPath></defs><g transform="translate(-423.973 -6630.931)"><g transform="translate(423.973 6630.931)"><rect width="143.528" height="143.901" transform="translate(0 0)" fill="#b7001e"/><path d="M11.8,24.923H3.551V20.8l7.13-16.758h5.845V20.971h2.736v3.952H16.526v6.488H11.8Zm0-3.952V9.348L7.639,20.971Z" transform="translate(7.414 8.441)" fill="#fff"/><path d="M38.085,35.028,12.224,20.095V68.4l25.861,7.8Z" transform="translate(25.523 41.955)" fill="#fff"/><path d="M21.52,35.124V76.218l26.028-7.825V20.1Z" transform="translate(44.932 41.957)" fill="#fff"/><path d="M35.3,64.52h-.76L37.6,75.213,40.661,64.52h0V21.543h-6.12V64.52Z" transform="translate(72.118 44.979)" fill="#fff"/><path d="M76.243,22.247,73.47,20.058v49.73L44.737,79.073H41.816L13.21,71.082V20.058l-2.773,2.189v50.78l31.249,8.649h3.181L73.7,72.524l2.548-.75Z" transform="translate(21.792 41.878)" fill="#fff"/><g transform="translate(0 0)"><g clip-path="url(#a)"><path d="M40.66,21.768a3.059,3.059,0,1,0-6.117,0v3.3H40.66Z" transform="translate(72.122 39.06)" fill="#fff"/><path d="M15.823,6.816l.009,1.328H14.715V6.779h-.707a3.466,3.466,0,0,1-1.158,2.276l-.9-.627c.908-.738.926-1.439.926-2.634,0-.457-.019-.911-.037-1.368l.967.074A9.528,9.528,0,0,0,15.9,3.945l.852,1.038c0,.1-.1.133-.17.133a.448.448,0,0,1-.21-.071c-.769.145-1.55.232-2.328.306,0,.173,0,.333-.009.506h3.761v.96Zm4.443.111V8.144h-1.21V6.863h-.831a2.61,2.61,0,0,1-.994,1.587h3.026v4.814H19.013a5.688,5.688,0,0,0,2.585.889l-.781,1.158A13.4,13.4,0,0,1,17.475,13.9c.235-.222.5-.4.719-.633H15.422c.093.114.642.633.642.729a.135.135,0,0,1-.148.124.483.483,0,0,1-.127-.025,11.4,11.4,0,0,1-3.076,1.183l-.673-1.01a5.062,5.062,0,0,0,2.547-1H13.442V8.45h3.465c-.21-.12-.411-.266-.611-.4a1.874,1.874,0,0,0,.865-1.834c0-.605-.012-1.22-.043-1.825l.973.074a7.29,7.29,0,0,0,2.075-.54l.97,1c.04.046.114.108.114.185,0,.1-.139.108-.188.108a.559.559,0,0,1-.278-.074c-.831.1-1.664.185-2.5.222,0,.185,0,.358-.009.543h3.347V6.928ZM19,9.327h-4.45v.5H19Zm.009,1.281H14.554v.482h4.459Zm0,1.266H14.554v.494h4.459Z" transform="translate(24.959 8.191)" fill="#fff"/><path d="M20.838,13.523c-.327-.355-.621-.738-.945-1.084,1.661-.466,3.2-1.146,3.2-3.483a3.231,3.231,0,0,0-2.2-3.347c-.284,2.131-.843,5.515-2.5,6.769a1.6,1.6,0,0,1-.982.4,1.575,1.575,0,0,1-1.127-.713,4.4,4.4,0,0,1-.676-2.526,4.845,4.845,0,0,1,4.647-5.144A4.121,4.121,0,0,1,24.463,8.87a4.482,4.482,0,0,1-3.625,4.653M17.129,7.847a4.785,4.785,0,0,0-.293,1.686c0,.506.093,1.813.682,1.813.213,0,.389-.235.519-.4.991-1.183,1.411-3.705,1.516-5.32a3.807,3.807,0,0,0-2.424,2.217" transform="translate(32.592 9.164)" fill="#fff"/><path d="M19.136,6.239V5.115H22.82v-1.2L24.141,4a.15.15,0,0,1,.167.148c0,.1-.1.182-.179.21v.76h3.8V6.239Zm6.753,8.936-.8-1c.738-.148,1.371-.247,1.371-1.315V10.606h-5.8v4.286h-1.2V9.648H27.7v3.3a1.934,1.934,0,0,1-1.813,2.229m-5.2-8.523h5.669V9.179H20.692Zm.676,4.508h4.406v2.72H21.369Zm3.807-3.607H21.844V8.32h3.332Zm-.531,4.481H22.474v.923h2.171Z" transform="translate(39.954 8.166)" fill="#fff"/><path d="M24.753,13.484a1.122,1.122,0,0,1-.821-.358A6.452,6.452,0,0,1,22.7,9.068a19.938,19.938,0,0,1,.213-3.381c.052-.432.1-.849.176-1.272a8.509,8.509,0,0,1,1.491.553.149.149,0,0,1,.077.133.27.27,0,0,1-.216.241,12.822,12.822,0,0,0-.4,2.483,12.067,12.067,0,0,0-.022,1.569,6.039,6.039,0,0,0,.256,1.643c.071.229.232.794.494.787.506-.015,1.136-1.646,1.356-2.146l.664,1.572c-.315.824-1.192,2.214-2.029,2.236m5.144-2a11.218,11.218,0,0,0-1.785-5.2c.438-.207.84-.451,1.278-.648a13.225,13.225,0,0,1,1.859,5.209c-.445.235-.9.438-1.352.639" transform="translate(47.374 9.218)" fill="#fff"/><path d="M31.827,5.38A17.01,17.01,0,0,1,30.542,7.7h.682v1H29.875c-.154.195-.3.392-.472.59h1.454v.849a11.1,11.1,0,0,1-1.136,1.207v.306c.577-.1,1.167-.195,1.748-.33l-.1,1.133c-.525.148-1.062.232-1.59.343v.726A1.758,1.758,0,0,1,28.3,15.44l-.778-.9c.9-.259,1.093-.432,1.093-1.553-.476.111-.96.21-1.433.321-.009.074-.074.207-.148.207s-.1-.046-.114-.111l-.485-1.254c.713-.086,1.433-.213,2.14-.346,0-.392-.022-.8-.022-1.2l.642.04a3.013,3.013,0,0,0,.4-.556h-.97a8.269,8.269,0,0,1-1.868,1.417l-.726-.84A8.594,8.594,0,0,0,28.5,8.681h-2.2V7.656h1.772V6.6H26.707V5.467h1.349V3.938l1.251.114a.115.115,0,0,1,.127.12.277.277,0,0,1-.157.222V5.479H30.8l-.719.713a15.541,15.541,0,0,0,.692-1.847l1.152.7a.229.229,0,0,1,.124.2c0,.133-.145.145-.219.133m-2.572,1.2v1.1a11.949,11.949,0,0,0,.655-1.1Zm6.133,8.594a8.969,8.969,0,0,1-1.825-2.057,8.008,8.008,0,0,1-2.6,2.189l-.769-.957a5.388,5.388,0,0,0,2.665-2.291A12.073,12.073,0,0,1,32.04,9.6a5.812,5.812,0,0,1-.426.676l-.726-.787a14.016,14.016,0,0,0,1.667-5.555l1.334.42a.234.234,0,0,1,.139.207c0,.114-.157.213-.232.238-.148.577-.306,1.167-.485,1.735h2.646v1.1h-.581a12.01,12.01,0,0,1-1.087,4.443A7.4,7.4,0,0,0,36.3,14.159ZM32.923,7.634l-.108.272a13.668,13.668,0,0,0,.732,2.915,12.658,12.658,0,0,0,.587-3.187Z" transform="translate(54.35 8.222)" fill="#fff"/><path d="M36.667,6.256c.645.753,1.328,1.454,1.939,2.239l-.948.865A9.818,9.818,0,0,0,36.8,8.279c-2.171.2-4.351.256-6.531.392l-.253-1.192h1.087a.606.606,0,0,0,.408-.173,6.155,6.155,0,0,0,.824-1.05H29.67V5.2h3.86V3.931l1.482.1c.074,0,.127.086.127.173,0,.108-.145.21-.219.244V5.2h3.888V6.256Zm-.831,8.918-.763-.914c.707-.124,1.139-.256,1.139-1.2H32.177v2.019H30.989V9.088h6.46V13.3a1.639,1.639,0,0,1-1.612,1.874m-3.668-5.151v.556h4.045l.012-.556Zm4.057,1.467H32.168V12.1h4.057ZM34.138,6.256c-.445.42-.865.886-1.337,1.269,1.065-.037,2.137-.111,3.2-.173-.188-.173-.367-.367-.547-.553.306-.173.611-.346.9-.543Z" transform="translate(61.947 8.207)" fill="#fff"/><path d="M41.584,9.656a.273.273,0,0,1-.154-.062c-.763.256-2.226.837-2.918,1.155v1.9l-1.244-.009c.009-.173.009-.358.009-.565v-.689c-.843.392-1.266.9-1.266,1.464,0,.491.488.75,1.445.75a9.357,9.357,0,0,0,3.066-.491l-.04,1.439a8.732,8.732,0,0,1-2.646.355c-2.066,0-3.1-.648-3.1-1.97a2.441,2.441,0,0,1,.865-1.772A7.59,7.59,0,0,1,37.2,10.1c-.019-.556-.188-.84-.494-.84a1.529,1.529,0,0,0-1.084.469,9.8,9.8,0,0,0-.812.834c-.392.435-.633.729-.781.877-.188-.222-.485-.553-.877-1.01A8.858,8.858,0,0,0,35.813,7.1c-.559.074-1.183.124-1.853.161-.043-.469-.108-.9-.17-1.281A18.178,18.178,0,0,0,36.2,5.851a10.233,10.233,0,0,0,.358-1.7l1.424.324a.145.145,0,0,1,.127.145c0,.074-.052.136-.17.185-.052.21-.148.531-.281.945A16.688,16.688,0,0,0,39.626,5.3l-.114,1.352c-.581.124-1.362.247-2.328.383a7.747,7.747,0,0,1-.655,1.229,2.09,2.09,0,0,1,.6-.083c.642,0,1.065.429,1.254,1.315.843-.445,1.8-.9,2.847-1.365l.482,1.377c0,.1-.04.148-.127.148" transform="translate(69.222 8.665)" fill="#fff"/><path d="M20.75,17.51a16,16,0,0,0-1.433-1.059,6.551,6.551,0,0,1-2.171,3.116l-1.1-.729A5.344,5.344,0,0,0,18.2,15.877a7.684,7.684,0,0,0-1.97-.744,13.644,13.644,0,0,1-.506,1.281c-.454,1.019-1.022,2.053-2.1,2.053-.886,0-1.507-.852-1.507-1.918a2.673,2.673,0,0,1,1.948-2.594,4.539,4.539,0,0,1,1.285-.114,20.385,20.385,0,0,0,.772-3.026l-2.245.4-.244-1.47h.117A14.451,14.451,0,0,0,17.3,9.278a7.234,7.234,0,0,0,.516.593c-.222.778-.463,1.544-.695,2.322-.182.59-.349,1.18-.55,1.754a7.548,7.548,0,0,1,1.97.642,11.488,11.488,0,0,0,.349-2.56c.423.29.843.574,1.244.892a13.987,13.987,0,0,1-.392,2.226,12.618,12.618,0,0,1,1.6.933c-.188.469-.389.957-.6,1.43m-7.439-1.022c0,.321.114.6.4.6a.533.533,0,0,0,.445-.232,6.767,6.767,0,0,0,.852-1.877c-.738.065-1.7.432-1.7,1.507" transform="translate(25.303 19.371)" fill="#fff"/><path d="M21.423,19.608c-1.4,0-1.3-1.495-1.3-2.659V15.8c0-.343.009-.753-.38-.753a1.017,1.017,0,0,0-.284.049c-1.581.457-2.18,2.909-2.677,4.45-.42-.229-.831-.46-1.241-.692.432-1.2.914-2.362,1.411-3.542.556-1.309,1.105-2.634,1.674-3.943.318-.726.611-1.467.948-2.183a12.856,12.856,0,0,1,1.331.682.128.128,0,0,1,.071.12.172.172,0,0,1-.176.157c-.707,1.223-1.34,2.523-1.982,3.783-.062.124-.127.232-.191.34a3,3,0,0,1,1.4-.46c1.022,0,1.34.787,1.34,1.843,0,.63-.012,1.248-.012,1.881,0,.315.043.753.4.753a2.276,2.276,0,0,0,1.328-.778,7.206,7.206,0,0,0,1.071-1.6c.17.584.337,1.152.488,1.735a3.931,3.931,0,0,1-3.224,1.964" transform="translate(32.454 19.179)" fill="#fff"/><path d="M24,11.9c-.516.148-1.019.272-1.538.367a25.412,25.412,0,0,1-2.3,5.774c-.392-.195-.784-.429-1.161-.661a20.08,20.08,0,0,0,2.109-4.962,11.088,11.088,0,0,1-1.572.133c-.052-.429-.114-.862-.167-1.3a4.469,4.469,0,0,0,.581.025,9.332,9.332,0,0,0,1.464-.1A12.821,12.821,0,0,0,21.7,9.041c.5.074.982.136,1.467.247-.127.565-.25,1.146-.423,1.711a11.051,11.051,0,0,0,1.266-.42c0,.432-.012.874-.012,1.319m2.946,7.531a8.9,8.9,0,0,0-1.4-1.269c.006.136,0,.272,0,.4-.046,1.272-.871,1.615-1.822,1.615a3,3,0,0,1-1-.161,1.867,1.867,0,0,1-1.238-1.748A1.833,1.833,0,0,1,23.412,16.4a5.094,5.094,0,0,1,.862.071c-.012-.577-.031-1.158-.012-1.738a2.512,2.512,0,0,1,.161-.834h.948c.062,0,.371-.049.364.1a.067.067,0,0,1-.012.049,1.59,1.59,0,0,0-.216.75c-.025.652-.006,1.291.022,1.945a7.524,7.524,0,0,1,2.236,1.464c-.259.42-.525.837-.815,1.22m-2.622-1.772a1.765,1.765,0,0,0-.757-.136c-.4,0-.9.124-.923.7s.584.824.994.824c.389,0,.679-.086.7-.614.009-.256,0-.516-.012-.775m2.816-4.119A6.479,6.479,0,0,0,24.58,12.12l.611-1.229a6.481,6.481,0,0,1,2.625,1.417Z" transform="translate(39.682 18.877)" fill="#fff"/><path d="M24.389,19.254c-.383.04-.766.09-1.161.139a15.757,15.757,0,0,1-.553-4.746,30.058,30.058,0,0,1,.553-5.342l.926.213a3.01,3.01,0,0,1,.457.117.152.152,0,0,1,.12.161.175.175,0,0,1-.173.164,24.318,24.318,0,0,0-.618,5.54c0,.454.022.9.022,1.349.191-.568.374-1.146.574-1.714.269.241.534.491.8.732a11.756,11.756,0,0,0-.945,3.387m6.889-.358A8.739,8.739,0,0,1,29.332,19c-1.519-.046-2.94-.29-3.125-2.578.358-.266.719-.543,1.087-.8,0,1.3.618,1.884,1.609,1.914a6.855,6.855,0,0,0,2.4-.284c-.009.547-.015,1.084-.025,1.64m-.266-6.988a8.377,8.377,0,0,0-2.467-.148,11.567,11.567,0,0,0-1.7.29c-.046-.448-.077-1.007-.133-1.457a13.257,13.257,0,0,1,2.415-.287,9.332,9.332,0,0,1,2.01.1c-.037.5-.068,1.007-.12,1.5" transform="translate(47.343 19.428)" fill="#fff"/></g></g></g><g transform="translate(609.563 6630.931)"><rect width="143.901" height="143.901" transform="translate(0 0)" fill="#e01f10"/><g transform="translate(0 0)"><g clip-path="url(#b)"><path d="M6.5,30.934a5.051,5.051,0,0,1-2.134-2.828,15.385,15.385,0,0,1-.577-4.573H8.873a9.647,9.647,0,0,0,.442,3.437,1.687,1.687,0,0,0,1.726,1.068,1.7,1.7,0,0,0,1.491-.676,3.915,3.915,0,0,0,.593-1.846q.116-1.172.117-3.372a11.452,11.452,0,0,0-.457-3.742,1.816,1.816,0,0,0-1.88-1.238q-1.829,0-2.337,2.473h-4.5L4.436,4.053H17.071v4.5H8.737l-.306,6.064a3.554,3.554,0,0,1,1.627-.963,7.688,7.688,0,0,1,2.473-.392,4.676,4.676,0,0,1,4.233,2.272,11.958,11.958,0,0,1,1.423,6.367,21.363,21.363,0,0,1-.574,5.4A6.136,6.136,0,0,1,15.428,30.7a7.408,7.408,0,0,1-4.591,1.238,7.993,7.993,0,0,1-4.335-1" transform="translate(7.914 8.461)" fill="#fff"/><path d="M72.4,17.609H54.433a.23.23,0,0,0-.228.228v5.968a.231.231,0,0,0,.228.232h7.154l-7.944,7.944A23.524,23.524,0,1,0,36.1,73.819V80.7H29.01a.229.229,0,0,0-.232.228v6.4a.229.229,0,0,0,.232.228H36.1v6.771a.228.228,0,0,0,.228.228h6.4a.231.231,0,0,0,.232-.228V87.553h7.086a.228.228,0,0,0,.228-.228v-6.4a.228.228,0,0,0-.228-.228H42.953v-6.99A23.513,23.513,0,0,0,58.367,36.953l7.83-7.83V35.8a.231.231,0,0,0,.232.228H72.4a.231.231,0,0,0,.232-.228V17.837a.231.231,0,0,0-.232-.228m-33.266,50.2A17.322,17.322,0,1,1,56.455,50.489,17.34,17.34,0,0,1,39.134,67.811" transform="translate(32.567 36.761)" fill="#fff"/><path d="M41.008,25.956H20a.218.218,0,0,0-.228.2v5.088a.216.216,0,0,0,.228.207H41.008a.217.217,0,0,0,.232-.207V26.16a.219.219,0,0,0-.232-.2" transform="translate(41.274 54.186)" fill="#fff"/><path d="M41.008,28.9H20a.221.221,0,0,0-.228.213V34.2a.216.216,0,0,0,.228.2H41.008a.217.217,0,0,0,.232-.2V29.11a.222.222,0,0,0-.232-.213" transform="translate(41.274 60.326)" fill="#fff"/><path d="M14.8,10.228a13.35,13.35,0,0,0-2.461-1.84c.262-.408.5-.84.769-1.257A10.79,10.79,0,0,1,15.6,8.919Zm-1.606,4.554c-.086-.145-.738-1.43-.738-1.507s.093-.093.145-.1a12.4,12.4,0,0,0,1.985-.6,16.673,16.673,0,0,0,5.7-4.363c.04.655.1,1.321.191,1.992a14.986,14.986,0,0,1-7.281,4.585m3.085-7.345a10.415,10.415,0,0,0-2.3-1.507c.253-.417.485-.849.719-1.281A9.16,9.16,0,0,1,17.071,6.14c-.256.445-.509.877-.794,1.3m3.2-.667a13.172,13.172,0,0,0-.886-1.664l.79-.423A15.168,15.168,0,0,1,20.2,6.276Zm1.343-.531c-.287-.565-.574-1.158-.9-1.7l.76-.454a11.522,11.522,0,0,1,.834,1.655Z" transform="translate(25.757 8.52)" fill="#fff"/><path d="M15.961,11.5V10.34h2.822V6.65H16.477V5.44h5.959V6.65H20.058v3.69h2.9V11.5Z" transform="translate(33.32 11.356)" fill="#fff"/><path d="M21.806,12.84a9.151,9.151,0,0,1-1.859.667c-.062-.148-.729-1.544-.729-1.544,0-.049.049-.049.086-.049a1.933,1.933,0,0,0,.454-.062A10.848,10.848,0,0,0,23.128,10.4a18.639,18.639,0,0,0,3.94-3.276c.086.608.191,1.213.284,1.819a18.028,18.028,0,0,1-5.545,3.9m-.244-4.986a13.371,13.371,0,0,0-2.112-2.3c.414-.346.806-.716,1.2-1.071A11.932,11.932,0,0,1,22.7,6.742a8.753,8.753,0,0,1-1.133,1.112" transform="translate(40.122 9.363)" fill="#fff"/><path d="M29.593,7.58c-.043.148-.074.306-.12.454A10.781,10.781,0,0,1,29.118,9.2a15.154,15.154,0,0,1-.932,2.149c.475.371.951.766,1.4,1.186-.275.371-.571.729-.88,1.071-.4-.392-.809-.778-1.223-1.146a9.048,9.048,0,0,1-3.866,2.924c-.3-.343-.614-.679-.942-1a.107.107,0,0,1-.031-.059c0-.052.043-.052.065-.065a3.562,3.562,0,0,0,.611-.207,7.693,7.693,0,0,0,3.072-2.458c-.42-.346-.877-.642-1.315-.951.262-.346.494-.7.756-1.05.423.3.837.605,1.247.926a8.7,8.7,0,0,0,.908-2.495c-.716,0-1.426.012-2.143.04a12.809,12.809,0,0,1-2.229,2.973c-.349-.272-.707-.543-1.078-.794A10.223,10.223,0,0,0,25.44,4.925l1.423.605a.135.135,0,0,1,.086.136c0,.111-.117.148-.191.148-.136.321-.262.642-.4.951.991-.028,1.973-.028,2.967-.148.145.185.284.367.451.543-.059.133-.133.284-.185.42m-.426-1.21c-.259-.543-.556-1.074-.865-1.59l.794-.435a15.1,15.1,0,0,1,.79,1.581Zm1.439-.358a15.006,15.006,0,0,0-.868-1.655L30.5,3.9a10.343,10.343,0,0,1,.824,1.63Z" transform="translate(47.044 8.142)" fill="#fff"/><path d="M34.273,7.231c-.6-.037-1.121-.049-1.6-.049-.562-.012-5.527,0-6.867.049-.022-.494-.043-1.124-.056-1.494-.012-.182.074-.1.139-.09.176.022.519.034.611.04.642.019,2.294-.022,3.029-.022,1.535,0,3.047-.04,4.755-.062-.031.491,0,1.133-.009,1.627" transform="translate(53.749 11.699)" fill="#fff"/><path d="M34.7,10.783v4.048H33.417V10.783H29.4V9.573h4.014v-4.1H29.962V4.293h8.2V5.476H34.686v4.1H38.7v1.21ZM31.672,9.1c-.371-.877-.747-1.766-1.192-2.591l1.13-.618A15.168,15.168,0,0,1,32.6,8.56Zm5.894-2.26c-.367.781-.738,1.559-1.161,2.31l-.939-.445c.346-.923.664-1.874.939-2.841l1.269.584a.253.253,0,0,1,.148.21c0,.133-.17.182-.256.182" transform="translate(61.382 8.962)" fill="#fff"/><path d="M36.357,6.257l.114.855-.865.235-.34-1.112h-.3a8.384,8.384,0,0,1-1.127,1.479l-.92-.6a7,7,0,0,0,1.562-3.075l1.217.4a.186.186,0,0,1,.136.161c0,.111-.117.185-.2.2a2.492,2.492,0,0,1-.222.445h2.05V6.257Zm3.582,4.36-.015.741h2.084v1.1H39.939c0,1.887.188,2.949-1.732,3.282l-.722-1.05c.732-.136,1.26-.2,1.26-1.22V12.457H35.66c.318.3.611.6.908.926.222.232.457.442.667.7l-.794.889a24.076,24.076,0,0,0-1.785-1.726l.707-.79H33.4v-1.1h5.348V10.6H33.081V9.567h3.887V8.826h-2.8V7.776h2.767v-.84l1.281.176c.052.009.052-.052.052.009,0,.086-.043.247-.108.272v.383h3.075v1.05H38.142v.741h4.1v1.05Zm.778-4.307-.337,1.059-.917-.1.043-1h-.689a10.824,10.824,0,0,1-.658,1.124l-1.226-.457A8.814,8.814,0,0,0,38.383,4.1l1.247.371c.052.012.13.062.13.136,0,.111-.139.136-.213.136-.074.185-.157.358-.244.531h2.8V6.309Z" transform="translate(68.733 8.428)" fill="#fff"/><path d="M44.6,9.728a.282.282,0,0,1-.151-.059c-.726.256-2.127.84-2.794,1.158v1.9l-1.189-.012c.009-.173.009-.361.009-.571v-.692c-.8.4-1.21.9-1.21,1.473,0,.491.466.75,1.38.75a8.6,8.6,0,0,0,2.936-.488l-.04,1.442a7.913,7.913,0,0,1-2.529.355c-1.976,0-2.967-.655-2.967-1.973a2.481,2.481,0,0,1,.831-1.778A7.152,7.152,0,0,1,40.4,10.173c-.019-.553-.179-.84-.472-.84a1.43,1.43,0,0,0-1.037.469,10.149,10.149,0,0,0-.778.84c-.374.435-.6.729-.744.877-.182-.222-.466-.556-.837-1.01a8.97,8.97,0,0,0,2.541-3.347c-.537.074-1.13.12-1.778.161-.037-.469-.1-.9-.161-1.284a16.617,16.617,0,0,0,2.31-.124,10.007,10.007,0,0,0,.343-1.7l1.365.318a.148.148,0,0,1,.117.148c0,.074-.046.136-.161.185-.049.21-.139.531-.272.951a15.627,15.627,0,0,0,1.887-.457l-.111,1.359c-.556.12-1.3.244-2.229.383a7.277,7.277,0,0,1-.627,1.235,1.962,1.962,0,0,1,.577-.086c.614,0,1.019.429,1.2,1.318.806-.445,1.723-.9,2.72-1.368l.463,1.38q0,.148-.12.148" transform="translate(76.267 8.797)" fill="#fff"/><path d="M21.227,20.441a7.712,7.712,0,0,1-2.492-1.1,5.359,5.359,0,0,1-1.714-1.828,6.221,6.221,0,0,1-4.014,2.85l-.716-1.084A5.065,5.065,0,0,0,15.913,17.1H12.343V16h3.971c.009-.235.022-.469.022-.7h-3.01V14.235H16.37v-.769H13.98V12.41h2.39v-.794L17.6,11.7a.119.119,0,0,1,.127.124.2.2,0,0,1-.139.173v.411h2.464v1.056H17.571v.769h3.18V15.3h-3.2c-.012.232-.012.466-.012.7h4.153v1.1H18.08a5.757,5.757,0,0,0,3.853,2.137Zm-.951-7.478V11.419H13.758v1.544H12.6V10.335h3.751V9l1.309.083a.152.152,0,0,1,.17.148c0,.1-.108.185-.182.213v.889h3.847v2.628Z" transform="translate(25.659 18.791)" fill="#fff"/><path d="M19.653,16.583c-.982.482-1.985.889-2.976,1.346-.022.074-.074.185-.151.185-.04,0-.1-.037-.139-.124l-.46-1.235c.516-.173,1.034-.346,1.55-.531v-2.64H16.263V12.51h1.213v-2.14H16.167V9.312h3.5v1.059h-.982v2.14h.877v1.074h-.911v2.306c.34-.145.685-.306,1.025-.457Zm6.327,3.1a4.277,4.277,0,0,1-1.794.33c-.815,0-1.658-.157-1.658-1.343V16.126h-.951c.1.077.6.445.6.568,0,.074-.1.124-.148.136a10.574,10.574,0,0,1-.664,1.223,6.33,6.33,0,0,1-2.591,2.22l-.908-.861a5.046,5.046,0,0,0,3.051-3.285H19.98V9.188h5.2v6.938H23.7v2.137c0,.408.114.676.494.676a3.051,3.051,0,0,0,1.893-.8Zm-2.016-9.408H21.141v.963h2.822Zm-2.819,1.951v.939h2.819l.012-.939Zm2.831,1.927H21.144v1.013h2.831Z" transform="translate(33.247 19.181)" fill="#fff"/><path d="M25.334,18.658a4.89,4.89,0,0,1-2.8.837c-1.5,0-2.439-1-2.523-2.751-.022-.235-.012-.469-.012-.7,0-.667.012-1.334.034-2.013.031-1.59.049-3.2.071-4.786.327.046.667.111.994.182a2.483,2.483,0,0,1,.411.09c.086.034.191.086.191.195a.256.256,0,0,1-.157.21c-.127,2.149-.222,4.32-.222,6.469,0,1.1.423,1.769,1.4,1.769a2.937,2.937,0,0,0,1.343-.361,5.1,5.1,0,0,0,2.121-2.578l.772,1.606a6.067,6.067,0,0,1-1.627,1.837" transform="translate(41.745 19.292)" fill="#fff"/><path d="M30.341,19.259a12.214,12.214,0,0,0-2.4-1.754,2,2,0,0,1-2.282,2.063c-1.047,0-2.649-.614-2.649-2.1a2.048,2.048,0,0,1,2.313-2,5.279,5.279,0,0,1,1.318.161c0-1.726-.074-3.467-.21-5.184-.043-.423-.062-.84-.139-1.247l1.408.21c.062.012.179.074.179.173a.228.228,0,0,1-.117.17v.472c0,.543-.012,1.087.012,1.63H27.9a11.55,11.55,0,0,0,1.457-.074c.38-.049.75-.139,1.118-.2,0,.482-.019.96-.031,1.454-.59.052-1.192.086-1.785.086-.275,0-.55-.012-.834-.025.031.991.04,1.976.074,2.976a17.581,17.581,0,0,1,3.307,1.874Zm-3.687-2.334a3.257,3.257,0,0,0-1.4-.318c-.367,0-.939.272-.939.775,0,.769.738.963,1.257.963a.948.948,0,0,0,1.078-1.074Z" transform="translate(48.038 19.206)" fill="#fff"/><path d="M29.2,20.288c-.392-.358-.781-.729-1.192-1.05a5.1,5.1,0,0,0,3.041-2.149,3.943,3.943,0,0,0,.411-1.812c0-1.1-.358-1.729-1.337-1.729a8.736,8.736,0,0,0-2.992,1.321c-.074-.185-.584-1.457-.584-1.569,0-.086.1-.074.148-.074a6.894,6.894,0,0,0,1.312-.358,7.2,7.2,0,0,1,2.458-.63c1.692,0,2.433,1.334,2.433,3.171a5.279,5.279,0,0,1-3.7,4.878m1.849-8.9a15.233,15.233,0,0,0-2.992-1.108c.2-.448.392-.889.593-1.334a11.839,11.839,0,0,1,3.063,1.121c-.21.445-.42.889-.664,1.321" transform="translate(55.43 18.672)" fill="#fff"/></g></g></g><g transform="translate(798.496 6630.931)"><rect width="143.528" height="143.901" transform="translate(0 0)" fill="#002555"/><g transform="translate(0 0)"><g clip-path="url(#a)"><path d="M6.722,9.45a22.663,22.663,0,0,1-2.162.846q-1.422.472-1.791.639V7.051A22.336,22.336,0,0,0,5.555,5.7,9.291,9.291,0,0,0,7.871,4.043H11.96V31.411H6.722Z" transform="translate(5.783 8.441)" fill="#fff"/><path d="M14.186,8.029H6.753V4.043H19.287V7.455L13.51,31.411H8.442Z" transform="translate(14.1 8.441)" fill="#fff"/><path d="M83.514,49.372A18.8,18.8,0,0,0,65.426,30.607a18.778,18.778,0,0,0-35.415,0A18.766,18.766,0,0,0,19.172,64.175a18.766,18.766,0,0,0,28.637,20.7A18.771,18.771,0,0,0,76.3,64.153a18.753,18.753,0,0,0,7.216-14.782m-20.8-12.512A15.008,15.008,0,0,1,49.931,51.675,14.87,14.87,0,0,1,62.52,34.553a14.932,14.932,0,0,1,.2,2.307M47.788,80.006a14.958,14.958,0,0,1-.139-21.365,14.951,14.951,0,0,1,.139,21.365M32.916,34.553A14.849,14.849,0,0,1,45.506,51.675,14.849,14.849,0,0,1,32.916,34.553M44.1,56.078a14.939,14.939,0,0,1-20.284,6.6,14.947,14.947,0,0,1,20.284-6.6m7.192-.1a14.941,14.941,0,0,1,20.383,6.676A14.949,14.949,0,0,1,51.289,55.98M47.717,21.862a15.014,15.014,0,0,1,13.75,9.017,18.848,18.848,0,0,0-13.75,10.554A18.837,18.837,0,0,0,33.969,30.878a15.013,15.013,0,0,1,13.747-9.017M15.7,49.372A15.018,15.018,0,0,1,29.1,34.46a18.7,18.7,0,0,0,5.978,16.273,18.818,18.818,0,0,0-14.4,9.758A14.946,14.946,0,0,1,15.7,49.372m6.506,20.016a14.934,14.934,0,0,1,.327-3.106,18.756,18.756,0,0,0,17.233-.472,18.7,18.7,0,0,0,4.984,16.517A14.967,14.967,0,0,1,22.211,69.387m51.018-.124a14.977,14.977,0,0,1-22.4,13.028A18.711,18.711,0,0,0,55.64,65.8a18.746,18.746,0,0,0,17.283.469,14.785,14.785,0,0,1,.306,3M60.479,50.622A18.734,18.734,0,0,0,66.5,36.859a19.209,19.209,0,0,0-.157-2.4,14.971,14.971,0,0,1,8.464,25.991,18.824,18.824,0,0,0-14.328-9.829" transform="translate(24.898 37.747)" fill="#fff"/><path d="M18.011,7.353a14.966,14.966,0,0,1-.34,1.556,12.841,12.841,0,0,1-2.254,4.916,13.026,13.026,0,0,0-1.146-.914c1.686-1.958,2.155-4.135,2.492-6.938l1.368,1.022a.189.189,0,0,1,.062.148.234.234,0,0,1-.182.21m3.869,5.994A22.305,22.305,0,0,0,19.429,6.89l1.084-.908a23.581,23.581,0,0,1,2.581,6.29Zm.213-6.871A1.241,1.241,0,0,1,21.044,5.1a1.24,1.24,0,0,1,1.05-1.368A1.25,1.25,0,0,1,23.147,5.1a1.249,1.249,0,0,1-1.053,1.371m0-2.1c-.306,0-.55.33-.55.729s.244.732.55.732.562-.346.562-.732a.666.666,0,0,0-.562-.729" transform="translate(29.798 7.802)" fill="#fff"/><path d="M24.3,6.888c-.571-.037-1.025-.037-1.491-.037-.531-.015-3.965,0-5.243.049-.019-.506-.049-1.152-.059-1.528-.012-.188.071-.2.13-.188a4.694,4.694,0,0,0,.584.086c.614.037,1.541.028,2.245.028,1.457,0,2.254-.04,3.885-.065-.031.506-.04,1.149-.049,1.655" transform="translate(36.558 10.815)" fill="#fff"/><path d="M24.8,10.662a15.1,15.1,0,0,0-2.949-2.01c0,.207-.009.408-.009.6v2.835c0,.744.022,1.5.031,2.245H20.461c.068-1.618.08-3.236.08-4.851,0-1.884-.012-3.767-.049-5.638L21.94,4a.15.15,0,0,1,.139.151.272.272,0,0,1-.161.229c-.031,1.152-.049,2.3-.071,3.449a4.686,4.686,0,0,0,.352-.618,13.694,13.694,0,0,1,3.39,2.124c-.272.442-.534.886-.794,1.325" transform="translate(42.72 8.013)" fill="#fff"/><path d="M30.538,8.353c-.494,0-.985-.009-1.476-.009h-1.6c-.028,2.751-.732,4.913-2.856,6.037a8.824,8.824,0,0,0-1.136-.945c1.961-.96,2.628-2.541,2.677-5.107-1.158.049-2.316.1-3.462.164,0-.519-.009-1.034-.04-1.553.642.025,1.288.037,1.921.037h1.229a3.715,3.715,0,0,0,.374-.012c.006-.179.006-.355.006-.543,0-.858-.028-1.717-.071-2.578l1.4.176c.062.015.151.052.151.151a.288.288,0,0,1-.12.2L27.5,6.951c1.028-.037,2.053-.077,3.091-.151,0,.516-.043,1.034-.052,1.553" transform="translate(47.274 8.022)" fill="#fff"/><path d="M32.161,6.888c-.574-.037-1.028-.037-1.488-.037-.534-.015-3.582,0-4.86.049-.019-.506-.049-1.152-.059-1.528-.009-.188.071-.2.13-.188a4.694,4.694,0,0,0,.584.086c.614.037,2.183.028,2.887.028,1.457,0,1.229-.04,2.859-.065-.034.506-.04,1.149-.052,1.655" transform="translate(53.769 10.815)" fill="#fff"/><path d="M30.81,9.414A12.214,12.214,0,0,0,28.528,7.58c.25-.42.472-.849.707-1.266a9.531,9.531,0,0,1,2.3,1.8Zm-1.5,4.545c-.068-.148-.67-1.356-.67-1.417,0-.086.1-.1.139-.111a11.06,11.06,0,0,0,1.828-.565,15.445,15.445,0,0,0,5.259-4.1c.037.63.1,1.257.164,1.871a13.726,13.726,0,0,1-6.719,4.323m2.853-7.34a10.688,10.688,0,0,0-2.112-1.5c.222-.4.438-.834.642-1.266a7.7,7.7,0,0,1,2.2,1.488c-.225.445-.479.862-.732,1.281" transform="translate(59.563 8.038)" fill="#fff"/><path d="M32.541,8.463a15.4,15.4,0,0,0-.8-2.708l1.09-.442A14.016,14.016,0,0,1,33.6,8.006c-.352.173-.713.309-1.062.457m5.314-2.807a12.218,12.218,0,0,1-1.72,4.888,6.11,6.11,0,0,1-2.717,2.106c-.275-.343-.565-.667-.846-1.01,2.81-.852,3.814-3.313,4.116-6.772l1.235.479a.115.115,0,0,1,.068.111.228.228,0,0,1-.136.2M34.381,7.8a15.717,15.717,0,0,0-.769-2.609c.361-.127.716-.247,1.081-.383a13.384,13.384,0,0,1,.738,2.609c-.349.111-.7.244-1.05.383" transform="translate(66.271 10.036)" fill="#fff"/><path d="M40.957,7.094c-.7,2.51-1.513,4.53-3.261,6.142A6.823,6.823,0,0,1,35.824,14.5a15.675,15.675,0,0,0-1.17-1.143c2.424-.778,4.119-3.048,4.808-6.062-1.7.025-3.4.148-5.107.232-.028-.5-.049-1.007-.059-1.513.454.012.914.04,1.371.04.9,0,1.791-.028,2.686-.04.46-.009.926,0,1.383-.034a.742.742,0,0,0,.506-.185,8.739,8.739,0,0,1,.9,1.068c0,.1-.136.176-.182.225m.581-.976a1.151,1.151,0,0,1-1-1.254,1.149,1.149,0,0,1,1-1.269,1.161,1.161,0,0,1,1,1.269,1.158,1.158,0,0,1-1,1.254m0-1.933A.618.618,0,0,0,41,4.864a.6.6,0,0,0,.534.652.615.615,0,0,0,.537-.652.626.626,0,0,0-.537-.679" transform="translate(71.606 7.506)" fill="#fff"/><path d="M44.285,5.519c-.043,0-.077-.025-.12-.028a3.27,3.27,0,0,0-1.269.247,4.2,4.2,0,0,0-2.158,3.693c-.09,2.421,1.6,2.761,3.035,2.813-.08.457-.176.917-.281,1.374l-.2-.009a4.859,4.859,0,0,1-1.952-.491,3.449,3.449,0,0,1-1.7-3.372,7.306,7.306,0,0,1,1.09-3.65c-1.075.185-2.128.4-3.187.67-.034-.469-.1-.929-.13-1.4.963-.117,1.918-.244,2.875-.4a20.136,20.136,0,0,0,3.86-.951c.043.2.266,1.263.262,1.39-.006.1-.059.114-.12.114M43.463,8.57c-.17-.581-.361-1.158-.565-1.7l.689-.364a12.84,12.84,0,0,1,.528,1.683Zm1.118-.429a12.494,12.494,0,0,0-.574-1.8l.682-.383c.207.581.4,1.161.568,1.751Z" transform="translate(78.103 8.383)" fill="#fff"/><path d="M14.612,8.969h6.744V19.48H14.612Zm5.561,1.248H15.745v1.84h4.428Zm0,3.063H15.745V15.1h4.428Zm0,2.974H15.745v2.032h4.428Z" transform="translate(30.508 18.726)" fill="#fff"/><path d="M20.342,15.522a6.244,6.244,0,0,1-.4-.618V19.99H18.872V15.262a4.675,4.675,0,0,1-.781,1.38l-.729-.874A8.289,8.289,0,0,0,18.8,12.295H17.767V11.186H18.86v-2.4l1.078.086a.164.164,0,0,1,.167.164.242.242,0,0,1-.167.195v1.955h.6v1.109h-.614V12.9a7.9,7.9,0,0,0,.994,1.637c-.195.333-.38.667-.577.985m2,2.378a7.565,7.565,0,0,1-1.43,1.772l-.747-.763a4.3,4.3,0,0,0,1.377-1.9l.97.664a.128.128,0,0,1,.037.1c0,.133-.127.148-.207.124m2.279-7.6v.76h1.547v2.971H20.793V11.063H22.2V10.3H20.478V9.29h6V10.3ZM24.1,16.849c0,.568.009,1.149.009,1.711,0,1.173-.679,1.42-1.47,1.541l-.608-.936c.411-.086.942-.086.942-.775V16.849h-2.43v-.957h5.969v.957Zm-2.832-2.313h4.474v.923H21.265ZM22.241,12h-.513v1.173h.513Zm1.43-1.7h-.54v.763h.54Zm0,1.7h-.54v1.173h.54Zm2.4,7.71a8.869,8.869,0,0,1-1.609-2l.908-.624A6.275,6.275,0,0,0,26.826,18.9ZM25.159,12h-.571v1.173h.571Z" transform="translate(36.25 18.346)" fill="#fff"/><path d="M28.807,14.4a.27.27,0,0,1-.145-.062c-.713.259-2.081.837-2.73,1.155v1.9l-1.167-.009c.012-.173.012-.358.012-.568v-.689c-.787.392-1.183.9-1.183,1.464,0,.494.454.753,1.349.753a8.242,8.242,0,0,0,2.869-.494l-.04,1.439a7.588,7.588,0,0,1-2.473.358c-1.933,0-2.9-.652-2.9-1.97a2.5,2.5,0,0,1,.806-1.772,7.048,7.048,0,0,1,1.5-1.059c-.019-.556-.176-.84-.46-.84a1.409,1.409,0,0,0-1.019.469,11.03,11.03,0,0,0-.76.837c-.364.432-.587.729-.729.874-.176-.222-.451-.553-.818-1.007a8.859,8.859,0,0,0,2.486-3.338c-.522.077-1.105.127-1.735.161-.04-.469-.1-.9-.157-1.281a15.493,15.493,0,0,0,2.257-.124A10.343,10.343,0,0,0,24.1,8.9l1.331.321a.147.147,0,0,1,.12.148c0,.074-.046.136-.157.182-.049.21-.139.531-.266.948a14.886,14.886,0,0,0,1.843-.454L26.865,11.4c-.54.124-1.272.247-2.177.383a7.85,7.85,0,0,1-.611,1.232,1.862,1.862,0,0,1,.562-.086c.6,0,.994.432,1.173,1.315.787-.442,1.686-.9,2.662-1.365l.451,1.377c0,.1-.037.151-.117.151" transform="translate(43.681 18.58)" fill="#fff"/><path d="M32.5,19.881c-.513.009-1.022.037-1.535.037a8.506,8.506,0,0,1-5.24-1.386,7.392,7.392,0,0,1-.735,1.495l-.837-.627c.926-1.155,1.09-3.3,1.1-4.863H24.042V13.465h2.322a18.152,18.152,0,0,1-.386,3.854c1.417,1.4,3.462,1.467,5.181,1.467.553,0,1.112-.046,1.661-.071Zm-6.676-8.374a14.629,14.629,0,0,0-1.535-1.266l.772-1.118A10.9,10.9,0,0,1,26.451,10.6Zm5.663.914c-.127.3-.241.614-.355.926h1.559V14.3H30.119v.568h2.047v.923H30.119v.519h2.615v.976h-2.6v1.155h-1.05V17.281H26.664v-.976h2.418v-.519h-1.9v-.923h1.9V14.3H26.645v-.948h1.4c-.086-.312-.164-.63-.272-.926H26.633V11.47H29.06v-.7H26.942V9.75h2.112V8.762l1.078.083c.086.009.185,0,.185.145,0,.1-.1.145-.157.179V9.75h2.276v1.022H30.15v.7h2.6v.951ZM28.85,12.4c.037.321.1.639.133.96H30.2c.059-.321.124-.639.173-.96Z" transform="translate(50.197 18.294)" fill="#fff"/><path d="M35.868,20.246a8.041,8.041,0,0,1-2.155-2.331,6.348,6.348,0,0,1-2.371,2.254l-.8-.834a6.16,6.16,0,0,0,2.572-2.572A14.829,14.829,0,0,1,31.968,12.1H29.6v.062c0,.469.009.926.009,1.4h2.3c-.022.951-.022,1.911-.127,2.85-.185,1.547-.633,2.041-1.825,2.168l-.534-1c1.18-.151,1.334-.658,1.356-2.1l.009-.862h-1.21c0,1.788-.25,4.246-1.244,5.577l-.917-.723c1-1.269,1.071-3.369,1.071-5.08,0-1.143-.062-2.294-.08-3.437h3.48c-.056-.75-.077-1.507-.1-2.254l1.281.176c.065.012.2.049.2.179a.355.355,0,0,1-.185.266c-.009.3-.009.6-.009.9,0,.241,0,.494.009.735H36.21v1.18H33.138a14.986,14.986,0,0,0,.593,3.319,12.554,12.554,0,0,0,.686-2.727l1.217.84a.3.3,0,0,1,.117.225c0,.142-.195.191-.275.2A15.493,15.493,0,0,1,34.416,16.8a7.008,7.008,0,0,0,2.27,2.2ZM35.574,9.627c-.232.42-.46.849-.7,1.257l-.9-.343A16.188,16.188,0,0,0,34.521,8.7l1.13.5a.259.259,0,0,1,.157.219c0,.127-.157.188-.235.2" transform="translate(57.241 18.146)" fill="#fff"/><path d="M36.071,18.4a4.344,4.344,0,0,1-2.612.837c-1.4,0-2.279-.994-2.356-2.742-.022-.235-.009-.469-.009-.7,0-.664.009-1.331.028-2.007.031-1.59.049-3.187.071-4.777.306.049.621.111.926.182a2.265,2.265,0,0,1,.386.09c.077.037.176.086.176.2a.263.263,0,0,1-.148.21c-.12,2.14-.207,4.3-.207,6.447,0,1.1.392,1.763,1.312,1.763a2.589,2.589,0,0,0,1.251-.358,5,5,0,0,0,1.979-2.572l.723,1.6A5.845,5.845,0,0,1,36.071,18.4" transform="translate(64.912 18.797)" fill="#fff"/><path d="M40.589,18.956a11.35,11.35,0,0,0-2.236-1.748,1.915,1.915,0,0,1-2.131,2.057,2.32,2.32,0,0,1-2.473-2.094,1.956,1.956,0,0,1,2.158-1.995,4.639,4.639,0,0,1,1.232.161c0-1.723-.068-3.462-.2-5.172-.04-.42-.062-.837-.13-1.241l1.312.207c.059.012.167.074.167.173a.237.237,0,0,1-.108.173v.466c0,.54-.009,1.084.009,1.624h.117a10.061,10.061,0,0,0,1.362-.071c.358-.049.7-.136,1.044-.195,0,.476-.019.957-.028,1.451-.553.046-1.115.083-1.664.083-.259,0-.513-.009-.781-.022.031.982.04,1.97.068,2.967A15.949,15.949,0,0,1,41.4,17.649Zm-3.44-2.328a2.874,2.874,0,0,0-1.3-.318.869.869,0,0,0-.88.775c0,.763.689.96,1.173.96.593,0,1.007-.269,1.007-1.071Z" transform="translate(70.464 18.63)" fill="#fff"/><path d="M39.293,19.981c-.364-.355-.729-.726-1.115-1.047a4.77,4.77,0,0,0,2.838-2.143,4.1,4.1,0,0,0,.386-1.806c0-1.1-.337-1.723-1.254-1.723a7.92,7.92,0,0,0-2.788,1.315c-.071-.182-.54-1.454-.54-1.562,0-.086.1-.077.136-.077a6.036,6.036,0,0,0,1.223-.355,6.378,6.378,0,0,1,2.3-.627c1.575,0,2.266,1.331,2.266,3.162a5.218,5.218,0,0,1-3.449,4.863M41.016,11.1a13.812,13.812,0,0,0-2.788-1.109c.188-.442.364-.886.55-1.328A10.628,10.628,0,0,1,41.64,9.788c-.2.445-.4.886-.624,1.315" transform="translate(76.876 18.096)" fill="#fff"/></g></g></g></g></svg>