<svg xmlns="http://www.w3.org/2000/svg" xmlns:xlink="http://www.w3.org/1999/xlink" width="740" height="91.878" viewBox="0 0 740 91.878"><defs><clipPath id="a"><rect width="740" height="91.878" fill="none"/></clipPath></defs><g transform="translate(0 0)"><g transform="translate(0 0)" clip-path="url(#a)"><path d="M199.616,78.044q-4.82,5.854-13.68,9.125a57.57,57.57,0,0,1-19.662,3.346A39.012,39.012,0,0,1,146.345,85.7a33.018,33.018,0,0,1-13.3-14.282q-4.718-9.389-4.923-22.113l-.04-5.94Q128,30.28,132.34,20.679A32.627,32.627,0,0,1,144.963,5.95,36.612,36.612,0,0,1,164.4.748q15.54-.106,24.353,7.246t10.529,21.5l-17.523.119q-1.255-7.494-5.386-10.945t-11.335-3.405q-9.185.064-13.937,7T146.385,42.82l.037,5.581q.093,13.742,5.363,20.728t15.35,6.918q10.139-.072,14.435-4.42l-.1-15.065-16.382.113-.09-13.262,34.385-.235Z" transform="translate(233.863 1.362)" fill="#0089d2"/><path d="M242.569,70.069,211,70.284l-5.878,18.043-19.143.133L217.913.86,234.594.747,267.9,87.9l-19.143.13Zm-26.8-14.4,21.844-.15-11.2-32.63Z" transform="translate(339.583 1.363)" fill="#0089d2"/><path d="M235.191,73.525l38.226-.26.1,14.463-56.229.381L216.69.733l18-.122Z" transform="translate(395.651 1.115)" fill="#0089d2"/><path d="M287.134,65.558a9.242,9.242,0,0,0-3.654-7.808q-3.62-2.7-13-5.672a91.96,91.96,0,0,1-14.864-5.869q-14.938-7.939-15.031-21.564a21.115,21.115,0,0,1,3.905-12.657,26.045,26.045,0,0,1,11.4-8.752A43.168,43.168,0,0,1,272.646,0a39.265,39.265,0,0,1,16.7,3.278,26.565,26.565,0,0,1,11.439,9.495,25.068,25.068,0,0,1,4.146,14.014l-18,.124q-.038-6-3.843-9.306t-10.645-3.258q-6.6.042-10.244,2.86a8.794,8.794,0,0,0-3.609,7.376q.03,4.264,4.338,7.113T275.6,37.011q15.4,4.514,22.463,11.309A22.823,22.823,0,0,1,305.2,65.315q.076,11.343-8.461,17.851t-23.059,6.61a44.638,44.638,0,0,1-18.388-3.566,29.052,29.052,0,0,1-12.7-10.026,25.9,25.9,0,0,1-4.454-14.853l18.066-.122q.1,14.463,17.379,14.344,6.422-.047,10.006-2.679a8.493,8.493,0,0,0,3.549-7.316" transform="translate(434.803 -0.002)" fill="#0089d2"/><path d="M196.825,10.041,179.5,18.677a24.849,24.849,0,0,1,1.735,6.124l19.272-1.82a43.945,43.945,0,0,0-3.682-12.94" transform="translate(327.744 18.333)" fill="#b7001e"/><path d="M180.579,18.329a24.613,24.613,0,0,1-.574,5.318L198.622,29a44.134,44.134,0,0,0,1.3-10.668c0-.913-.031-1.82-.088-2.724l-19.275,1.823c.011.3.017.6.017.9" transform="translate(328.668 28.492)" fill="#e01f10"/><path d="M181.492,19.405a24.99,24.99,0,0,1-2.707,5.573l15.458,11.66A44.149,44.149,0,0,0,200.1,24.752Z" transform="translate(326.441 35.43)" fill="#0098d1"/><path d="M174.93,24.634a25.25,25.25,0,0,1,3.976-5.115L165.87,5.226A44.566,44.566,0,0,0,157.593,16Z" transform="translate(287.746 9.541)" fill="#3a9927"/><path d="M175.036,20.2a24.833,24.833,0,0,1,5.465,3.425L193.574,9.352A44.619,44.619,0,0,0,181.99,2.123Z" transform="translate(319.595 3.875)" fill="#d39400"/><path d="M181.542,24.738,198.865,16.1a44.526,44.526,0,0,0-8.093-10.75L177.7,19.623a25.042,25.042,0,0,1,3.843,5.115" transform="translate(324.458 9.771)" fill="#25862a"/><path d="M175.012,18.439c0-.39.011-.78.028-1.167l-19.275-1.727c-.065.955-.1,1.922-.1,2.894a44.4,44.4,0,0,0,1.314,10.721l18.617-5.341a24.991,24.991,0,0,1-.582-5.38" transform="translate(284.223 28.382)" fill="#3d6726"/><path d="M181.239,22.176a25.373,25.373,0,0,1-4.7,4.423l10.179,16.481a44.731,44.731,0,0,0,9.97-9.258Z" transform="translate(322.336 40.49)" fill="#ffad00"/><path d="M174.585,22.306l-15.41,11.71a44.732,44.732,0,0,0,10.063,9.116l10.179-16.464a25.067,25.067,0,0,1-4.832-4.363" transform="translate(290.635 40.727)" fill="#f68e00"/><path d="M175.087,24.759a24.735,24.735,0,0,1,1.845-6.211L159.613,9.92a44.027,44.027,0,0,0-3.821,13.109Z" transform="translate(284.458 18.112)" fill="#0064ae"/><path d="M189.7,40.734,179.537,24.276a24.936,24.936,0,0,1-5.932,2.41l3.589,19.038a44.027,44.027,0,0,0,12.507-4.99" transform="translate(316.982 44.324)" fill="#830025"/><path d="M179.163,25.326a25.276,25.276,0,0,1-3.606.263,25.4,25.4,0,0,1-2.913-.172L169.06,44.454a44.394,44.394,0,0,0,6.5.478,44.337,44.337,0,0,0,7.189-.585Z" transform="translate(308.684 46.241)" fill="#e85200"/><path d="M171.925,20.248a24.757,24.757,0,0,1,6.189,1.2l6.952-18.072A44.01,44.01,0,0,0,171.925.885Z" transform="translate(313.915 1.615)" fill="#db0015"/><path d="M179.9,26.69a24.75,24.75,0,0,1-6.138-2.323L163.578,40.839a44.142,44.142,0,0,0,12.742,4.869Z" transform="translate(298.674 44.49)" fill="#cd0068"/><path d="M173.222,21.364a24.83,24.83,0,0,1,6.319-1.125V.879a44.141,44.141,0,0,0-13.318,2.427Z" transform="translate(303.502 1.604)" fill="#002555"/><path d="M177.956,25.341a24.839,24.839,0,0,1-2.95-5.915L156.4,24.767a44.228,44.228,0,0,0,6.146,12.284Z" transform="translate(285.568 35.468)" fill="#cd7d00"/><path d="M174.3,23.385a25.07,25.07,0,0,1,5.363-3.244l-7-18.049A44.292,44.292,0,0,0,161.26,9.08Z" transform="translate(294.442 3.819)" fill="#003d76"/><path d="M20.392,28.934A3.692,3.692,0,0,0,19,25.862a17.335,17.335,0,0,0-4.9-2.275A47.433,47.433,0,0,1,8.365,21.31q-7.24-3.556-7.24-9.775A8.758,8.758,0,0,1,2.93,6.073a11.661,11.661,0,0,1,5.1-3.685,19.841,19.841,0,0,1,7.421-1.317,17.368,17.368,0,0,1,7.2,1.433,11.381,11.381,0,0,1,4.951,4.081,10.651,10.651,0,0,1,1.766,6.05H20.417a4.493,4.493,0,0,0-1.4-3.53A5.426,5.426,0,0,0,15.248,7.85a6.151,6.151,0,0,0-3.8,1.063,3.254,3.254,0,0,0-1.393,2.7,3.278,3.278,0,0,0,1.534,2.6,19.255,19.255,0,0,0,5.4,2.4,33.093,33.093,0,0,1,6.344,2.676q6.04,3.48,6.039,9.594a9.1,9.1,0,0,1-3.685,7.675Q22,39.348,15.582,39.348a20.013,20.013,0,0,1-8.2-1.625,12.367,12.367,0,0,1-5.527-4.451A11.592,11.592,0,0,1,0,26.758H9.006a5.7,5.7,0,0,0,1.549,4.414q1.547,1.42,5.027,1.421a5.789,5.789,0,0,0,3.518-.961,3.161,3.161,0,0,0,1.291-2.7" transform="translate(0 1.954)" fill="#0089d2"/><path d="M41.512,1.252V25.637a13.989,13.989,0,0,1-1.766,7.175,11.415,11.415,0,0,1-5.067,4.62,17.847,17.847,0,0,1-7.8,1.585q-6.808,0-10.721-3.53t-3.99-9.673V1.252H21.2V26q.153,6.112,5.68,6.112A5.5,5.5,0,0,0,31.1,30.573q1.433-1.534,1.433-4.988V1.252Z" transform="translate(22.212 2.285)" fill="#0089d2"/><path d="M44.694,28.934A3.692,3.692,0,0,0,43.3,25.862a17.335,17.335,0,0,0-4.9-2.275,47.433,47.433,0,0,1-5.734-2.278q-7.24-3.556-7.24-9.775a8.758,8.758,0,0,1,1.806-5.462,11.661,11.661,0,0,1,5.1-3.685,19.841,19.841,0,0,1,7.421-1.317,17.368,17.368,0,0,1,7.2,1.433,11.381,11.381,0,0,1,4.951,4.081,10.651,10.651,0,0,1,1.766,6.05H44.719a4.493,4.493,0,0,0-1.4-3.53A5.426,5.426,0,0,0,39.55,7.85a6.151,6.151,0,0,0-3.8,1.063,3.254,3.254,0,0,0-1.393,2.7,3.278,3.278,0,0,0,1.534,2.6,19.256,19.256,0,0,0,5.4,2.4,33.092,33.092,0,0,1,6.344,2.676q6.04,3.48,6.039,9.594a9.1,9.1,0,0,1-3.685,7.675q-3.684,2.789-10.105,2.789a20.013,20.013,0,0,1-8.2-1.625,12.367,12.367,0,0,1-5.527-4.451A11.592,11.592,0,0,1,24.3,26.758h9.006a5.7,5.7,0,0,0,1.549,4.414q1.547,1.42,5.027,1.421a5.789,5.789,0,0,0,3.518-.961,3.161,3.161,0,0,0,1.291-2.7" transform="translate(44.373 1.954)" fill="#0089d2"/><path d="M66.98,8.186H55.8V38.505H46.817V8.186H35.841V1.252H66.98Z" transform="translate(65.442 2.284)" fill="#0089d2"/><path d="M70.325,31.548H58.016l-2.148,6.957H46.277L59.937,1.252h8.441L82.149,38.506H72.5ZM60.169,24.614h8.009l-4.021-12.92Z" transform="translate(84.496 2.285)" fill="#0089d2"/><rect width="8.955" height="37.254" transform="translate(170.491 3.538)" fill="#0089d2"/><path d="M97.009,38.506h-8.93l-13.2-23.181V38.506H65.9V1.252h8.981L88.054,24.433V1.252h8.955Z" transform="translate(120.319 2.285)" fill="#0089d2"/><path d="M102.295,31.548H89.985l-2.148,6.957h-9.6L91.907,1.252h8.441l13.768,37.254h-9.648ZM92.136,24.614h8.009l-4.018-12.92Z" transform="translate(142.859 2.285)" fill="#0089d2"/><path d="M92.081,38.506V1.252h13.381q7.189,0,10.939,2.634a8.772,8.772,0,0,1,3.75,7.65,8.884,8.884,0,0,1-1.331,4.94,7.746,7.746,0,0,1-3.917,3.018,7.857,7.857,0,0,1,4.479,2.865,8.338,8.338,0,0,1,1.56,5.118q0,5.477-3.467,8.226t-10.272,2.8Zm8.981-21.723h4.682a6.658,6.658,0,0,0,4.2-1.079A3.829,3.829,0,0,0,111.2,12.6a4.021,4.021,0,0,0-1.356-3.4,7.271,7.271,0,0,0-4.377-1.04h-4.4Zm0,5.883V31.6h5.886a5.581,5.581,0,0,0,3.733-1.113,3.9,3.9,0,0,0,1.306-3.134q0-4.658-4.632-4.682Z" transform="translate(168.129 2.285)" fill="#0089d2"/><path d="M113.208,31.6h15.633v6.909H104.227V1.252h8.981Z" transform="translate(190.307 2.286)" fill="#0089d2"/><path d="M137.568,22.694H123.444v8.9h16.681v6.909H114.463V1.251h25.713V8.186H123.444v7.856h14.124Z" transform="translate(208.996 2.284)" fill="#0089d2"/><path d="M.4,55.85v-36.5H12.162a17.311,17.311,0,0,1,8.7,2.193,15.439,15.439,0,0,1,6.03,6.192A18.728,18.728,0,0,1,29.083,36.7v1.679a18.806,18.806,0,0,1-2.119,8.989A15.485,15.485,0,0,1,21,53.581,16.932,16.932,0,0,1,12.41,55.85ZM9.2,26.141V49.079H12.26a6.849,6.849,0,0,0,5.816-2.693q2.035-2.7,2.032-8.011V36.8q0-5.286-2.032-7.972a6.958,6.958,0,0,0-5.915-2.682Z" transform="translate(0.736 35.326)" fill="#0089d2"/><path d="M33.511,40.356H20.591V49.08H36.018v6.768H11.791v-36.5H36.069v6.793H20.591v7.695h12.92Z" transform="translate(21.53 35.327)" fill="#0089d2"/><path d="M38.175,45.922l7.271-26.575h9.826L42.988,55.85H33.363l-12.185-36.5H30.93Z" transform="translate(38.668 35.326)" fill="#0089d2"/><path d="M55.779,40.356h-12.8V49.08h15.3v6.768h-24.1v-36.5H58.336v6.793H42.983v7.695h12.8Z" transform="translate(62.415 35.327)" fill="#0089d2"/><path d="M52.582,49.08H66.508v6.768H43.783v-36.5h8.8Z" transform="translate(79.942 35.327)" fill="#0089d2"/><path d="M84.045,38.674a21.538,21.538,0,0,1-1.981,9.453,14.631,14.631,0,0,1-5.626,6.33,15.687,15.687,0,0,1-8.311,2.218,15.917,15.917,0,0,1-8.274-2.142A14.6,14.6,0,0,1,54.226,48.4a20.834,20.834,0,0,1-2.119-9.15V37.2a21.628,21.628,0,0,1,1.967-9.464,14.615,14.615,0,0,1,5.64-6.33,16.69,16.69,0,0,1,16.633-.025A14.849,14.849,0,0,1,82,27.656,21.011,21.011,0,0,1,84.045,37ZM75.1,37.145q0-5.438-1.817-8.26a5.835,5.835,0,0,0-5.2-2.82q-6.617,0-6.994,9.927l-.025,2.682q0,5.366,1.78,8.249a5.819,5.819,0,0,0,5.29,2.882,5.748,5.748,0,0,0,5.137-2.832q1.806-2.836,1.831-8.147Z" transform="translate(95.141 35.001)" fill="#0089d2"/><path d="M73.446,43.464V55.85h-8.8v-36.5H79.211a17,17,0,0,1,7.409,1.54,11.63,11.63,0,0,1,4.988,4.389,11.98,11.98,0,0,1,1.769,6.454,10.562,10.562,0,0,1-3.823,8.537q-3.823,3.2-10.493,3.2Zm0-6.793h5.765a5.437,5.437,0,0,0,3.9-1.28,4.75,4.75,0,0,0,1.342-3.609A5.866,5.866,0,0,0,83.071,27.7a4.875,4.875,0,0,0-3.758-1.554H73.446Z" transform="translate(118.036 35.326)" fill="#0089d2"/><path d="M87.513,19.348l8.147,25.4,8.122-25.4h11.583v36.5h-8.825V47.327l.853-17.45L98.567,55.85H92.752l-8.851-26,.853,17.475V55.85h-8.8v-36.5Z" transform="translate(138.685 35.326)" fill="#0089d2"/><path d="M113.045,40.356H100.088V49.08h15.463v6.768H91.288v-36.5H115.6v6.793H100.088v7.695h12.957Z" transform="translate(166.682 35.327)" fill="#0089d2"/><path d="M131.407,55.85h-8.749L109.722,33.138V55.85h-8.8v-36.5h8.8l12.911,22.714V19.348h8.774Z" transform="translate(184.271 35.326)" fill="#0089d2"/><path d="M143.276,26.142H132.32V55.85h-8.8V26.142H112.765V19.348h30.511Z" transform="translate(205.896 35.327)" fill="#0089d2"/></g></g></svg>