<?xml version="1.0" encoding="utf-8"?>
<!-- Generator: Adobe Illustrator 28.1.0, SVG Export Plug-In . SVG Version: 6.00 Build 0)  -->
<svg version="1.1" id="レイヤー_1" xmlns="http://www.w3.org/2000/svg" xmlns:xlink="http://www.w3.org/1999/xlink" x="0px"
	 y="0px" viewBox="0 0 2000 394.2" style="enable-background:new 0 0 2000 394.2;" xml:space="preserve">
<style type="text/css">
	.st0{fill:#FFFFFF;}
</style>
<g>
	<path class="st0" d="M143.62,83.17c9.63-7.92,24.9-9.61,35.64-9.61c16.97,0,39.58,5.65,63.34,27.14l43.55-63.33
		c-30.8-25-69.48-38.23-109.13-37.33c-32.25,0-71.26,5.66-101.8,35.64C52.84,58.4,40.6,89.19,41.27,121.06
		c-0.76,23.81,8.24,46.89,24.92,63.89c18.1,18.67,46.94,31.1,53.16,33.37l22.05,9.04c19.79,7.92,27.14,14.14,29.97,16.97
		c7.06,6.78,10.96,16.22,10.74,26.01c0.4,13.5-5.44,26.44-15.84,35.06c-10.74,7.92-28.84,11.88-41.85,11.88
		c-15.56-0.07-30.81-4.37-44.11-12.45c-12.14-8.18-22.84-18.31-31.68-29.98L0,337.07c14.58,15.93,31.55,29.48,50.31,40.16
		c25.45,13.57,47.49,16.97,75.21,16.97c38.45,0,77.48-6.79,108.01-36.76c22.05-22.05,37.89-57.1,37.89-96.7
		c0-24.32-5.66-41.85-19.23-58.82c-14.7-18.09-31.66-27.7-49.76-36.19l-22.06-10.18c-18.66-8.48-28.84-13.01-36.76-19.8
		c-8.24-5.84-13.1-15.35-13-25.45C130.75,99.8,135.5,89.87,143.62,83.17z"/>
	<polygon class="st0" points="348.62,385.72 435.7,385.72 482.07,8.53 394.99,8.53 	"/>
	<polygon class="st0" points="845.57,253.95 671.96,8.53 596.2,8.53 549.25,385.72 636.33,385.72 666.31,139.15 841.04,385.72 
		916.81,385.72 963.18,8.53 876.1,8.53 	"/>
	<polygon class="st0" points="1373.33,8.53 1251.19,234.16 1186.72,8.53 1114.91,8.53 1007.46,385.72 1094.54,385.72 
		1152.24,160.64 1218.39,385.72 1251.19,385.72 1371.63,160.65 1373.9,385.72 1460.98,385.72 1447.41,8.53 	"/>
	<polygon class="st0" points="1551.23,385.72 1761.59,385.72 1770.63,312.19 1645.1,312.19 1655.28,228.51 1774.03,228.51 
		1783.07,154.98 1664.32,154.98 1673.38,82.04 1796.65,82.04 1805.7,8.53 1597.6,8.53 	"/>
	<polygon class="st0" points="1912.92,8.53 1866.55,385.72 1953.63,385.72 2000,8.53 	"/>
</g>
</svg>
