<?xml version="1.0" encoding="utf-8"?>
<!-- Generator: Adobe Illustrator 28.1.0, SVG Export Plug-In . SVG Version: 6.00 Build 0)  -->
<svg version="1.1" id="レイヤー_1" xmlns="http://www.w3.org/2000/svg" xmlns:xlink="http://www.w3.org/1999/xlink" x="0px"
	 y="0px" viewBox="0 0 2000 450.3" style="enable-background:new 0 0 2000 450.3;" xml:space="preserve">
<style type="text/css">
	.st0{fill:#FFFFFF;}
</style>
<g id="グループ_75" transform="translate(0)">
	<path id="パス_399" class="st0" d="M0,0v226.76h170.93V126.45h272.13V0H0z"/>
	<path id="パス_400" class="st0" d="M272.11,223.49v100.34H0V450.3h443.06V223.49H272.11z"/>
	<g id="グループ_74">
		<g id="グループ_73">
			<path id="パス_401" class="st0" d="M1076.35,170.36h-73.72v-20.58c0.63-6.25-0.35-12.56-2.84-18.33
				c-2.28-2.81-5.82-4.29-9.42-3.95c-4.3-0.23-8.4,1.79-10.85,5.33c-2.79,4.89-4.07,10.5-3.67,16.11
				c-0.44,7.22,0.99,14.43,4.14,20.93c5.98,7.42,13.67,13.27,22.42,17.04c24.91,11.41,47.52,27.29,66.7,46.86
				c10.62,17.81,15.43,38.48,13.76,59.14c0.93,14.97-1.69,29.94-7.64,43.71c-6.93,10.9-17.28,19.19-29.44,23.57
				c-16.14,6.64-33.47,9.88-50.91,9.51c-18.73,0.52-37.34-3.23-54.4-10.97c-12.94-5.32-23.43-15.26-29.44-27.89
				c-5.32-15.48-7.69-31.82-6.99-48.17v-18.21h73.64v33.76c-0.67,6.84,0.39,13.73,3.1,20.05c2.69,3.25,6.84,4.93,11.03,4.46
				c4.65,0.31,9.12-1.84,11.79-5.66c2.91-5.1,4.25-10.94,3.86-16.8c1.37-11.22-1.23-22.56-7.34-32.06
				c-11.55-9.58-24.01-18.01-37.19-25.19c-13.62-7.78-26.71-16.43-39.22-25.89c-6.95-6.1-12.4-13.73-15.93-22.28
				c-4.59-11.54-6.75-23.92-6.32-36.33c-1.1-16.05,1.99-32.12,8.96-46.62c6.91-10.61,17.06-18.69,28.94-23.06
				c15.41-5.92,31.84-8.73,48.34-8.29c17.99-0.47,35.89,2.62,52.68,9.08c12.01,4,22.22,12.1,28.85,22.89
				c5.7,14.94,8.11,30.93,7.07,46.89L1076.35,170.36z"/>
			<rect id="長方形_75" x="1118.88" y="86.37" class="st0" width="79.38" height="277.52"/>
			<path id="パス_402" class="st0" d="M1414.75,86.37v277.52h-69.59l-41.29-126.16v126.16h-66.36V86.37h66.36l44.5,124.96V86.37
				H1414.75z"/>
			<path id="パス_403" class="st0" d="M1704.38,86.37v277.52H1635l-0.09-187.36l-27.63,187.36h-49.21l-29.11-183.07l-0.09,183.07
				h-69.38V86.37h102.71c3.1,16.69,6.24,36.36,9.42,59l11.28,70.59l18.24-129.6L1704.38,86.37z"/>
			<path id="パス_404" class="st0" d="M1749.13,86.37h132.37v55.53h-52.99v52.68h49.58v52.79h-49.58v60.97h58.27v55.53h-137.65
				V86.37z"/>
			<rect id="長方形_76" x="1920.62" y="86.37" class="st0" width="79.38" height="277.52"/>
			<path id="パス_405" class="st0" d="M566.99,167.25v46.9h16.61v-66.18l16.42,19.34V155.7h25.04
				c-5.16,14.57-14.02,27.55-25.72,37.65l-0.9,0.74v20.56l3.73-2.26c12.57-8.86,22.64-20.82,29.24-34.71v36.32h16.89v-35.93
				c6.08,13.44,15.33,25.2,26.96,34.27l3.8,2.45v-20.67l-0.87-0.74c-11.24-10.26-19.64-23.24-24.42-37.68h25.29v-16.61H648.3v-23.33
				h27.55V99.43H648.3V83.84h-16.89v15.59h-11.47c0.33-3.1,0.54-6.49,0.67-10.54v-2.54h-15.03l-0.12,2.32
				c-0.59,14.8-3.73,29.38-9.3,43.11l-1.55,3.47h16.46l0.62-1.55c2.34-5.82,4.2-11.82,5.55-17.94h14.07v23.33h-31.67v4.08
				l-16.04-18.41v-8.72h15.87V99.85H583.6V83.84h-16.61v16.01h-18.22v16.19h18.22v5.75c-0.9,15.97-7.08,31.18-17.56,43.26
				l-0.67,0.71v24.36l4.18-4.09C558.44,180.42,563.16,174.1,566.99,167.25"/>
			<path id="パス_406" class="st0" d="M777.51,120.55c0,45.93,15.76,77.24,46.84,93.06l3.58,1.81v-20.67l-1.15-0.73
				c-21.51-13.53-31.92-37.53-31.92-73.16v-1.87h33.11v-16.72h-7.93l-3.49-18.41H801.8l3.44,18.41h-10.38V83.86h-17.35v18.41h-79.87
				v16.72h79.87V120.55z"/>
			<path id="パス_407" class="st0" d="M776.95,204.15l1.74-0.54v-17.18l-3.33,1.24c-9.76,3.43-19.91,5.62-30.21,6.52v-40.29h30.76
				v-16.76h-78.25v16.75h30.18v41.54c-8.83,0.43-18.02,0.43-27.73,0.43h-2.45v16.41h2.45c25.88,0.99,51.76-1.77,76.85-8.18"/>
			<path id="パス_408" class="st0" d="M560.9,284.51v12.04h106.37v-11.84c2.92,0.65,5.92,1.2,9,1.66l2.82,0.4v-17.04l-2.12-0.29
				c-21.69-1.8-41.23-13.82-52.62-32.37l-0.71-1.27h-19.35l-0.7,1.24c-11.7,18.32-31.17,30.24-52.8,32.34l-2.08,0.33v17.04
				l2.87-0.48c3.16-0.52,6.26-1.13,9.3-1.84 M574.3,280.4c15.64-5.36,29.38-15.17,39.53-28.22c10.01,13,23.58,22.82,39.06,28.26
				L574.3,280.4z"/>
			<path id="パス_409" class="st0" d="M679.06,326.93v-15.96H548.76v15.96h23.49l-9.81,20.9h-4.65c-2.17,0-4.37,0-6.65,0h-2.46
				v16.75h33.48c25.26,1.85,50.65-0.77,74.99-7.75l4.28,9.3h18.93l-18.07-39.2H679.06z M650.38,342.05
				c-22.34,5.31-45.35,7.27-68.27,5.83l9.92-20.95h51.36L650.38,342.05z"/>
			<path id="パス_410" class="st0" d="M798.44,347.07v-56.91h26.15v-17.59h-26.15v-36.74h-17.31v36.74h-26.34v17.59h26.34v56.91
				h-29.92v17.31h76.87v-17.31H798.44z"/>
			<path id="パス_411" class="st0" d="M755.03,318.86l-19.31-16.9c8.66-11.19,14.38-24.36,16.64-38.32v-13.74H733.6v-14.05h-16.75
				v14.05h-19.06v16.47h37.19c-5.69,19.98-18.52,37.16-36.06,48.3l-1.19,0.71v20.28l3.69-2.14c5.87-3.45,11.39-7.46,16.49-11.98
				v44.45h16.61v-44.48l20.45,18.59L755.03,318.86z"/>
		</g>
	</g>
</g>
</svg>
