<?xml version="1.0" encoding="utf-8"?>
<!-- Generator: Adobe Illustrator 28.1.0, SVG Export Plug-In . SVG Version: 6.00 Build 0)  -->
<svg version="1.1" id="レイヤー_1" xmlns="http://www.w3.org/2000/svg" xmlns:xlink="http://www.w3.org/1999/xlink" x="0px"
	 y="0px" viewBox="0 0 2000 1500.17" style="enable-background:new 0 0 2000 1500.17;" xml:space="preserve">
<style type="text/css">
	.st0{fill:#FFFFFF;}
</style>
<g>
	<path class="st0" d="M212.1,284.41c-15.39,4.33-31.69,4.24-47.04-0.26c-9.21-2.41-18.18-5.69-26.76-9.8
		c-8.64-4.08-16.88-8.97-24.61-14.59l-3.06-2.23l-31.85,56.28l2.53,1.77c22.66,15.74,48.33,26.61,75.41,31.91h0
		c12.75,2.53,25.71,3.82,38.7,3.85c21.79,0.66,43.41-3.98,63.01-13.52c16.1-8.09,29.65-20.46,39.16-35.76
		c8.82-14.47,13.45-31.1,13.38-48.04c0.36-14.03-1.99-27.99-6.93-41.12c-4.21-10.59-10.53-20.21-18.58-28.27
		c-7.68-7.53-16.42-13.89-25.95-18.88c-9.28-4.88-18.86-9.18-28.67-12.88c-10.12-3.74-20.04-8-29.73-12.76
		c-8.37-3.93-16.04-9.2-22.7-15.61c-5.15-4.71-8.11-11.35-8.15-18.33c-0.64-8.87,3.38-17.43,10.6-22.62
		c9.3-5.72,20.13-8.44,31.02-7.82c12.01,0.21,23.9,2.41,35.19,6.5c12.96,4.51,25.51,10.1,37.54,16.7l3.09,1.72l27.37-55.25
		l-2.48-1.66c-14.11-9.15-29.19-16.72-44.95-22.58c-21.16-7.05-43.39-10.3-65.68-9.59c-19.1,0.53-37.84,5.31-54.86,13.97
		c-15.3,7.84-28.15,19.73-37.14,34.39c-9.04,15.51-13.6,33.22-13.18,51.17c-0.43,14.35,2.68,28.58,9.05,41.44
		c5.79,10.97,13.85,20.6,23.62,28.24c9.5,7.4,19.79,13.73,30.68,18.88c10.73,5.08,21.29,9.6,31.39,13.47
		c8.11,3.02,15.92,6.78,23.32,11.25c6.25,3.68,11.83,8.4,16.51,13.95c3.7,4.39,5.72,9.95,5.7,15.68c0.43,7.28-2.04,14.44-6.87,19.91
		C225.19,278.96,218.95,282.57,212.1,284.41z"/>
	<rect x="400.79" y="13.37" class="st0" width="71.31" height="334.41"/>
	<polygon class="st0" points="650.98,158.35 874.52,360.26 875.51,361.12 881.94,361.12 881.94,13.37 810.18,13.37 811.45,206.45 
		588.37,1.36 587.4,0.5 580.04,0.5 580.04,347.78 652.25,347.78 	"/>
	<polygon class="st0" points="1058.74,208.16 1155.49,341.93 1156.48,343.35 1160.86,343.35 1262.58,198.71 1262.58,347.78 
		1333.88,347.78 1333.88,0 1327.87,0 1159.74,233.29 996.24,1.43 994.79,0 989.64,0 989.64,347.78 1058.71,347.78 	"/>
	<polygon class="st0" points="1678.34,278.7 1513.17,278.7 1513.17,214.65 1653.85,214.65 1653.85,145.57 1513.17,145.57 
		1513.17,82.42 1672.12,82.42 1672.12,13.35 1441.87,13.35 1441.87,347.78 1678.34,347.78 	"/>
	<rect x="1770.58" y="13.37" class="st0" width="71.31" height="334.41"/>
	<path class="st0" d="M502,1069.56l-72.26-112.74c7.71-4.91,14.61-10.99,20.46-18.03c8.65-10.39,15.11-22.42,18.98-35.37
		c3.78-12.41,5.71-25.3,5.75-38.28c0.21-15.04-2.58-29.97-8.2-43.92c-5.35-12.95-13.57-24.52-24.03-33.83
		c-11.33-9.78-24.57-17.11-38.88-21.51c-16.79-5.15-34.28-7.65-51.84-7.4h-96.5v311.08h70.39v-95.31h30.63l63.31,95.28L502,1069.56z
		 M400.49,879.63c-1.4,4.58-3.58,8.87-6.45,12.7c-3.19,4.14-7.3,7.46-12.02,9.71c-6.24,2.8-13.04,4.13-19.88,3.89h-36.3v-79.11
		h36.69c7.54-0.38,15.05,1.18,21.81,4.52c4.75,2.58,8.75,6.36,11.57,10.97c2.5,4.17,4.27,8.74,5.25,13.5
		c0.78,3.74,1.22,7.55,1.32,11.36C402.42,871.41,401.75,875.6,400.49,879.63L400.49,879.63z"/>
	<rect x="563.11" y="758.47" class="st0" width="70.38" height="311.08"/>
	<polygon class="st0" points="940.46,931.82 739.1,746.65 728.8,746.65 728.8,1069.56 800.04,1069.56 798.91,899.52 999.08,1080.32 
		1000.69,1081.77 1010.13,1081.77 1010.13,758.47 939.34,758.47 	"/>
	<path class="st0" d="M1224.56,969.77h51.73v27.12c-4.23,1.82-8.67,3.1-13.21,3.84c-7.36,1.2-14.8,1.77-22.26,1.72
		c-13,0.14-25.93-1.82-38.3-5.81c-10.84-3.54-20.85-9.26-29.41-16.8c-8.27-7.4-14.81-16.52-19.17-26.72
		c-4.72-11.34-7.05-23.54-6.87-35.82c-0.25-13.67,1.84-27.28,6.18-40.25c3.69-10.66,9.83-20.32,17.92-28.18
		c8.41-7.81,18.46-13.63,29.42-17.03c13.41-4.1,27.38-6.08,41.41-5.85c7.14,0.13,14.25,0.98,21.22,2.53
		c8.19,1.73,16.27,3.92,24.21,6.54c6.42,2.03,12.64,4.61,18.61,7.73l5.87,3.26l22.89-65.81l-4.12-2.31
		c-13.28-7.16-27.41-12.61-42.06-16.22c-37.8-9.72-77.59-8.47-114.7,3.6c-19.09,6.66-36.55,17.28-51.24,31.18
		c-15.35,14.76-27.35,32.65-35.19,52.46c-9.02,23.48-13.39,48.49-12.88,73.63c-0.19,20.56,3.7,40.95,11.43,60
		c7.5,18.14,18.83,34.44,33.2,47.8c15.07,13.79,32.75,24.43,51.99,31.3c21.82,7.69,44.82,11.47,67.95,11.16
		c10.22-0.07,20.41-1.13,30.42-3.15c10.5-2.08,20.86-4.8,31.03-8.12c9.31-3,18.36-6.74,27.08-11.16c6.76-3.21,12.94-7.53,18.26-12.8
		l1.49-1.61V901.43h-122.92V969.77z"/>
	<path class="st0" d="M1685.34,802.67l0.01,0.03c-14.63-14.65-31.85-26.44-50.8-34.77c-39.3-16.85-83.79-16.85-123.09,0
		c-18.87,8.29-35.99,20.1-50.42,34.82c-14.4,14.67-25.92,31.91-33.97,50.82c-8.18,19.25-12.35,39.96-12.27,60.88
		c-0.14,21.18,4.04,42.17,12.27,61.69c16.09,38.06,46.38,68.35,84.44,84.44c39.35,16.36,83.6,16.36,122.95,0
		c18.93-8.02,36.18-19.54,50.85-33.94c14.7-14.42,26.45-31.56,34.61-50.46c8.38-19.49,12.63-40.5,12.5-61.72
		c0.08-20.96-4.18-41.71-12.5-60.94C1711.7,834.53,1699.97,817.28,1685.34,802.67z M1653.47,949.6
		c-4.18,10.63-10.29,20.4-18.03,28.82c-7.54,8.18-16.68,14.72-26.86,19.22c-21.74,9.08-46.21,9.08-67.95,0
		c-10.49-4.54-19.98-11.11-27.92-19.33c-16.59-17.1-25.75-40.06-25.49-63.89c-0.11-12.24,2.11-24.39,6.52-35.8
		c4.2-10.74,10.45-20.56,18.39-28.93c7.78-8.19,17.12-14.74,27.47-19.28c32.62-14.38,70.75-6.67,95.23,19.24
		c16.39,17.56,25.39,40.75,25.13,64.76l0.03-0.01C1660.09,926.45,1657.88,938.4,1653.47,949.6z"/>
	<polygon class="st0" points="310.66,1173.59 158.16,1385.13 10.69,1175.99 8.58,1173.59 0,1173.59 0,1496.89 68.33,1496.89 
		68.33,1374.53 152.17,1490.49 154.67,1492.83 160.52,1492.83 249.68,1366.05 249.68,1496.88 320.06,1496.88 320.06,1179.24 
		319.25,1173.59 	"/>
	<path class="st0" d="M595.88,1380.45c-0.05,8.63-2.63,17.06-7.43,24.23c-5.22,8.03-12.32,14.66-20.68,19.33
		c-17.96,9.84-39.7,9.84-57.66,0c-8.34-4.75-15.44-11.39-20.73-19.39c-4.91-7.11-7.57-15.54-7.62-24.18v-194.65h-70.39v195.87
		c-0.36,21.73,5.6,43.09,17.17,61.49c11.36,17.75,27.2,32.2,45.91,41.89c19.62,10.15,41.43,15.34,63.52,15.11
		c22.28,0.25,44.29-4.94,64.12-15.11c18.81-9.64,34.73-24.09,46.14-41.89c11.57-18.4,17.53-39.76,17.17-61.49v-195.87h-69.53
		L595.88,1380.45z"/>
	<path class="st0" d="M825.35,1254.72l0.03,0.01c11.66-8.18,33.85-9.31,58.23-0.86c11.72,4.07,23.08,9.11,33.96,15.07l5.15,2.83
		l27.24-54.99l-4.19-2.76c-13.07-8.47-27.03-15.49-41.63-20.92c-19.66-6.55-40.33-9.58-61.04-8.93h-0.08
		c-17.85,0.51-35.36,4.99-51.26,13.1c-14.41,7.4-26.51,18.61-34.99,32.41c-8.5,14.58-12.79,31.23-12.41,48.09
		c-1.06,25.65,10.48,50.21,30.9,65.77c8.84,6.89,18.41,12.78,28.54,17.56c9.97,4.7,19.67,8.87,28.93,12.39
		c7.23,2.74,14.2,6.13,20.82,10.13c5.47,3.21,10.36,7.33,14.46,12.18c3.01,3.56,4.65,8.08,4.64,12.74
		c0.43,5.99-1.55,11.91-5.51,16.43c-4.27,4.29-9.6,7.35-15.45,8.88c-13.63,3.85-28.07,3.76-41.65-0.24
		c-8.28-2.16-16.32-5.11-24.03-8.81c-7.74-3.67-15.12-8.07-22.04-13.12l-5.15-3.74l-31.76,56.03l4.23,2.94
		c21.02,14.59,44.84,24.67,69.95,29.61c11.83,2.34,23.86,3.53,35.91,3.56c20.35,0.61,40.54-3.74,58.84-12.65
		c15.15-7.62,27.9-19.27,36.84-33.67c8.31-13.64,12.68-29.31,12.63-45.28c0.33-13.18-1.88-26.29-6.52-38.63
		c-3.98-10.01-9.96-19.1-17.56-26.73c-7.21-7.05-15.42-13.01-24.36-17.67c-8.59-4.5-17.46-8.47-26.54-11.89
		c-9.17-3.4-18.16-7.27-26.94-11.59c-7.39-3.46-14.17-8.11-20.06-13.75c-4.22-3.82-6.65-9.24-6.7-14.94
		C816.21,1266.05,819.46,1259.01,825.35,1254.72z"/>
	<path class="st0" d="M1202.28,1380.45c-0.05,8.63-2.63,17.06-7.43,24.23c-5.22,8.03-12.32,14.66-20.68,19.33
		c-17.96,9.84-39.7,9.84-57.66,0c-8.34-4.75-15.44-11.39-20.73-19.39c-4.91-7.11-7.57-15.54-7.62-24.18v-194.65h-70.39v195.87
		c-0.36,21.73,5.6,43.09,17.17,61.49c11.36,17.75,27.2,32.2,45.91,41.89c19.62,10.15,41.43,15.34,63.52,15.11
		c22.28,0.25,44.29-4.94,64.12-15.11c18.81-9.64,34.73-24.09,46.14-41.89c11.57-18.4,17.53-39.76,17.17-61.49v-195.87h-69.53
		L1202.28,1380.45z"/>
	<polygon class="st0" points="1673.83,1173.59 1521.33,1385.13 1373.85,1175.99 1371.75,1173.59 1363.16,1173.59 1363.16,1496.89 
		1431.49,1496.89 1431.49,1374.53 1515.33,1490.49 1517.83,1492.83 1523.66,1492.83 1612.83,1366.06 1612.83,1496.89 
		1683.22,1496.89 1683.22,1179.24 1682.4,1173.59 	"/>
	<polygon class="st0" points="1848.92,1428.54 1848.92,1375.1 1977.61,1375.1 1977.61,1306.77 1848.92,1306.77 1848.92,1254.12 
		1994.31,1254.12 1994.31,1185.79 1778.54,1185.79 1778.54,1496.88 2000,1496.88 2000,1428.54 	"/>
	<polygon class="st0" points="869.44,453.09 964.1,547.74 869.44,642.4 881.58,654.54 976.24,559.88 1070.89,654.54 1083.03,642.4 
		988.38,547.74 1083.03,453.09 1070.89,440.95 976.24,535.6 881.58,440.95 	"/>
</g>
</svg>
