<?xml version="1.0" encoding="utf-8"?>
<!-- Generator: Adobe Illustrator 28.3.0, SVG Export Plug-In . SVG Version: 6.00 Build 0)  -->
<svg version="1.1" id="レイヤー_1" xmlns="http://www.w3.org/2000/svg" xmlns:xlink="http://www.w3.org/1999/xlink" x="0px"
	 y="0px" viewBox="0 0 394.2 2000" style="enable-background:new 0 0 394.2 2000;" xml:space="preserve">
<style type="text/css">
	.st0{fill:#0085D8;}
</style>
<g>
	<path class="st0" d="M311,143.6c7.9,9.6,9.6,24.9,9.6,35.6c0,17-5.6,39.6-27.1,63.3l63.3,43.6c24.2-29.8,37.4-67,37.4-105.3
		c0-1.3,0-2.5,0-3.8c0-32.2-5.7-71.3-35.6-101.8c-22.7-22.4-53.5-34.6-85.4-33.9c-23.8-0.8-46.9,8.2-63.9,24.9
		c-18.7,18.1-31.1,46.9-33.4,53.2l-9,22.1c-7.9,19.8-14.1,27.1-17,30c-6.8,7.1-16.2,11-26,10.7c-13.5,0.4-26.4-5.4-35.1-15.8
		c-7.9-10.7-11.9-28.8-11.9-41.8c0.1-15.6,4.4-30.8,12.5-44.1c8.2-12.1,18.3-22.8,30-31.7L57.1,0C41.2,14.6,27.6,31.5,17,50.3
		C3.4,75.8,0,97.8,0,125.5c0,38.4,6.8,77.5,36.8,108c22,22.1,57.1,37.9,96.7,37.9c24.3,0,41.9-5.7,58.8-19.2
		c18.1-14.7,27.7-31.7,36.2-49.8l10.2-22.1c8.5-18.7,13-28.8,19.8-36.8c5.8-8.2,15.4-13.1,25.5-13
		C294.4,130.8,304.3,135.5,311,143.6z M283.9,126.6c-11.4-0.1-22,5.3-28.6,14.5c-6.9,8.1-11.4,18-19.6,36l-0.7,1.6l-10.2,22
		c-9,19.2-18.4,34.8-35.1,48.3c-16.1,12.9-32.9,18.4-56.3,18.4c-35.8,0-70.9-13.7-93.8-36.7C26.1,217,16.7,200.8,11,181.4
		c-4.7-15.9-7-34.1-7-55.8c0-25.4,2.8-47.6,16.5-73.3c9.9-17.4,22.3-33.2,36.9-47l55.5,43.4C102.5,57.1,93.5,67,86,78.1l0,0.1l0,0.1
		c-8.5,13.9-13,29.9-13,46.2c0,13,4,32.4,12.7,44.2l0.1,0.1l0.1,0.1c9.5,11.4,23.4,17.7,38.1,17.3c10.8,0.2,21.3-4.1,28.9-11.9
		c5.9-5.9,11.9-16.4,17.8-31.2l9-22.1l0-0.1l0-0.1c3-8.1,15.2-35,32.4-51.7c16.1-15.8,38.4-24.5,61-23.8h0.1h0.1
		c15.3-0.3,30.3,2.4,44.6,8c14.2,5.7,27,14,37.9,24.7c13.1,13.3,22.5,29.7,28.1,48.5c4.3,14.7,6.4,31.2,6.4,50.4v0.1v0.1
		c0,1.2,0,2.5,0,3.7l0,0c0,36.1-12.1,71.4-34.2,99.9l-56.5-38.9c20.7-24.5,25.2-47.4,25.2-62.6c0-11.6-1.8-27.6-10.5-38.2
		C306.7,132,295.7,126.8,283.9,126.6z"/>
	<path class="st0" d="M8.5,348.6v87.1l377.2,46.4V395L8.5,348.6z M381.7,477.5L12.5,432.2v-79l369.2,45.4
		C381.7,398.5,381.7,477.5,381.7,477.5z"/>
	<path class="st0" d="M140.3,845.6L385.7,672v-75.8L8.5,549.3v87.1l246.6,30L8.5,841v75.8l377.2,46.4v-87.1L140.3,845.6z
		 M381.7,958.7L12.5,913.3v-70.2l244.9-173.5l8.4-6l-10.3-1.2L12.5,632.8v-79l369.2,46v70.2L137.9,842.3l-8.4,6l10.2,1.3l241.9,30.1
		L381.7,958.7L381.7,958.7z"/>
	<path class="st0" d="M385.7,1373.3L160,1251.2l225.6-64.5v-71.8L8.5,1007.5v87.1l225.1,57.7L8.5,1218.4v32.8l225.1,120.4
		l-225.1,2.3v87.1l377.2-13.6V1373.3z M12.5,1377.9l221.1-2.2l15.6-0.2l-13.8-7.4L12.5,1248.8v-27.4l222.2-65.3l13.9-4.1l-14.1-3.6
		l-222.1-56.9v-78.7l369.2,105.2v65.8l-222.7,63.6l-9.4,2.7l8.6,4.7l223.5,121v67.8l-369.2,13.3L12.5,1377.9L12.5,1377.9z"/>
	<path class="st0" d="M8.5,1551.2v210.4l73.5,9v-125.5l83.7,10.2V1774l73.5,9v-118.7l72.9,9.1v123.3l73.5,9v-208.1L8.5,1551.2z
		 M381.7,1801.2l-65.5-8.1v-119.7v-3.5l-3.5-0.4l-73-9.1l-4.5-0.6v4.5v114.2l-65.5-8.1v-115.2v-3.5l-3.5-0.4l-83.7-10.2l-4.5-0.6
		v4.5v121l-65.5-8.1v-202.3l369.2,45.4L381.7,1801.2L381.7,1801.2z"/>
	<path class="st0" d="M385.7,1912.9L8.5,1866.6v87.1l377.2,46.4V1912.9z M12.5,1950.1v-79l369.2,45.4v79L12.5,1950.1z"/>
</g>
</svg>
