<?xml version="1.0" encoding="utf-8"?>
<!-- Generator: Adobe Illustrator 28.2.0, SVG Export Plug-In . SVG Version: 6.00 Build 0)  -->
<svg version="1.1" id="レイヤー_1" xmlns="http://www.w3.org/2000/svg" xmlns:xlink="http://www.w3.org/1999/xlink" x="0px"
	 y="0px" viewBox="0 0 128 128" style="enable-background:new 0 0 128 128;" xml:space="preserve">
<style type="text/css">
	.st0{fill:#FFFFFF;}
	.st1{fill:#040000;}
</style>
<path class="st0" d="M-174.9,106.6c-9.9,0.4-19.5,2.7-28.5,6.9l24.2-65.7c0.7-2,1.9-3.2,3.4-3.2h29c1.5,0,2.7,1.2,3.4,3.2l24.2,65.7
	c0,0-11.6-7-28.5-7l-10.6-32.9c-0.4-1.7-1.6-2.8-2.9-2.8s-2.5,1.1-2.9,2.7L-174.9,106.6z M-180.2,114.6c-2,6.6-0.6,15.8,4.2,20.2
	c0.1-0.2,0.1-0.5,0.2-0.7c0.5-2.7,2.9-4.6,5.7-4.5c2.8,0.1,4.3,1.5,4.7,4.7c0.2,1.1,0.2,2.3,0.2,3.5v0.4c0,2.7,0.7,5.2,2.2,7.4
	c1.4,2.2,3.4,3.9,5.7,4.9v-0.3l-0.2-0.3c-1.8-5.6-0.5-9.5,4.4-12.8l1.5-1c1.1-0.7,2.2-1.4,3.2-2.2c3.8-2.6,6.3-6.8,6.8-11.4
	c0.3-2,0.1-4-0.6-6l-0.8,0.6l-1.6,1c-7,3.2-14.8,4.2-22.4,2.7C-172,120.1-176.7,118.8-180.2,114.6z"/>
<g>
	<path id="パス_7" class="st1" d="M21.9,21.9v42.4h32.5V45.6h51.7V21.9H21.9z"/>
	<path id="パス_8" class="st1" d="M73.6,63.7v18.8H21.9v23.7h84.2V63.7H73.6z"/>
</g>
</svg>
