<?xml version="1.0" encoding="utf-8"?>
<!-- Generator: Adobe Illustrator 28.1.0, SVG Export Plug-In . SVG Version: 6.00 Build 0)  -->
<svg version="1.1" id="レイヤー_1" xmlns="http://www.w3.org/2000/svg" xmlns:xlink="http://www.w3.org/1999/xlink" x="0px"
	 y="0px" viewBox="0 0 2000 394.2" style="enable-background:new 0 0 2000 394.2;" xml:space="preserve">
<style type="text/css">
	.st0{fill:#0085D8;}
</style>
<g>
	<path class="st0" d="M143.62,83.17c9.63-7.92,24.9-9.61,35.64-9.61c16.97,0,39.58,5.65,63.34,27.14l43.55-63.33
		C256.33,13.17,219.13,0,180.81,0c-1.27,0-2.54,0.01-3.81,0.04c-32.25,0-71.26,5.66-101.8,35.64C52.84,58.4,40.6,89.19,41.27,121.06
		c-0.76,23.81,8.24,46.89,24.92,63.89c18.1,18.67,46.94,31.1,53.16,33.37l22.05,9.04c19.79,7.92,27.14,14.14,29.97,16.97
		c7.06,6.78,10.96,16.22,10.74,26.01c0.4,13.5-5.44,26.44-15.84,35.06c-10.74,7.92-28.84,11.88-41.85,11.88
		c-15.56-0.07-30.81-4.37-44.11-12.45c-12.14-8.18-22.84-18.31-31.68-29.98L0,337.07c14.58,15.93,31.55,29.48,50.31,40.16
		c25.45,13.57,47.49,16.97,75.21,16.97c38.45,0,77.48-6.79,108.01-36.76c22.05-22.05,37.89-57.1,37.89-96.7
		c0-24.32-5.66-41.85-19.23-58.82c-14.7-18.09-31.66-27.7-49.76-36.19l-22.06-10.18c-18.66-8.48-28.84-13.01-36.76-19.8
		c-8.24-5.84-13.1-15.35-13-25.45C130.75,99.8,135.5,89.87,143.62,83.17z M126.62,110.28c-0.11,11.35,5.32,22.04,14.54,28.64
		c8.1,6.89,18.03,11.41,35.97,19.56l1.57,0.71l22.04,10.17c19.24,9.02,34.83,18.44,48.33,35.07c12.87,16.08,18.36,32.93,18.36,56.32
		c0,35.78-13.73,70.87-36.69,93.84c-13.76,13.51-29.91,22.87-49.37,28.64c-15.85,4.69-34.11,6.98-55.84,6.98
		c-25.43,0-47.62-2.8-73.28-16.47c-17.43-9.93-33.22-22.33-46.99-36.88l43.39-55.51c8.45,10.33,18.33,19.34,29.43,26.81l0.08,0.05
		l0.08,0.05c13.92,8.45,29.89,12.95,46.19,13.03c13.03,0,32.42-3.96,44.22-12.66l0.09-0.07l0.09-0.07
		c11.4-9.46,17.69-23.36,17.29-38.15c0.21-10.83-4.14-21.34-11.95-28.85c-5.89-5.87-16.41-11.87-31.25-17.81l-22.05-9.04l-0.07-0.03
		l-0.08-0.03c-8.12-2.96-35.03-15.25-51.67-32.41c-15.84-16.14-24.5-38.36-23.78-60.96l0-0.11l0-0.11
		c-0.32-15.32,2.38-30.32,8.05-44.56c5.66-14.23,13.97-26.98,24.72-37.9C91.36,25.44,107.7,16,126.59,10.46
		c14.72-4.32,31.21-6.42,50.41-6.42h0.05l0.05,0c1.23-0.03,2.48-0.04,3.72-0.04h0c36.09,0,71.42,12.11,99.91,34.18l-38.88,56.55
		c-24.46-20.71-47.39-25.17-62.59-25.17c-11.58,0-27.6,1.82-38.19,10.52C132.03,87.55,126.76,98.55,126.62,110.28z"/>
	<path class="st0" d="M348.62,385.72h87.08L482.07,8.53h-87.08L348.62,385.72z M477.55,12.53l-45.39,369.19h-79.02l45.39-369.19
		H477.55z"/>
	<path class="st0" d="M845.57,253.95L671.96,8.53H596.2l-46.94,377.19h87.08l29.98-246.57l174.73,246.57h75.78L963.18,8.53H876.1
		L845.57,253.95z M958.66,12.53l-45.39,369.19H843.1L669.57,136.84l-5.99-8.45l-1.25,10.28l-29.55,243.05h-79.01l45.95-369.19h70.16
		L842.3,256.26l5.96,8.43l1.27-10.24l30.09-241.91H958.66z"/>
	<path class="st0" d="M1373.33,8.53l-122.14,225.63L1186.72,8.53h-71.82l-107.44,377.19h87.08l57.69-225.08l66.16,225.08h32.8
		l120.44-225.06l2.27,225.06h87.08L1447.41,8.53H1373.33z M1377.86,381.72l-2.23-221.1l-0.16-15.62l-7.37,13.77l-119.31,222.95
		h-27.41l-65.31-222.2l-4.1-13.95l-3.61,14.09l-56.92,222.07h-78.68l105.16-369.19h65.78l63.64,222.73l2.69,9.43l4.67-8.63
		l121.01-223.53h67.84l13.28,369.19H1377.86z"/>
	<path class="st0" d="M1551.23,385.72h210.36l9.04-73.53H1645.1l10.18-83.68h118.74l9.04-73.53h-118.74l9.05-72.95h123.28
		l9.04-73.51h-208.1L1551.23,385.72z M1801.17,12.53l-8.06,65.51h-119.74h-3.53l-0.44,3.51l-9.05,72.95l-0.56,4.49h4.53h114.22
		l-8.06,65.53h-115.2h-3.54l-0.43,3.52l-10.18,83.68l-0.55,4.48h4.52h121.01l-8.06,65.53h-202.3l45.39-369.19H1801.17z"/>
	<path class="st0" d="M1912.92,8.53l-46.37,377.19h87.08L2000,8.53H1912.92z M1950.09,381.72h-79.02l45.39-369.19h79.02
		L1950.09,381.72z"/>
</g>
</svg>
