<svg xmlns="http://www.w3.org/2000/svg" xmlns:xlink="http://www.w3.org/1999/xlink" width="25" height="25" viewBox="0 0 25 25"><defs><clipPath id="a"><rect width="9.913" height="8.052" fill="none" stroke="#102d8e" stroke-width="1"/></clipPath></defs><g transform="translate(-278.948 -1550.948)"><g transform="translate(286.522 1559.582)"><g clip-path="url(#a)"><path d="M49.6,8.675l-.707-.707,3.63-3.63L48.891.707,49.6,0l4.338,4.338Z" transform="translate(-43.4 -0.312)" fill="#102d8e"/><path d="M9.829.5H0v-1H9.829Z" transform="translate(0 4.026)" fill="#102d8e"/></g></g><path d="M12.5,1A11.5,11.5,0,0,0,4.368,20.632,11.5,11.5,0,0,0,20.632,4.368,11.425,11.425,0,0,0,12.5,1m0-1A12.5,12.5,0,1,1,0,12.5,12.5,12.5,0,0,1,12.5,0Z" transform="translate(278.948 1550.948)" fill="#102d8e"/></g></svg>