<svg xmlns="http://www.w3.org/2000/svg" xmlns:xlink="http://www.w3.org/1999/xlink" width="57.787" height="57.787" viewBox="0 0 57.787 57.787"><defs><clipPath id="a"><rect width="18.756" height="15.235" fill="none" stroke="#fff" stroke-width="1"/></clipPath></defs><g transform="translate(0 0)"><g transform="translate(19.459 21.312)"><g clip-path="url(#a)"><path d="M49.6,15.783l-.707-.707,7.184-7.184L48.891.707,49.6,0,57.49,7.891Z" transform="translate(-38.185 -0.274)" fill="#fff"/><path d="M18.6.5H0v-1H18.6Z" transform="translate(0 7.617)" fill="#fff"/></g></g><path d="M23.592,1A22.6,22.6,0,0,0,14.8,44.408,22.6,22.6,0,0,0,32.385,2.775,22.449,22.449,0,0,0,23.592,1m0-1A23.592,23.592,0,1,1,0,23.592,23.592,23.592,0,0,1,23.592,0Z" transform="matrix(-0.966, 0.259, -0.259, -0.966, 57.787, 45.575)" fill="#fff"/></g></svg>