<svg xmlns="http://www.w3.org/2000/svg" xmlns:xlink="http://www.w3.org/1999/xlink" width="60" height="60" viewBox="0 0 60 60"><defs><clipPath id="a"><rect width="22.261" height="18.081" fill="none" stroke="#102d8e" stroke-width="1"/></clipPath></defs><g transform="translate(339 1611) rotate(-180)"><g transform="translate(297.869 1572.281)"><g clip-path="url(#a)"><path d="M49.6,18.6l-.707-.707L57.484,9.3,48.891.707,49.6,0l9.3,9.3Z" transform="translate(-36.119 -0.259)" fill="#102d8e"/><path d="M22.073.5H0v-1H22.073Z" transform="translate(0 9.041)" fill="#102d8e"/></g></g><path d="M30,1A29.008,29.008,0,0,0,18.712,56.721,29.008,29.008,0,0,0,41.288,3.279,28.818,28.818,0,0,0,30,1m0-1A30,30,0,1,1,0,30,30,30,0,0,1,30,0Z" transform="translate(279 1551)" fill="#102d8e"/></g></svg>