<svg xmlns="http://www.w3.org/2000/svg" xmlns:xlink="http://www.w3.org/1999/xlink" width="141.746" height="25.568" viewBox="0 0 141.746 25.568"><defs><clipPath id="a"><rect width="106.597" height="21.007" fill="#fff"/></clipPath></defs><g transform="translate(-208 -17.227)"><path d="M0,0V12.877H9.707v-5.7H25.16V0Z" transform="translate(208 17.226)" fill="#fff"/><path d="M15.452,14.424v5.7H0V27.3H25.16V14.424Z" transform="translate(208 15.494)" fill="#fff"/><g transform="translate(243.149 19.507)" clip-path="url(#a)"><path d="M12.93,5.365A4.992,4.992,0,0,0,9.554,3.918a3.126,3.126,0,0,0-1.9.512,1.908,1.908,0,0,0-.693,1.447,1.642,1.642,0,0,0,.693,1.356A8.32,8.32,0,0,0,9.614,8.288l1.176.543a6.972,6.972,0,0,1,2.652,1.929,4.627,4.627,0,0,1,1.025,3.135,7.36,7.36,0,0,1-2.02,5.154,7.786,7.786,0,0,1-5.757,1.959,7.825,7.825,0,0,1-4.009-.9A11.045,11.045,0,0,1,0,17.963l2.592-3.316a7.078,7.078,0,0,0,1.687,1.6,4.572,4.572,0,0,0,2.351.663,4.166,4.166,0,0,0,2.23-.633,2.338,2.338,0,0,0,.844-1.869,1.865,1.865,0,0,0-.573-1.386,4.665,4.665,0,0,0-1.6-.9L6.36,11.634A8.852,8.852,0,0,1,3.527,9.855,4.65,4.65,0,0,1,2.2,6.45,6.3,6.3,0,0,1,4.009,1.9,7.43,7.43,0,0,1,9.434,0a8.908,8.908,0,0,1,5.817,1.989Z" transform="translate(0 0)" fill="#fff"/><path d="M46.049.948l-2.471,20.1H38.936L41.408.948Z" transform="translate(-20.355 -0.495)" fill="#fff"/><path d="M61.345,21.051l2.5-20.1h4.039l9.253,13.08L78.765.948h4.641l-2.471,20.1H76.9L67.584,7.91l-1.6,13.141Z" transform="translate(-32.07 -0.495)" fill="#fff"/><path d="M112.521,21.051l5.727-20.1h3.828l3.436,12.026L132.022.948h3.948l.723,20.1h-4.641l-.121-12-6.419,12h-1.748l-3.526-12-3.075,12Z" transform="translate(-58.825 -0.495)" fill="#fff"/><path d="M186.334,4.866h-6.57l-.482,3.888h6.329l-.482,3.918H178.8l-.543,4.46h6.69l-.482,3.918H173.253l2.471-20.1h11.091Z" transform="translate(-90.575 -0.495)" fill="#fff"/><path d="M215.583.948l-2.471,20.1H208.47l2.471-20.1Z" transform="translate(-108.986 -0.495)" fill="#fff"/></g></g></svg>