<svg xmlns="http://www.w3.org/2000/svg" xmlns:xlink="http://www.w3.org/1999/xlink" width="40" height="40" viewBox="0 0 40 40"><defs><clipPath id="a"><rect width="40" height="40" transform="translate(0)" fill="none"/></clipPath></defs><g transform="translate(0.398 0.399)"><g transform="translate(-0.398 -0.399)" clip-path="url(#a)"><path d="M11.621.138a14.507,14.507,0,0,0-4.812.931A9.7,9.7,0,0,0,3.3,3.363,9.72,9.72,0,0,0,1.019,6.881,14.571,14.571,0,0,0,.106,11.7c-.093,2.116-.114,2.791-.1,8.177s.034,6.062.135,8.179a14.543,14.543,0,0,0,.931,4.811,9.711,9.711,0,0,0,2.294,3.509,9.727,9.727,0,0,0,3.518,2.281,14.558,14.558,0,0,0,4.816.913c2.116.093,2.791.114,8.177.1s6.063-.034,8.179-.134a14.581,14.581,0,0,0,4.812-.931,10.137,10.137,0,0,0,5.79-5.813,14.525,14.525,0,0,0,.913-4.815c.093-2.117.114-2.793.1-8.179s-.035-6.061-.135-8.177A14.548,14.548,0,0,0,38.6,6.809,9.731,9.731,0,0,0,36.311,3.3a9.708,9.708,0,0,0-3.518-2.28A14.512,14.512,0,0,0,27.977.107C25.861.013,25.186-.007,19.8,0s-6.061.033-8.177.135M11.853,36a11,11,0,0,1-3.684-.675,6.182,6.182,0,0,1-2.284-1.48A6.164,6.164,0,0,1,4.4,31.566a10.987,10.987,0,0,1-.69-3.683c-.1-2.091-.121-2.718-.13-8.015s.009-5.923.1-8.015a10.983,10.983,0,0,1,.675-3.683,6.155,6.155,0,0,1,1.48-2.284A6.145,6.145,0,0,1,8.11,4.4a10.977,10.977,0,0,1,3.681-.69c2.092-.1,2.719-.12,8.014-.13s5.924.008,8.017.1a10.957,10.957,0,0,1,3.683.675,6.139,6.139,0,0,1,2.284,1.48,6.142,6.142,0,0,1,1.489,2.279,10.95,10.95,0,0,1,.689,3.68c.1,2.092.122,2.719.132,8.015s-.009,5.924-.1,8.015a11,11,0,0,1-.675,3.685,6.571,6.571,0,0,1-3.759,3.771,10.986,10.986,0,0,1-3.68.69c-2.092.1-2.719.121-8.016.13s-5.922-.01-8.015-.1M28.024,9.234A2.38,2.38,0,1,0,30.4,6.849a2.38,2.38,0,0,0-2.375,2.385M9.651,19.857A10.186,10.186,0,1,0,19.817,9.651,10.185,10.185,0,0,0,9.651,19.857m3.573-.007a6.612,6.612,0,1,1,6.624,6.6,6.612,6.612,0,0,1-6.624-6.6" transform="translate(0.326 0.326)" fill="#fff"/></g></g></svg>