<svg xmlns="http://www.w3.org/2000/svg" width="657.386" height="436.29" viewBox="0 0 657.386 436.29"><g transform="translate(-623.339 -417.273)"><path d="M12.336,0H50.115V-154.2H12.336Zm9.509-7.2V-147H40.606V-7.2Zm2.57-136.21H38.036V-144.7H24.415Zm0,5.14H38.036v-1.285H24.415Zm0,5.14H38.036v-1.285H24.415Zm0,5.14H38.036v-1.285H24.415Zm0,5.14H38.036v-1.285H24.415Zm0,5.14H38.036V-119H24.415Zm0,5.14H38.036v-1.285H24.415Zm0,5.14H38.036v-1.285H24.415Zm0,5.14H38.036v-1.285H24.415Zm0,5.14H38.036v-1.285H24.415Zm0,5.14H38.036V-93.3H24.415Zm0,5.14H38.036v-1.285H24.415Zm0,5.14H38.036v-1.285H24.415Zm0,5.14H38.036v-1.285H24.415Zm0,5.14H38.036v-1.285H24.415Z" transform="translate(1232.098 744.811) rotate(-14)" fill="#fff" opacity="0.77"/><path d="M12.384,0H50.31V-69.4l33.8,74.56H90.3l33.8-74.046V0h37.668V-154.8h-34.83L87.2-71.208,47.73-154.8H12.384ZM21.93-7.224V-147.576H41.28L83.592-57.018h7.224l42.57-90.558H152.22V-7.224H133.644v-94.17h-3.612L87.2-10.578,45.15-101.394H40.764v94.17ZM136.224-143.448H149.64v-1.29H136.224Zm-109.65,0H39.99l-.516-1.29H25.8Zm109.65,5.16H149.64v-1.29H136.224Zm-107.07,0H42.312l-.516-1.29H28.38Zm107.07,5.16H149.64v-1.29H136.224Zm-104.49,0H44.892l-.516-1.29H30.96Zm104.49,5.16H149.64v-1.29H136.224Zm-101.91,0h12.9l-.516-1.29H33.54Zm101.91,5.16H149.64v-1.29H136.224Zm-99.33,0h12.9l-.516-1.29H36.12Zm99.33,5.16H149.64v-1.29H136.224Zm-96.492,0H52.116l-.516-1.29H38.958Zm96.492,5.16H149.64v-1.29H136.224Zm-93.912,0H54.438l-.516-1.29H41.538Zm93.912,5.16H149.64v-1.29H136.224Zm-91.332,0H56.76l-.516-1.29H44.118Zm91.332,5.16H149.64v-1.29H136.224Zm-88.752,0H59.34l-.774-1.29H46.7Zm88.752,5.16H149.64V-98.3H136.224Zm-86.172,0h11.61l-.516-1.29H49.278Zm86.172,5.16H149.64v-1.29H136.224Zm-83.592,0h11.61l-.774-1.29H51.858Zm83.592,5.16H149.64v-1.29H136.224Zm-81.27,0h11.61l-.516-1.29H54.18Zm81.27,5.16H149.64v-1.29H136.224Zm-78.948,0h11.61l-.516-1.29H56.5Zm78.948,5.16H149.64v-1.29H136.224Zm-76.626,0h11.61l-.516-1.29H58.824Zm76.626,5.16H149.64V-72.5H136.224Zm-74.046,0h11.61l-.516-1.29H61.4Zm74.046,5.16H149.64v-1.29H136.224Zm-71.724,0H76.11l-.516-1.29H63.726Zm71.724,5.16H149.64v-1.29H136.224Zm-69.4,0H78.69l-.516-1.29H66.048Zm69.4,5.16H149.64v-1.29H136.224Zm-66.822,0h11.61l-.774-1.29H68.628Zm66.822,5.16H149.64v-1.29H136.224Zm-64.5,0H83.592l-.774-1.29H70.95Zm64.5,5.16H149.64V-46.7H136.224Zm-62.178,0H86.172L85.4-46.7H73.272Zm62.178,5.16H149.64v-1.29H136.224Zm-60.63-1.29.774,1.29H88.752l-.774-1.29Zm60.63,6.45H149.64v-1.29H136.224Zm-58.308-1.29.774,1.29H91.332l-.774-1.29Zm58.308,6.45H149.64v-1.29H136.224ZM80.5-31.218l.774,1.548H93.138l.516-.774-.774-.774Zm55.728,6.45H149.64v-1.29H136.224Zm-53.406-1.29.774,1.29H90.82l.774-1.29Zm53.406,6.45H149.64V-20.9H136.224ZM85.14-20.9l.774,1.29h2.58l.774-1.29Zm1.032,4.644,1.032,1.29,1.032-1.29Zm50.052,1.806H149.64v-1.29H136.224Zm0,4.9H149.64v-1.032H136.224ZM203.3,0H308.568V-32.508H241.23V-60.372h59.6V-93.4h-59.6v-27.86h64.5V-154.8H203.3Zm9.546-7.224V-147.576H296.18v19.092h-64.5v42.312h59.6V-67.6h-59.6v42.312h67.338v18.06Zm4.9-135.45H293.6v-1.29H216.462Zm5.16,5.16H293.6v-1.29H221.622Zm5.16,5.16H293.6v-1.29H226.782Zm3.612,50.826H288.7v-1.29H231.684Zm0,5.16H288.7v-1.29H231.684Zm0,5.16H288.7V-72.5H231.684Zm-4.9,50.568h69.66v-1.29H228.33Zm-5.16,5.16h74.82v-1.29h-73.53ZM216.2-10.32h80.238v-1.29H217.494Z" transform="translate(807.469 851.553) rotate(-14)" fill="#fff" opacity="0.77"/><path d="M7.392-22.946C7.392-9.24,16.632,3.08,35.728,3.08c10.626,0,17.556-3.234,27.72-12.628l2.31-2.156L82.39,3.85,97.482-10.626,80.08-26.334l16.94-16.94L82.39-56.518,65.6-39.732,53.592-50.974l1.54-1.386C62.37-58.982,67.144-65.3,67.144-73.3c0-12.628-10.626-22.176-27.1-22.176-16.17,0-26.334,10.934-26.334,23.408,0,7.7,2.464,13.4,8.624,19.558l2.156,2.156-5.7,4.774C10.934-39.27,7.392-31.724,7.392-22.946Zm5.39,0c0-7.7,2.772-13.86,9.394-19.25l9.7-8.008-5.7-5.236C21.1-60.368,19.4-65.6,19.4-72.072c0-10.164,7.854-19.25,20.636-19.25,13.09,0,21.406,7.854,21.406,18.018,0,6.622-4.312,12.474-10.626,18.326l-4.312,4L66.374-33.11,82.852-49.742l6.93,6.622L73.15-26.334,90.244-10.472l-7.854,7.7L65.6-18.326l-6,5.544c-9.086,8.47-16.17,11.55-23.87,11.55C20.328-1.232,12.782-11.55,12.782-22.946Zm18.942-66.22H40.81v-.77H34.034Zm-5.236,3.08H40.964v-.77H27.412a4.083,4.083,0,0,1-.924.77Zm-2.772,3.08H40.964v-.77H24.178ZM40.04-56.98l8.008-7.238a10.973,10.973,0,0,0,3.85-8.008c0-4.62-3.542-9.548-11.55-9.548-7.084,0-11.55,5.082-11.55,10.01a12.006,12.006,0,0,0,3.388,7.392ZM21.868-79.926H32.34l1.232-.77h-11.4C22.022-80.388,22.022-80.08,21.868-79.926Zm-1.078,3.08h8.778l.462-.77H20.944A1.674,1.674,0,0,0,20.79-76.846Zm19.4,13.4-4.158-4a6.356,6.356,0,0,1-1.848-4.312,6,6,0,0,1,6.16-5.7c4.158,0,6.006,2.772,6.006,5.236a6.647,6.647,0,0,1-2,4.774ZM20.174-73.766h8.008c.154-.154.154-.462.308-.77H20.328A6.67,6.67,0,0,1,20.174-73.766Zm0,3.08h7.854v-.77H20.174Zm.308,3.08h8.47c-.154-.154-.154-.462-.308-.77H20.328a1.674,1.674,0,0,1,.154.77Zm.924,3.08h9.548l-.616-.77H21.1a1.176,1.176,0,0,0,.306.77Zm1.232,3.08h11.55l-.77-.77H22.33a1.176,1.176,0,0,0,.308.77Zm2,3.08H37.576l-.924-.77H24.024Zm2.618,3.08H41.58l-1.232-.77H26.488Zm3.388,3.08H44.5l-.924-.77H29.722Zm.77,3.08h11.55l1.078-.77H32.34Zm48.818,3.08h5.544l-.77-.77H81Zm-52.514,0h11.86l1.078-.77H28.644Zm-.154,31.262a13.774,13.774,0,0,0,9.394,3.7,17.684,17.684,0,0,0,12.474-5.7l8.624-8.778L38.346-43.89l-9.24,8.47c-4.158,3.85-5.852,7.546-5.852,11.242a13.118,13.118,0,0,0,4.312,9.394Zm49.59-28.182h11.4l.154-.154-.616-.616H77.924Zm-53.13,0h12.32l.77-.77H24.948Zm50.2,3.08H85.47l.77-.77H75Zm-53.592,0h12.32l.924-.77H21.406Zm50.512,3.08H82.39l.77-.77H71.918Zm-53.13,0h11.55l.924-.77H18.48Zm13.4,18.634A9.867,9.867,0,0,1,28.8-24.486a11.3,11.3,0,0,1,3.85-8.008l5.544-4.774L50.82-25.41l-4.774,4.928c-2.464,2.464-4.774,4.774-9.086,4.774a7.888,7.888,0,0,1-5.544-2.464ZM68.068-33.726h11.4l.77-.77h-11.4Zm-52.052,0H26.488l.616-.77H16.478ZM67.3-31.416l.924.77h8.162l.77-.77Zm-52.514.77H24.18l.616-.77H15.1c-.158.308-.312.462-.312.77Zm56.056,2.31.924.77H73.3l.77-.77Zm-56.826.77h8.932a1.154,1.154,0,0,0,.154-.77H14.014Zm-.462,3.08h8.932v-.77H13.552Zm44.506,0h1.386l-.77-.616Zm-3.08,3.08h7.238l-.924-.77H55.748Zm-41.426,0h9.24a1.154,1.154,0,0,1-.154-.77H13.552Zm38.5,3.08H64.526l.924-.77H52.822Zm-38.192,0H24.024l-.462-.77h-9.7Zm35.112,3.08h12.32l.77-.77H49.742a1.856,1.856,0,0,1-.77.77Zm-34.188,0h11.4a1.537,1.537,0,0,1-.616-.77H14.476c.154.308.154.616.308.77Zm29.568,3.08H57.9a4.083,4.083,0,0,0,.924-.77H45.892a4.817,4.817,0,0,1-1.54.77Zm-28.182,0H30.03a3.353,3.353,0,0,1-1.232-.77H15.708Zm1.386,2.31.616.77H54.208a4.083,4.083,0,0,0,.924-.77Zm2.926,3.08,1.078.77h28.18a6.242,6.242,0,0,0,1.386-.77ZM25.718-3.7a7.736,7.736,0,0,0,2,.77H42.966a13.552,13.552,0,0,0,2.31-.77Z" transform="translate(1127.985 769.402) rotate(-14)" fill="#fff" opacity="0.5"/><path d="M11.61-45.408C11.61-17.544,30.7,5.16,64.5,5.16c29.154,0,52.374-22.7,52.374-50.052,0-24.252-12.9-39.732-40.506-47.988C63.21-96.75,49.02-98.814,49.02-110.424c0-10.062,8-14.964,16.254-14.964,10.578,0,16,7.224,16,16h35.6C114.81-138.03,98.556-159.96,64.242-159.96c-29.154,0-52.632,22.7-52.632,50.052,0,26.574,14.448,38.7,40.506,47.988C64.758-57.534,79.98-54.18,79.98-42.57c0,8-5.934,13.416-15.48,13.416a16.133,16.133,0,0,1-16-16.254Zm9.03,7.224H40.764c2.322,8.514,10.578,16,23.736,16.254,12.126,0,23.994-6.966,23.994-20.64,0-16.77-17.8-20.64-32.508-26.058-28.38-10.062-35.6-22.188-35.6-41.28,0-23.478,20.124-42.828,44.118-42.828,30.186,0,41.538,20.9,43.086,36.12H88.236c-2.322-6.45-7.74-16-23.736-16-13.932,0-23.994,8.772-23.994,22.188,0,15.222,13.158,18.834,28.38,23.22C92.622-80.5,108.1-70.95,108.1-44.892c0,23.478-19.608,42.828-43.6,42.828-24.51,0-43.344-16.77-43.86-36.12ZM52.89-148.35H64.5v-1.29H59.082ZM41.8-143.19H64.5v-1.29H43.86Zm-7.224,5.418H64.5v-1.29H36.12Zm-4.386,5.16h20.9l2.838-1.29h-22.7Zm-3.1,5.418H43.86l1.806-1.548h-17.8Zm-2.064,5.16H40.248l.774-1.29H25.284Zm-1.548,5.418H38.442l.516-1.548H23.994Zm-.516,5.16H37.926v-1.29H22.962Zm0,5.16H38.184l-.258-1.29H22.962Zm.774,5.418H39.474l-.516-1.29H23.478Zm1.29,5.16H43.344L41.8-97.266l.258.258H24.768Zm3.1,5.418H50.31l-2.064-1.29h-20.9Zm4.644,5.16H66.048l-4.9-1.29H31.476Zm7.482,5.418H81.786l-3.87-1.548H37.41Zm7.224,3.87,2.064,1.29H90.558l-1.548-1.29Zm10.578,5.16,3.87,1.548H97.266l-1.29-1.548Zm14.964,5.418,2.838,1.29h25.026l-.516-1.29Zm9.8,5.16,1.548,1.29H103.2l-.516-1.29Zm5.418,6.708h16.77l-.516-1.29H87.462Zm2.064,5.16h14.964v-1.29H90.042Zm.774,5.418h14.19l.258-1.29H91.074Zm-.516,5.16h14.19l.258-1.29H90.816ZM88.752-32.25H103.2l.516-1.548H89.526Zm-3.87,5.16H100.62l.774-1.29H86.172Zm-7.74,5.418H97.524l.258-.516.774-1.032H80.238ZM64.5-16.512H92.622l1.29-1.29H64.5Zm0,5.16H85.914l1.806-1.29H64.5Zm0,5.418h8.256l4.9-1.29H64.5ZM155.832,0h37.926V-154.8H155.832Zm9.546-7.224V-147.576h18.834V-7.224Zm2.58-136.74h13.674v-1.29H167.958Zm0,5.16h13.674v-1.29H167.958Zm0,5.16h13.674v-1.29H167.958Zm0,5.16h13.674v-1.29H167.958Zm0,5.16h13.674v-1.29H167.958Zm0,5.16h13.674v-1.29H167.958Zm0,5.16h13.674v-1.29H167.958Zm0,5.16h13.674v-1.29H167.958Zm0,5.16h13.674v-1.29H167.958Zm0,5.16h13.674v-1.29H167.958Zm0,5.16h13.674v-1.29H167.958Zm0,5.16h13.674v-1.29H167.958Zm0,5.16h13.674v-1.29H167.958Zm0,5.16h13.674v-1.29H167.958Zm0,5.16h13.674v-1.29H167.958ZM234.78,0h37.926V-91.848L333.078,0h39.474V-154.8H334.884v91.848L274.77-154.8H234.78Zm9.546-7.224V-147.576h24.51l70.95,107.844h4.644V-147.576h18.576V-7.224H339.012L267.03-116.358h-3.87V-7.224Zm7.482-136.224H268.32l-1.032-1.29H251.034Zm3.612,5.16h16.254l-1.032-1.29h-16Zm3.354,5.16h16.254L274-134.418H258Zm3.612,5.16h16l-1.032-1.29H261.612Zm3.354,5.16h16L280.7-124.1H264.966Zm3.612,5.16H285.09l-1.032-1.29h-15.48Zm3.354,5.16h16l-1.032-1.29H271.932Zm3.354,5.16h16l-1.032-1.29H275.286Zm3.612,5.16H295.41l-1.032-1.29H278.9Zm3.354,5.16h15.738l-1.032-1.29h-15.48Zm3.354,5.16h15.738l-1.032-1.29h-15.48Zm3.354,5.16h16l-1.032-1.29H288.96Zm3.354,5.16h16l-1.032-1.29H292.314Zm3.354,5.16h16l-1.032-1.29H295.668Zm3.612,5.16h15.738L314.76-72.5H299.28Zm3.354,5.16h15.738l-1.032-1.29h-15.48Zm3.354,5.16H322.5l-1.032-1.29h-15.48Zm3.354,5.16h16l-1.032-1.29H309.342Zm2.58,3.87.774,1.29h16l-1.032-1.29Zm3.612,5.16.774,1.29H332.82l-1.032-1.29Zm3.354,5.16.774,1.29h15.738l-1.032-1.29Zm3.354,5.16.774,1.29h16.254l-1.032-1.29Zm3.354,5.16.774,1.29h16.77l-1.29-1.29Zm3.354,5.16.774,1.29h17.286l-1.29-1.29Zm3.354,5.16.774,1.29H351.4l-1.032-1.29Zm3.612,5.16.774,1.29h18.06l-1.29-1.29Zm2.838,4.644L340.3-9.8h18.834l-1.29-1.29Z" transform="translate(650.771 707.492) rotate(-14)" fill="#fff" opacity="0.77"/><path d="M11.61-77.4c0,46.182,34.83,82.56,83.85,82.56,56.244,0,83.076-38.184,83.076-83.85V-93.4H93.4v32.77h44.118C136.482-45.666,123.324-30.7,96.234-30.7c-25.8,0-46.182-18.06-46.182-46.7,0-26.058,17.8-46.7,45.408-46.7,14.706,0,27.864,5.934,38.442,15.48l26.316-24.252c-16.254-16.512-36.12-27.09-64.758-27.09C46.44-159.96,11.61-123.582,11.61-77.4Zm9.546,0c0-42.054,31.218-75.336,74.3-75.336,22.188,0,39.474,6.708,52.89,19.35l-14.964,14.448c-10.836-7.482-24.252-12.384-37.926-12.384-33.282,0-55.212,23.736-55.212,53.922S62.178-23.478,95.46-23.478c36.378,0,52.116-23.22,52.374-44.376H102.942V-86.172H168.99v9.03c0,42.828-23.736,75.078-73.53,75.078-43.086,0-74.3-33.282-74.3-75.336Zm3.87-14.706h14.19l.516-1.29H25.284Zm-.774,5.16H38.184l.516-1.29H24.51Zm82.044,5.16h59.6v-1.29H106.3Zm-82.56,0H37.668l.258-1.29H23.994Zm82.56,5.16h59.6v-1.29H106.3Zm-82.56,0H37.668v-1.29H23.736Zm82.56,5.16h59.6v-1.29H106.3Zm-82.3,0h13.93l-.258-1.29H23.736Zm126.936,5.16h14.19V-67.6H151.188Zm-126.42,0H38.7l-.516-1.29H24.252Zm125.646,5.16h14.19l.258-1.29H150.672Zm-124.614,0h14.19l-.516-1.29H25.026Zm123.84,5.16h13.932l.516-1.29H149.64Zm-122.808,0h14.7l-.516-1.29H26.316Zm120.744,5.16h14.706l.516-1.29H147.834Zm-119.2,0H43.6l-.774-1.29H27.864Zm116.616,5.16h15.738l.774-1.29H145.77Zm-114.294,0H46.7l-1.032-1.29h-16Zm111.2,5.16h16.512l.774-1.29h-16Zm-108.618,0H50.568l-1.29-1.29H32.25Zm104.232,5.16h18.318l1.032-1.29h-18.06Zm-101.136,0H55.212l-1.29-1.29H35.346Zm94.686,5.16h21.93l1.032-1.29h-20.9Zm-90.816,0H61.4l-1.548-1.29H39.216Zm80.5,5.16h28.122l1.29-1.29H123.066ZM43.6-26.316l1.29,1.29H71.466l-2.58-1.29Zm5.934,5.16,1.548,1.29h91.59l1.548-1.29h-40.5a66.658,66.658,0,0,1-8.256.516,79.385,79.385,0,0,1-8.514-.516ZM56.76-16l1.806,1.29h77.4L137.772-16Zm9.03,5.16,3.354,1.29h55.728l3.354-1.29ZM83.334-5.68A89.86,89.86,0,0,0,95.46-4.9c6.45,0,9.8-.258,11.868-.774Z" transform="translate(1026.788 615.676) rotate(-14)" fill="#fff" opacity="0.5"/></g></svg>