<svg xmlns="http://www.w3.org/2000/svg" xmlns:xlink="http://www.w3.org/1999/xlink" width="197.066" height="86.066" viewBox="0 0 197.066 86.066"><defs><clipPath id="a"><rect width="86.066" height="86.066" fill="none"/></clipPath></defs><g transform="translate(-89 -4431)"><g transform="translate(89 4431)"><rect width="86.066" height="86.066" transform="translate(0 0)" fill="#f68e00"/><g transform="translate(0 0)"><g clip-path="url(#a)"><path d="M5.148,7.295a13.812,13.812,0,0,1-1.3.506c-.567.19-.925.318-1.075.386V5.856a13.167,13.167,0,0,0,1.671-.811,5.6,5.6,0,0,0,1.389-.992H8.289V20.465H5.148Z" transform="translate(2.351 3.432)" fill="#fff"/><path d="M8.868,7.295a13.812,13.812,0,0,1-1.3.506c-.567.19-.925.318-1.075.386V5.856a13.167,13.167,0,0,0,1.671-.811,5.6,5.6,0,0,0,1.389-.992h2.452V20.465H8.868Z" transform="translate(5.501 3.432)" fill="#fff"/><path d="M8.094,39.71H21.1a.321.321,0,0,0,.319-.319.313.313,0,0,0-.085-.212l-.017-.018-6.471-8.373-.065-.07a.313.313,0,0,0-.443-.022l-.041.046-.059.068L7.926,39.093l-.1.118a.312.312,0,0,0-.055.179.321.321,0,0,0,.319.319" transform="translate(6.583 25.918)" fill="#fff"/><path d="M21.091,36.178H8.059a.32.32,0,0,0-.319.319v10.2a.321.321,0,0,0,.319.321h4.2V40.6a.318.318,0,0,1,.318-.319h3.895a.318.318,0,0,1,.318.319v6.417h4.306a.321.321,0,0,0,.319-.321V36.5a.32.32,0,0,0-.319-.319" transform="translate(6.553 30.629)" fill="#fff"/><path d="M45.417,34.732H32.52a.31.31,0,0,0-.316.307V48.063a.31.31,0,0,0,.316.307h12.9a.31.31,0,0,0,.316-.307V35.039a.31.31,0,0,0-.316-.307m-7.056,8.5a.312.312,0,0,1-.316.308H34.193a.313.313,0,0,1-.318-.308V40.894a.312.312,0,0,1,.318-.308h3.852a.311.311,0,0,1,.316.308Zm0-4.329a.312.312,0,0,1-.316.308H34.193a.313.313,0,0,1-.318-.308V36.564a.313.313,0,0,1,.318-.307h3.852a.311.311,0,0,1,.316.307Zm5.889,4.329a.312.312,0,0,1-.316.308H40.082a.312.312,0,0,1-.316-.308V40.894a.311.311,0,0,1,.316-.308h3.852a.311.311,0,0,1,.316.308Zm0-4.329a.312.312,0,0,1-.316.308H40.082a.312.312,0,0,1-.316-.308V36.564a.311.311,0,0,1,.316-.307h3.852a.311.311,0,0,1,.316.307Z" transform="translate(27.265 29.405)" fill="#fff"/><path d="M29.051,18.362H16.429a.308.308,0,0,0-.308.308V61.808a.309.309,0,0,0,.308.308H29.051a.312.312,0,0,0,.31-.308V18.67a.311.311,0,0,0-.31-.308M21.543,57.2a.168.168,0,0,1-.166.166h-2.89a.168.168,0,0,1-.166-.166V53.982a.165.165,0,0,1,.166-.164h2.89a.165.165,0,0,1,.166.164Zm0-7.4a.166.166,0,0,1-.166.166h-2.89a.166.166,0,0,1-.166-.166V46.586a.166.166,0,0,1,.166-.166h2.89a.166.166,0,0,1,.166.166Zm0-7.4a.167.167,0,0,1-.166.166h-2.89a.167.167,0,0,1-.166-.166V39.188a.167.167,0,0,1,.166-.166h2.89a.167.167,0,0,1,.166.166Zm0-7.4a.166.166,0,0,1-.166.164h-2.89a.166.166,0,0,1-.166-.164V31.791a.166.166,0,0,1,.166-.164h2.89a.166.166,0,0,1,.166.164Zm0-7.4a.166.166,0,0,1-.166.164h-2.89a.166.166,0,0,1-.166-.164V24.395a.165.165,0,0,1,.166-.164h2.89a.165.165,0,0,1,.166.164ZM27.21,57.2a.167.167,0,0,1-.166.166h-2.89a.167.167,0,0,1-.166-.166V53.982a.164.164,0,0,1,.166-.164h2.89a.164.164,0,0,1,.166.164Zm0-7.4a.164.164,0,0,1-.166.166h-2.89a.164.164,0,0,1-.166-.166V46.586a.164.164,0,0,1,.166-.166h2.89a.164.164,0,0,1,.166.166Zm0-7.4a.166.166,0,0,1-.166.166h-2.89a.166.166,0,0,1-.166-.166V39.188a.166.166,0,0,1,.166-.166h2.89a.166.166,0,0,1,.166.166Zm0-7.4a.165.165,0,0,1-.166.164h-2.89a.165.165,0,0,1-.166-.164V31.791a.165.165,0,0,1,.166-.164h2.89a.165.165,0,0,1,.166.164Zm0-7.4a.165.165,0,0,1-.166.164h-2.89a.165.165,0,0,1-.166-.164V24.395a.164.164,0,0,1,.166-.164h2.89a.164.164,0,0,1,.166.164Z" transform="translate(13.649 15.546)" fill="#fff"/><path d="M.141,0H13.36A.141.141,0,0,1,13.5.141V2.975a.14.14,0,0,1-.14.14H.14A.14.14,0,0,1,0,2.975V.141A.141.141,0,0,1,.141,0Z" transform="translate(59.482 59.972)" fill="#fff"/><path d="M37.43,22.882a.331.331,0,0,0-.318-.24.32.32,0,0,0-.179.059l-.024.017-.107.133L24.4,38.588l-.057.078a.364.364,0,0,0-.107.246V58.249a.308.308,0,0,0,.31.307H37.151a.306.306,0,0,0,.308-.307V23.011a.3.3,0,0,0-.03-.129M32.208,31.43l.089-.113c.849-1.09,2.279-2.849,2.977-3.7l.09-.109a.356.356,0,0,1,.277-.131.352.352,0,0,1,.345.288v3.981a.357.357,0,0,1-.343.355l-.015,0-.017,0h-3.1L32.5,32l-.015,0a.357.357,0,0,1-.343-.355.353.353,0,0,1,.07-.212M30.245,53.468a.308.308,0,0,1-.308.308H26.175a.308.308,0,0,1-.31-.308V51.114a.308.308,0,0,1,.31-.307h3.762a.307.307,0,0,1,.308.307Zm0-4.351a.308.308,0,0,1-.308.308H26.175a.308.308,0,0,1-.31-.308V46.763a.308.308,0,0,1,.31-.308h3.762a.308.308,0,0,1,.308.308Zm0-4.351a.309.309,0,0,1-.308.308H26.175a.309.309,0,0,1-.31-.308V42.41a.309.309,0,0,1,.31-.308h3.762a.309.309,0,0,1,.308.308Zm.011-9.534V40.42a.309.309,0,0,1-.31.308h-3.76a.308.308,0,0,1-.31-.308v-.654a.332.332,0,0,1,.022-.114.184.184,0,0,1,.02-.035.325.325,0,0,1,.026-.042l.035-.05c.482-.689,2.652-3.361,3.562-4.478l.092-.111a.362.362,0,0,1,.277-.131.356.356,0,0,1,.345.288ZM36,53.468a.309.309,0,0,1-.308.308H31.925a.308.308,0,0,1-.31-.308V51.114a.308.308,0,0,1,.31-.307h3.762a.309.309,0,0,1,.308.307Zm0-4.351a.309.309,0,0,1-.308.308H31.925a.308.308,0,0,1-.31-.308V46.763a.308.308,0,0,1,.31-.308h3.762a.309.309,0,0,1,.308.308Zm0-4.351a.31.31,0,0,1-.308.308H31.925a.309.309,0,0,1-.31-.308V42.41a.309.309,0,0,1,.31-.308h3.762A.31.31,0,0,1,36,42.41Zm0-4.351a.309.309,0,0,1-.308.307H31.925a.308.308,0,0,1-.31-.307V38.06a.309.309,0,0,1,.31-.308h3.762A.31.31,0,0,1,36,38.06Zm0-4.353a.309.309,0,0,1-.308.308H31.925a.308.308,0,0,1-.31-.308V33.709a.31.31,0,0,1,.31-.31h3.762a.311.311,0,0,1,.308.31Z" transform="translate(20.516 19.169)" fill="#fff"/><path d="M15.4,4.6c-.166.473-.36.921-.563,1.372v4.7h-.715V7.183a3.409,3.409,0,0,1-.473.672l-.467-.547a7.845,7.845,0,0,0,1.5-3.278l.814.355a.1.1,0,0,1,.065.089c0,.081-.114.118-.164.126m-.2,5.876V9.841h1.579V8.277H15.517V7.634h1.269V6.29H15.327V5.6h3.69V6.29h-1.49V7.634h1.294v.643H17.527V9.841h1.649v.635Zm2.022-4.908a7.253,7.253,0,0,0-1.169-.938l.5-.62c.209.155.412.34.609.517a6.056,6.056,0,0,1,.512.488Z" transform="translate(11.165 3.394)" fill="#fff"/><path d="M22.145,9.056a9.35,9.35,0,0,0-.859-.613,3.769,3.769,0,0,1-1.3,1.8l-.657-.421a3.089,3.089,0,0,0,1.289-1.712,4.756,4.756,0,0,0-1.182-.428,7.644,7.644,0,0,1-.3.739c-.271.589-.613,1.189-1.258,1.189a1,1,0,0,1-.9-1.108A1.553,1.553,0,0,1,18.14,7a2.714,2.714,0,0,1,.77-.066,11.2,11.2,0,0,0,.462-1.749l-1.346.229-.146-.849h.07A9.186,9.186,0,0,0,20.081,4.3a4.1,4.1,0,0,0,.308.34c-.133.451-.279.894-.417,1.344-.107.34-.209.678-.329,1.012a4.74,4.74,0,0,1,1.182.367,6.464,6.464,0,0,0,.209-1.475c.253.17.5.332.744.515a7.8,7.8,0,0,1-.233,1.285,7.715,7.715,0,0,1,.958.539c-.113.273-.231.554-.358.827m-4.46-.591c0,.185.068.347.238.347a.329.329,0,0,0,.268-.133,3.917,3.917,0,0,0,.51-1.086c-.443.037-1.016.253-1.016.872" transform="translate(14.368 3.641)" fill="#fff"/><path d="M21.494,8.594a7.668,7.668,0,0,1-.428,1.723l-.543-.292a7.593,7.593,0,0,0,.4-1.869l.609.257a.079.079,0,0,1,.042.072.118.118,0,0,1-.085.109M25.5,8.28V7.569h-2.02V8.3h-.613V7.787l-.445.2c-.022-.079-.048-.166-.066-.247l-.114.022v2.916h-.635V7.831c-.3.02-.606.055-.9.094L20.621,7.3a1.449,1.449,0,0,0,.307-.037.261.261,0,0,0,.164-.124c.164-.218.3-.458.452-.689a7.14,7.14,0,0,0-.813-.351V5.772a7.774,7.774,0,0,0,1.038-1.767l.659.364c.048.03.133.066.133.144,0,.126-.114.126-.188.118-.286.371-.567.748-.879,1.1.116.074.238.133.355.212.114-.19.225-.386.336-.582l.574.406a.126.126,0,0,1,.061.1c0,.1-.1.094-.159.094-.331.436-.643.886-.99,1.3a4.787,4.787,0,0,0,.537-.042,3.359,3.359,0,0,0-.122-.371l.489-.2c.109.342.194.692.29,1.042V6.987h3.317V8.28ZM22.588,9.646c-.092-.4-.172-.805-.238-1.213l.471-.2c.072.408.151.82.249,1.221Zm1.747-1.511a5.077,5.077,0,0,1-.2,1.206,2.64,2.64,0,0,1-1.058,1.433l-.548-.451c.94-.589,1.093-1.3,1.13-2.493l.659.122a.092.092,0,0,1,.085.089.121.121,0,0,1-.072.094m.427-2.609v.523h1.123v.589H23.02V6.049h1.047V5.517H22.735V4.886h1.324V4.042l.709.057a.093.093,0,0,1,.1.089.138.138,0,0,1-.1.116v.582h1.378v.641Zm1.6,4.9a2.237,2.237,0,0,1-1.075.27c-.451,0-.744-.255-.744-.822V7.831l.646.072c.037.007.1.022.1.079a.125.125,0,0,1-.085.1v1.5c0,.355.042.449.353.449a1.7,1.7,0,0,0,.855-.4Z" transform="translate(17.376 3.39)" fill="#fff"/><path d="M25.547,9.853c-.209.033-.423.057-.633.078a7.373,7.373,0,0,1-.439-2.724A14.686,14.686,0,0,1,24.8,4.414c.187.044.382.1.572.15a1.55,1.55,0,0,1,.244.074c.039.017.078.031.078.079a.135.135,0,0,1-.109.113,11.5,11.5,0,0,0-.366,2.958,3.888,3.888,0,0,0,.063.923c.126-.356.249-.72.375-1.077a6.373,6.373,0,0,0,.452.578,6.848,6.848,0,0,0-.558,1.64m3.115-3.1c0,.321,0,.643-.009.964a5.86,5.86,0,0,1-.135,1.193,2.668,2.668,0,0,1-.923,1.546c-.229-.135-.452-.281-.689-.39a2.851,2.851,0,0,0,1-2.4c.011-.294.009-.585.007-.881a9.782,9.782,0,0,1-1.139.03c-.118,0-.24-.015-.358-.02-.03-.26-.044-.517-.065-.776a8.121,8.121,0,0,0,.816.074c.24.009.475.009.715,0,0-.406-.031-.809-.048-1.21-.011-.214-.028-.44-.057-.661.2.037.4.059.6.087a.958.958,0,0,1,.251.046c.042.007.089.03.085.089a.133.133,0,0,1-.085.105c0,.484.026.973.028,1.459a4.418,4.418,0,0,0,1.128-.266c.007.273-.017.552-.007.824a6.447,6.447,0,0,1-1.114.2" transform="translate(20.72 3.568)" fill="#fff"/><path d="M29.995,10.546c-.127.037-.253.065-.386.092-.061-.111-.4-.632-.4-.632,0-.022.026-.03.037-.03a4.055,4.055,0,0,0,.94-.27,1.345,1.345,0,0,0,.936-1.191.767.767,0,0,0-.779-.888c-.737-.009-1.411.787-1.655,1.551-.209-.039-.423-.087-.632-.118A8.49,8.49,0,0,1,28,7.939a14.357,14.357,0,0,1,.257-2.4l.731.222a.089.089,0,0,1,.074.089.147.147,0,0,1-.1.118,9.086,9.086,0,0,0-.244,1.791,2.351,2.351,0,0,1,1.836-.879,1.44,1.44,0,0,1,1.405,1.533c-.017,1.343-.99,1.854-1.969,2.129m.364-4.757a6.208,6.208,0,0,0-1.324-1.211c.166-.19.321-.388.488-.578a4.678,4.678,0,0,1,1.413,1.191c-.2.2-.386.4-.576.6" transform="translate(23.706 3.386)" fill="#fff"/><path d="M35.253,9.895c-.569,0-.822-.428-.822-1.056,0-.657.1-1.306.146-1.963.007-.1.007-.2.007-.3,0-.14-.02-.273-.172-.273-.366,0-1.245.849-1.453,1.2,0,.936.011,1.9.052,2.835l-.777.087c0-.774.006-1.564.006-2.345-.279.473-.574.921-.859,1.379-.2-.207-.367-.443-.556-.665A11.922,11.922,0,0,0,32.2,6.676V6.321c-.355.066-.7.163-1.051.222-.044-.251-.081-.5-.138-.746A6.252,6.252,0,0,0,32.182,5.6c0-.51-.018-1.019-.039-1.52a4.5,4.5,0,0,1,.805.087.1.1,0,0,1,.081.105.08.08,0,0,1-.052.081c-.018.36-.039.715-.042,1.069.113-.03.22-.081.334-.118.044.192.081.384.126.569-.113.14-.214.294-.321.451l.013.022A2.447,2.447,0,0,1,34.7,5.479c.425,0,.657.4.657.864a9.889,9.889,0,0,1-.074,1.114c-.046.393-.1.783-.109,1.182v.024c-.007.163.013.4.2.4.393,0,.652-.635.809-.99.094.34.19.68.279,1.021a1.4,1.4,0,0,1-1.208.8" transform="translate(26.098 3.458)" fill="#fff"/><path d="M36.954,10.443c-.524,0-1.37-.223-1.37-1.025a.862.862,0,0,1,.91-.835.935.935,0,0,1,.87.689,1.682,1.682,0,0,1,.063.421,1.16,1.16,0,0,0,.811-1.132,1.062,1.062,0,0,0-1.106-1.173c-.955,0-1.505.912-2.1,1.669-.194-.209-.39-.414-.587-.619a16.158,16.158,0,0,0,2.4-3.232c-.5.124-1.01.223-1.516.329l-.138-.9a1.85,1.85,0,0,0,.2.007,6.021,6.021,0,0,0,.84-.078,9.968,9.968,0,0,0,1.158-.214,4.139,4.139,0,0,0,.4-.129c.146.2.292.4.436.611a2.335,2.335,0,0,0-.19.168c-.144.153-.283.345-.41.512-.3.415-.585.844-.877,1.265a2.126,2.126,0,0,1,.582-.068A1.6,1.6,0,0,1,39,8.429a1.9,1.9,0,0,1-2.048,2.015M36.416,9.2c-.12,0-.2.054-.2.207,0,.283.36.321.524.321-.031-.222-.1-.528-.329-.528" transform="translate(29.162 3.574)" fill="#fff"/><path d="M18.014,15.129a7.47,7.47,0,0,0-1.429-.855,1.113,1.113,0,0,1-.355.975,1.6,1.6,0,0,1-.864.283c-.628-.009-1.577-.223-1.562-1.16A1.13,1.13,0,0,1,14.849,13.3a2.829,2.829,0,0,1,.5-.013,2.858,2.858,0,0,1,.44.042c0-.236-.011-.473-.02-.7-.209.011-.423.017-.637.013-.488-.007-1.171-.054-1.158-.814a1.41,1.41,0,0,1,.161-.611l.678-.033a1.713,1.713,0,0,0-.146.506c0,.236.26.24.4.244a4.42,4.42,0,0,0,.683-.02c-.02-.355-.02-.716-.022-1.071a15.857,15.857,0,0,0-2.131.168c-.041-.26-.068-.517-.1-.777.739-.048,1.479-.089,2.22-.107,0-.229,0-.458,0-.694l0-.318c.177.026.355.042.53.066.089.017.188.018.279.042.031.009.07.022.068.076a.124.124,0,0,1-.083.109c-.018.229-.02.451-.024.68.563-.022,1.125-.035,1.688-.044l0,.755c-.563-.009-1.126-.018-1.68,0-.007.364,0,.716.007,1.078a7.251,7.251,0,0,0,1.616-.316l-.044.842c-.519.079-1.032.146-1.551.183,0,.3.011.613.026.916a7.378,7.378,0,0,1,1.895.907c-.144.242-.288.484-.434.718m-2.2-1.075a1.4,1.4,0,0,0-.561-.12c-.227,0-.665.087-.67.434s.41.451.639.452c.353.006.589-.161.6-.6,0-.052-.006-.111,0-.163" transform="translate(11.429 7.715)" fill="#fff"/><path d="M20.8,14.894A3.536,3.536,0,0,1,19,15.6c-.135-.235-.242-.486-.388-.715.709-.066,2-.3,2-1.389a.747.747,0,0,0-.827-.761,1.89,1.89,0,0,0-1.114.452,2.685,2.685,0,0,0-.657.944l-.7-.375a6.105,6.105,0,0,0,.846-2.534c-.247.015-.486.022-.733.022h-.512c-.018-.273-.052-.539-.057-.811a8.048,8.048,0,0,0,.923.057c.15,0,.3,0,.454-.007a13.1,13.1,0,0,0,.07-1.4c.188.028.379.05.569.079a1.959,1.959,0,0,1,.253.044c.044.015.094.039.094.105a.184.184,0,0,1-.114.146c-.026.327-.044.65-.087.968a9.62,9.62,0,0,0,1.926-.384l-.013.864a17.277,17.277,0,0,1-2.033.273,9.552,9.552,0,0,1-.3,1.3,2.366,2.366,0,0,1,1.376-.4,1.358,1.358,0,0,1,1.409,1.49,1.75,1.75,0,0,1-.587,1.322" transform="translate(14.27 7.691)" fill="#fff"/><path d="M24.625,14.455a4.476,4.476,0,0,1-2.417,1.019c-.19-.244-.367-.495-.563-.716A7.035,7.035,0,0,0,23.1,14.42a1.793,1.793,0,0,0,1.378-1.728c0-.973-.5-1.3-1.243-1.3a5.636,5.636,0,0,0-2.173.724,5.265,5.265,0,0,1-.814.288c-.031-.105-.307-.944-.307-.966,0-.076.079-.052.116-.052a5.078,5.078,0,0,0,1.549-.393,5.8,5.8,0,0,1,1.848-.4A1.846,1.846,0,0,1,25.3,12.618a2.437,2.437,0,0,1-.674,1.837m-.772-4.066a7.508,7.508,0,0,0-.635-.9l.476-.281a5.614,5.614,0,0,1,.613.892Zm.864-.238a6.6,6.6,0,0,0-.648-.958l.489-.273a5.483,5.483,0,0,1,.606.936Z" transform="translate(16.884 7.551)" fill="#fff"/><path d="M26.563,15.426a11.828,11.828,0,0,0-1.85-2.089,5.7,5.7,0,0,0-.536-.467,1.551,1.551,0,0,1-.308-.273.627.627,0,0,1-.114-.388.813.813,0,0,1,.283-.609c.3-.318.6-.611.89-.934.43-.489.866-.977,1.285-1.494.179.151.356.294.534.445a1.3,1.3,0,0,1,.2.172.1.1,0,0,1,.03.065c0,.1-.135.116-.2.1-.4.39-.824.77-1.235,1.165-.172.164-.331.343-.5.51-.079.079-.172.15-.246.236a.46.46,0,0,0-.148.286.275.275,0,0,0,.111.216c.259.246.547.454.813.683a12.448,12.448,0,0,1,1.632,1.76c-.214.2-.423.415-.637.617" transform="translate(20.111 7.764)" fill="#fff"/><path d="M27.562,13.45c-.216-.015-.436-.039-.646-.059a4.909,4.909,0,0,1-.251-1.675c.028-.8.161-1.59.257-2.378.188.03.384.066.576.1.066.017.159.02.227.044.03.017.054.031.052.078a.156.156,0,0,1-.078.109,10.222,10.222,0,0,0-.314,2.109c-.006.148,0,.3,0,.443,0,.013-.007.052.017.054s.033-.059.039-.065c.09-.236.183-.46.277-.687l.356.532a6.5,6.5,0,0,0-.515,1.4m2.5-3.806c-.006.864-.013,1.751-.042,2.622-.048,1.389-.345,2.681-1.472,3.318a3.565,3.565,0,0,0-.661-.4c-.017-.007-.037-.007-.035-.039s.031-.05.052-.065a2.493,2.493,0,0,0,.43-.281,3.376,3.376,0,0,0,.925-2.589c.033-.975,0-1.967-.066-2.938a5,5,0,0,1,.578.081,2.361,2.361,0,0,1,.307.054.074.074,0,0,1,.057.085.271.271,0,0,1-.072.151" transform="translate(22.574 7.851)" fill="#fff"/><path d="M34.189,12.437A.142.142,0,0,1,34.1,12.4c-.428.155-1.252.5-1.645.7v1.138l-.7-.007c.007-.1.007-.214.007-.338v-.415c-.475.236-.713.539-.713.879,0,.3.271.452.813.452a4.963,4.963,0,0,0,1.728-.3l-.024.864a4.557,4.557,0,0,1-1.49.214c-1.165,0-1.745-.391-1.745-1.184a1.505,1.505,0,0,1,.486-1.064,4.193,4.193,0,0,1,.9-.635c-.011-.332-.107-.5-.279-.5a.839.839,0,0,0-.611.281,5.716,5.716,0,0,0-.458.5c-.218.259-.356.436-.44.524-.105-.133-.271-.332-.493-.606a5.3,5.3,0,0,0,1.5-2.005c-.316.044-.667.074-1.047.1-.024-.281-.057-.541-.094-.768a9.69,9.69,0,0,0,1.361-.074,6.761,6.761,0,0,0,.2-1.021l.8.19a.091.091,0,0,1,.072.09c0,.042-.031.081-.094.111-.031.126-.085.318-.161.569a8.773,8.773,0,0,0,1.11-.273l-.066.814c-.327.074-.766.148-1.311.227a4.677,4.677,0,0,1-.367.742,1.124,1.124,0,0,1,.338-.052c.362,0,.6.257.705.79.476-.266,1.016-.539,1.6-.82l.271.827c0,.061-.022.089-.07.089" transform="translate(24.923 7.731)" fill="#fff"/></g></g></g><g transform="translate(200 4431)"><rect width="86.066" height="86.066" transform="translate(0 0)" fill="#cd7d00"/><g transform="translate(0 0)"><g clip-path="url(#a)"><path d="M5.084,7.295a13.812,13.812,0,0,1-1.3.506c-.567.19-.925.318-1.075.386V5.856a13.167,13.167,0,0,0,1.671-.811,5.6,5.6,0,0,0,1.389-.992H8.225V20.465H5.084Z" transform="translate(2.297 3.432)" fill="#fff"/><path d="M6.641,18.35l3.97-6.138.244-.366a15.3,15.3,0,0,0,1.134-1.935A3.976,3.976,0,0,0,12.355,8.2a2.021,2.021,0,0,0-.3-1.206,1.015,1.015,0,0,0-.87-.414A1.2,1.2,0,0,0,10,7.227a4.043,4.043,0,0,0-.323,1.782v.75H6.641V8.948A5.671,5.671,0,0,1,7.725,5.292a4.094,4.094,0,0,1,3.394-1.348,4.333,4.333,0,0,1,3.232,1.125,4.368,4.368,0,0,1,1.1,3.191,5.439,5.439,0,0,1-.284,1.764A7.82,7.82,0,0,1,14.5,11.5q-.385.648-1.195,1.843l-3.161,4.74h4.883v2.473H6.641Z" transform="translate(5.623 3.339)" fill="#fff"/><path d="M57.81,25.486a14.188,14.188,0,0,0-10.731-2.637l-.214.05c-2.14.506-5.538,1.341-9.518,6.279l-.066.083-.05.061a.335.335,0,0,0-.066.192.325.325,0,0,0,.044.166l.092.151c.5.837,1.128,1.911,1.66,2.9a.163.163,0,0,1,.015.031.343.343,0,0,0,.3.187.338.338,0,0,0,.236-.1c.024-.033.05-.066.072-.1,3.531-4.883,6.308-5.557,8.186-6L48,26.7a10.278,10.278,0,0,1,7.357,1.893c2.089,1.647,3.149,4.271,3.149,7.8,0,5.911-2.875,8.225-5.289,9.124a9.866,9.866,0,0,1-7.35-.486l-.161-.078C43.652,44.06,40.586,42.2,37.7,36.4,31.878,24.713,27.01,23.612,23.787,22.883l-.172-.039a13.905,13.905,0,0,0-10.566,2.63c-2.092,1.669-4.585,4.914-4.585,10.893a12.8,12.8,0,0,0,2.672,8.578A13,13,0,0,0,24.2,49.463a12.5,12.5,0,0,0,5.128-2.382l1.836,1.655a.3.3,0,0,0,.419-.02.278.278,0,0,0,.074-.2v-.024l1.324-8.14v-.09a.292.292,0,0,0-.1-.218.279.279,0,0,0-.194-.072l-.057,0-.085.009-7.8,2.183-.14.024a.259.259,0,0,0-.15.087.294.294,0,0,0,.022.423l.09.085,1.747,1.577a8.135,8.135,0,0,1-2.86,1.211c-6.031,1.15-9.008-2.8-9.121-2.955l-.042-.057a8.91,8.91,0,0,1-1.874-6.2c0-3.534,1.042-6.16,3.095-7.8a9.984,9.984,0,0,1,7.22-1.861l.175.039c2.639.6,6.256,1.416,11.239,11.425,2.589,5.2,5.83,8.592,9.909,10.386a14.415,14.415,0,0,0,6.21,1.439,12.361,12.361,0,0,0,4.327-.766c2.364-.883,7.865-3.9,7.865-12.836,0-5.976-2.53-9.228-4.654-10.9" transform="translate(7.166 19.176)" fill="#fff"/><path d="M20.077,9.227A5.921,5.921,0,0,1,18.9,9.5c-.194-.235-.379-.486-.587-.7a8.829,8.829,0,0,0,1.509-.347,1.8,1.8,0,0,0,1.416-1.727c0-.975-.513-1.3-1.276-1.3-1.056,0-2.048.744-3.084,1-.031-.105-.316-.931-.316-.968,0-.074.094-.044.138-.044a5.651,5.651,0,0,0,1.573-.384,6,6,0,0,1,1.915-.4,1.876,1.876,0,0,1,1.9,2.022,2.5,2.5,0,0,1-2.015,2.576" transform="translate(14.025 3.919)" fill="#fff"/><path d="M23.431,10.432a12.153,12.153,0,0,0-1.9-2.149,5.785,5.785,0,0,0-.55-.48,1.569,1.569,0,0,1-.316-.279.642.642,0,0,1-.118-.4.861.861,0,0,1,.288-.63c.3-.325.62-.628.916-.958.443-.5.892-1,1.322-1.536.183.155.366.3.55.458a1.346,1.346,0,0,1,.207.177.093.093,0,0,1,.033.066c0,.1-.14.118-.209.1-.417.4-.848.789-1.27,1.2-.177.168-.34.355-.519.524-.081.081-.175.155-.251.244a.481.481,0,0,0-.153.294.29.29,0,0,0,.114.223c.266.249.563.464.835.7A12.435,12.435,0,0,1,24.087,9.8c-.222.2-.434.427-.656.633" transform="translate(17.394 3.386)" fill="#fff"/><path d="M25.841,10.143c-.524,0-1.37-.214-1.37-.99a.853.853,0,0,1,.91-.805.933.933,0,0,1,.872.663,1.88,1.88,0,0,1,.063.408,1.122,1.122,0,0,0,.809-1.093A1.04,1.04,0,0,0,26.02,7.2c-.955,0-1.505.877-2.1,1.608-.2-.2-.393-.4-.589-.6a15.658,15.658,0,0,0,2.4-3.115c-.5.116-1.01.214-1.516.318l-.139-.873a1.482,1.482,0,0,0,.2.009,6.757,6.757,0,0,0,.84-.072,10.726,10.726,0,0,0,1.154-.209,3.671,3.671,0,0,0,.4-.126c.148.2.294.391.438.591a1.982,1.982,0,0,0-.188.163,4.937,4.937,0,0,0-.41.495c-.307.4-.589.813-.879,1.217a2.249,2.249,0,0,1,.578-.066A1.576,1.576,0,0,1,27.889,8.2a1.868,1.868,0,0,1-2.048,1.943m-.534-1.2a.172.172,0,0,0-.2.2c0,.275.36.312.526.312-.033-.214-.1-.51-.329-.51" transform="translate(19.755 3.505)" fill="#fff"/><path d="M32.087,10.8a5.222,5.222,0,0,1-1.939-.763l.384-.434H28.787l.375.4a.09.09,0,0,1-.081.1.229.229,0,0,1-.114-.035,5.356,5.356,0,0,1-1.73.709l-.475-.628a3.132,3.132,0,0,0,1.555-.547H27.6V6.847h4.107V9.608h-.752a3.813,3.813,0,0,0,1.61.478ZM26.8,6.624V6.047h2.458V5.82H27.505V5.279h1.752V5.037H27.1V4.424h2.153V3.848l.777.052a.1.1,0,0,1,.1.089.135.135,0,0,1-.1.126v.31h2.212v.613H30.007v.242H31.74V5.82H30.007v.227h2.465v.576Zm4.181.726H28.29V7.6h2.691Zm.007.715h-2.7v.264h2.7Zm0,.739h-2.7v.264h2.7Z" transform="translate(22.657 3.257)" fill="#fff"/><path d="M32.682,4.45c-.177.486-.367.973-.582,1.44v4.694h-.733V7.078a2.779,2.779,0,0,1-.46.657l-.462-.561a7.538,7.538,0,0,0,1.5-3.285l.84.345a.1.1,0,0,1,.063.09c0,.081-.12.118-.17.126m2.142,3.078V9.743H36.3v.665H32.6V9.743H34.06V7.529h-1.6V6.871h1.6V5.394c-.417.066-.842.12-1.258.164l-.286-.65a8.435,8.435,0,0,0,3.161-.8l.569.82a.108.108,0,0,1-.109.089.22.22,0,0,1-.113-.044c-.4.111-.79.214-1.195.286v1.61h1.62v.657Z" transform="translate(25.777 3.292)" fill="#fff"/><path d="M20,14.39a5.921,5.921,0,0,1-1.174.273c-.194-.238-.379-.488-.587-.7a8.652,8.652,0,0,0,1.509-.345,1.809,1.809,0,0,0,1.416-1.727c0-.975-.513-1.3-1.276-1.3-1.056,0-2.048.746-3.084,1-.031-.1-.316-.931-.316-.968,0-.072.094-.042.138-.042A5.716,5.716,0,0,0,18.2,10.2a5.952,5.952,0,0,1,1.915-.406,1.878,1.878,0,0,1,1.9,2.024A2.5,2.5,0,0,1,20,14.39" transform="translate(13.956 8.288)" fill="#fff"/><path d="M23.17,14.982a.976.976,0,0,1-.715.222,1.5,1.5,0,0,1-.619-.142c-.024-.286-.037-.567-.076-.848a1.428,1.428,0,0,0,.694.214c.513,0,.506-1.669.506-2.081,0-.3.007-.851-.353-.851a1.7,1.7,0,0,0-.38.059,14.489,14.489,0,0,1-1.346,3.671c-.246-.12-.478-.273-.726-.4a10.292,10.292,0,0,0,1.276-3.137c-.29.059-.58.126-.864.209-.026-.1-.185-.776-.185-.805a.028.028,0,0,1,.031-.03c.057,0,.109.013.164.013a5.7,5.7,0,0,0,1.012-.126,12.358,12.358,0,0,0,.225-1.762c.2.052.393.109.589.168a1.387,1.387,0,0,1,.247.081c.031.015.076.03.076.074s-.052.081-.083.1c-.076.421-.157.842-.264,1.246a3.7,3.7,0,0,1,.379-.035.759.759,0,0,1,.84.628,4.118,4.118,0,0,1,.12,1.121,4.258,4.258,0,0,1-.55,2.415m1.568-1.4c-.138-.214-.292-.414-.443-.619.183-.031.644-.142.644-.421a3.551,3.551,0,0,0-.909-1.662c.222-.14.441-.288.661-.428a4.206,4.206,0,0,1,1.054,2.207c0,.593-.624.79-1.008.923" transform="translate(17.065 7.778)" fill="#fff"/><path d="M25.437,15.848c-.235-.214-.467-.436-.715-.628a3.045,3.045,0,0,0,1.819-1.283,2.351,2.351,0,0,0,.249-1.086c0-.657-.218-1.034-.8-1.034a5.256,5.256,0,0,0-1.789.79c-.044-.111-.347-.872-.347-.938s.063-.044.089-.044a4.069,4.069,0,0,0,.783-.214,4.33,4.33,0,0,1,1.472-.377c1.012,0,1.453.8,1.453,1.9a3.157,3.157,0,0,1-2.21,2.916m1.1-5.322a9.271,9.271,0,0,0-1.788-.667c.12-.266.235-.532.355-.8a7.05,7.05,0,0,1,1.834.67c-.126.266-.255.532-.4.792" transform="translate(20.193 7.673)" fill="#fff"/><path d="M32.047,15.964a5.239,5.239,0,0,1-1.941-.761l.386-.436H28.747l.375.408a.092.092,0,0,1-.083.1.242.242,0,0,1-.114-.039,5.242,5.242,0,0,1-1.728.709l-.475-.628a3.09,3.09,0,0,0,1.553-.547h-.713V12.007h4.107v2.761h-.753a3.852,3.852,0,0,0,1.612.482Zm-5.289-4.179v-.574h2.46V10.98H27.467v-.537h1.751V10.2H27.055V9.586H29.21V9.01l.776.052a.1.1,0,0,1,.1.089.133.133,0,0,1-.1.126v.31H32.2V10.2H29.969v.244H31.7v.537h-1.73v.231h2.463v.574Zm4.183.724H28.246v.249h2.694Zm.006.716h-2.7v.264h2.7Zm0,.737h-2.7v.268h2.7Z" transform="translate(22.623 7.628)" fill="#fff"/><path d="M32.6,9.611c-.177.488-.367.975-.582,1.44v4.694h-.735V12.239a2.817,2.817,0,0,1-.46.657l-.462-.561a7.517,7.517,0,0,0,1.5-3.285l.84.347a.1.1,0,0,1,.065.089c0,.081-.122.118-.17.126m2.14,3.078V14.9h1.479v.665h-3.7V14.9H33.98V12.69h-1.6v-.657h1.6V10.557c-.417.065-.84.118-1.258.163l-.284-.65a8.391,8.391,0,0,0,3.16-.8l.569.818a.1.1,0,0,1-.107.089.234.234,0,0,1-.114-.042c-.4.111-.79.214-1.193.286v1.61h1.616v.657Z" transform="translate(25.709 7.662)" fill="#fff"/></g></g></g></g></svg>