<svg xmlns="http://www.w3.org/2000/svg" xmlns:xlink="http://www.w3.org/1999/xlink" width="329.491" height="143.902" viewBox="0 0 329.491 143.902"><defs><clipPath id="a"><rect width="143.898" height="143.898" fill="none"/></clipPath><clipPath id="b"><rect width="143.901" height="143.901" fill="none"/></clipPath></defs><g transform="translate(-518.254 -5516.099)"><g transform="translate(518.254 5516.099)"><rect width="143.901" height="143.901" transform="translate(0 0)" fill="#830025"/><g transform="translate(0 0.003)"><g clip-path="url(#a)"><path d="M3.649,23.794a9.162,9.162,0,0,1,.812-4,5.287,5.287,0,0,1,2.405-2.507,6.727,6.727,0,0,1-2.032-2.458,8.177,8.177,0,0,1-.778-3.742A7.317,7.317,0,0,1,5.85,5.824,6.789,6.789,0,0,1,11,3.944a6.7,6.7,0,0,1,5.113,1.862,7.255,7.255,0,0,1,1.763,5.184,8.918,8.918,0,0,1-.747,3.863,6.139,6.139,0,0,1-2,2.439,5.225,5.225,0,0,1,2.405,2.575,9.838,9.838,0,0,1,.812,4.165,9.115,9.115,0,0,1-1.76,5.962Q14.829,32.129,11,32.127q-7.355,0-7.351-8.333m9.13,3.236A8.672,8.672,0,0,0,13.236,24a9.227,9.227,0,0,0-.457-3.217A1.743,1.743,0,0,0,11,19.595a1.739,1.739,0,0,0-1.778,1.2A9.2,9.2,0,0,0,8.765,24a8.6,8.6,0,0,0,.457,3.032A1.736,1.736,0,0,0,11,28.231a1.741,1.741,0,0,0,1.778-1.2m.151-15.938a4.9,4.9,0,0,0-.475-2.356A1.552,1.552,0,0,0,11,7.874a1.629,1.629,0,0,0-1.491.861A4.64,4.64,0,0,0,9,11.092q0,4.233,2,4.233,1.931,0,1.93-4.233" transform="translate(7.617 8.233)" fill="#fff"/><path d="M42.689,23.222,28,37.2a2.439,2.439,0,0,0-.84,2.1V78.473a.84.84,0,0,0,.84.837H43.174a.837.837,0,0,0,.837-.837v-54.9c0-.463-.361-1.306-1.321-.352" transform="translate(56.689 47.566)" fill="#fff"/><path d="M28.979,29.121,14.286,43.095a2.442,2.442,0,0,0-.84,2.1V66.162a.839.839,0,0,0,.84.834H29.464a.837.837,0,0,0,.837-.834V29.472c0-.463-.367-1.309-1.321-.352" transform="translate(28.069 59.878)" fill="#fff"/><path d="M81.335,17.733a.413.413,0,0,0-.123-.318.436.436,0,0,0-.272-.12l-.083.006-.12.006L69.489,19.845l-.207.022a.443.443,0,0,0-.219.114.434.434,0,0,0,0,.605l.127.127,2.572,2.569-25.494,25.5L34.491,37a.332.332,0,0,0-.479,0l-3.2,3.2,0,0L11.94,59.073a.343.343,0,0,0,0,.479l3.2,3.2a.334.334,0,0,0,.475,0l18.64-18.636L42.8,52.66a.283.283,0,0,0,.025.04l3.2,3.193a.332.332,0,0,0,.479,0L75.435,26.959l2.7,2.7a.416.416,0,0,0,.6,0,.4.4,0,0,0,.124-.275l0-.037,2.47-11.486Z" transform="translate(24.722 36.104)" fill="#fff"/><path d="M35.8,29.957l-7.111,7.169a.338.338,0,0,1-.457-.019l-6.441-6.567c-1.179-1.173-1.433-.219-1.433.241V64.544a.834.834,0,0,0,.831.837H36.37a.839.839,0,0,0,.837-.837V30.223c0-.463-.364-1.309-1.408-.266" transform="translate(42.498 61.495)" fill="#fff"/><path d="M22.46,13c-.083,1.482-.506,2.112-1.775,2.445l-.7-1.022c.889-.176,1.229-.411,1.312-1.51.117-1.544.117-3.109.117-4.665h-.349a19.892,19.892,0,0,1-.485,4.248,6.968,6.968,0,0,1-1.544,3l-.973-.7a7.567,7.567,0,0,0,.571-.642c-.92.2-1.837.386-2.757.593-.009.1-.065.185-.161.185s-.145-.086-.176-.17l-.445-1.09c.571-.062,1.13-.148,1.7-.222v-.6H15.34v-.914H16.8V11.5h-1.43V7.916h1.417V7.505H15.34V6.529h1.448V6.023c-.346.025-.695.052-1.047.09l-.293-.543c-.127.479-.244.973-.38,1.457-.025.086-.151.454-.151.516v7.926h-1.13V9.913a6.169,6.169,0,0,1-.432.667l-.685-1.022a14.058,14.058,0,0,0,1.794-5.409l1.247.457a.184.184,0,0,1,.1.148c0,.1-.136.148-.2.161l-.04.185a11.57,11.57,0,0,0,3.22-.695l.793,1.223a.131.131,0,0,1-.148.136.29.29,0,0,1-.191-.071c-.454.1-.917.161-1.371.232v.605h1.581v.633H20V4.285l1.183.161c.071.012.2.062.2.173a.245.245,0,0,1-.151.21c-.019.778-.049,1.565-.083,2.343.475-.009.951-.025,1.426-.025-.009,1.951,0,3.9-.117,5.851M16.831,8.682H16.3v.664h.528Zm0,1.454H16.3v.608h.528Zm1.457-1.454h-.475v.664h.475Zm.022,1.454h-.5v.608h.5Zm1.108-1.89V7.505H17.844v.411H19.23V11.5H17.844v.423h1.362v.889H17.844v.5c.426-.062.834-.148,1.26-.222l-.065.42a12.324,12.324,0,0,0,.92-5.27Z" transform="translate(26.447 8.661)" fill="#fff"/><path d="M22.118,9.278a8.777,8.777,0,0,0,1.374,2.2c-.232.358-.485.692-.738,1.025A5.762,5.762,0,0,0,19.9,11.76c-.432,0-1.383.21-1.383.889,0,1.087,1.457,1.161,2.121,1.161a11.771,11.771,0,0,0,2.186-.284c-.1.469-.188.939-.272,1.408a9.782,9.782,0,0,1-1.55.145c-1.346,0-3.711-.17-3.711-2.294,0-1.544,1.5-2.062,2.587-2.062a7.72,7.72,0,0,1,1.689.222c-.21-.469-.432-.936-.633-1.417a24.8,24.8,0,0,1-3.844.466l-.275-1.232a16.838,16.838,0,0,0,3.665-.371c-.127-.374-.244-.741-.349-1.115a16,16,0,0,1-2.683.383c-.114-.392-.219-.8-.324-1.195a15.567,15.567,0,0,0,2.7-.333c-.157-.593-.284-1.21-.389-1.815.432-.037.865-.086,1.3-.111h.043a.152.152,0,0,1,.17.148.284.284,0,0,1-.108.2c.056.408.117.815.2,1.223a5.87,5.87,0,0,0,1.467-.7c.086.457.191.914.275,1.383-.485.185-.982.358-1.479.519.117.4.253.775.4,1.158a14.063,14.063,0,0,0,2.473-.923c.1.469.148.939.232,1.4a14,14,0,0,1-2.294.676" transform="translate(35.106 8.778)" fill="#fff"/><path d="M25.026,14.49a1.567,1.567,0,0,1-1.192.383,2.384,2.384,0,0,1-1.034-.259c-.043-.466-.074-.926-.127-1.4a2.212,2.212,0,0,0,1.161.346c.855,0,.846-2.776.846-3.48,0-.506.009-1.408-.593-1.408a2.785,2.785,0,0,0-.633.1,24.122,24.122,0,0,1-2.263,6.135c-.411-.222-.79-.469-1.2-.667a17.325,17.325,0,0,0,2.133-5.258c-.488.1-.973.222-1.445.358-.034-.136-.309-1.321-.309-1.321,0-.062.074-.074.1-.074.1,0,.179.025.275.025a8.335,8.335,0,0,0,1.639-.222,21.2,21.2,0,0,0,.38-2.939c.315.077.621.176.926.275.139.046.3.086.435.145.052.028.136.065.136.151s-.074.111-.124.133c-.127.695-.269,1.4-.435,2.087a5.489,5.489,0,0,1,.633-.062,1.244,1.244,0,0,1,1.392,1.05,6.794,6.794,0,0,1,.213,1.877c0,1.121-.157,3.245-.92,4.023M26.57,6.716a13.371,13.371,0,0,0-.8-1.754l.855-.408a14.6,14.6,0,0,1,.75,1.7Zm1.078,5.443c-.232-.361-.488-.695-.738-1.025.306-.062,1.078-.25,1.078-.719a6.113,6.113,0,0,0-1.522-2.751c.4-.207.8-.42,1.183-.664a7.856,7.856,0,0,1,1.68,3.677c0,.926-1.065,1.272-1.68,1.482m.34-5.879a12.314,12.314,0,0,0-.793-1.751l.815-.445a11.116,11.116,0,0,1,.79,1.741Z" transform="translate(41.73 8.527)" fill="#fff"/><path d="M26.345,13.579a1.138,1.138,0,0,1-.84-.324,6.449,6.449,0,0,1-1.417-4.011,20.443,20.443,0,0,1,.071-3.4c.031-.432.065-.855.12-1.281a8.441,8.441,0,0,1,1.516.488.156.156,0,0,1,.083.133.264.264,0,0,1-.2.247,12.918,12.918,0,0,0-.3,2.507,13.375,13.375,0,0,0,.049,1.568,6.09,6.09,0,0,0,.327,1.633c.08.235.269.787.528.769.506-.034,1.068-1.7,1.266-2.2l.732,1.544c-.278.84-1.1,2.269-1.93,2.328m4.644-2.211a11.265,11.265,0,0,0-1.707-5.24c.435-.2.846-.442,1.291-.633a13.415,13.415,0,0,1,1.785,5.249c-.454.232-.9.432-1.368.624" transform="translate(50.199 9.531)" fill="#fff"/><path d="M32.288,14.913c-1.479.012-2.915-.614-2.936-2.606,0-.293.031-.593.052-.886-.772-.275-1.806-.618-1.828-1.766a4.541,4.541,0,0,1,.466-1.581c.4.086.8.207,1.192.3a2.356,2.356,0,0,0-.516,1.087c.009.432.611.618.9.692.167-.976.358-1.939.525-2.915-.188.235-.367.469-.546.707A19.225,19.225,0,0,0,27.9,6.481c.235-.371.475-.738.729-1.108a14.827,14.827,0,0,1,1.575,1.355,16.023,16.023,0,0,0,.34-2.467c.337.062.685.161,1.022.247a2.589,2.589,0,0,1,.423.111c.074.025.148.062.148.157a.493.493,0,0,1-.2.324c-.074.272-.136.568-.2.837-.127.58-.253,1.161-.392,1.741-.2.914-.411,1.84-.568,2.766.42.074.855.074,1.278.111l-.191,1.2a8.529,8.529,0,0,1-1.247-.1,3.264,3.264,0,0,0-.031.546,1.374,1.374,0,0,0,1.531,1.442c.9-.012,1.3-.556,1.288-1.578a5.251,5.251,0,0,0-1.55-3.1A9.367,9.367,0,0,0,33.016,8.4a5.807,5.807,0,0,1,1.772,4.008,2.378,2.378,0,0,1-2.5,2.507" transform="translate(57.566 8.895)" fill="#fff"/><path d="M14.448,16.743a10.655,10.655,0,0,1-.861,2.89l-.883-.46a9.927,9.927,0,0,0,.79-3.094l.954.358a.166.166,0,0,1,.114.17c0,.062-.071.111-.114.136m7.676-.775a8.172,8.172,0,0,1-2.807-1.658,7.239,7.239,0,0,1-2.062,1.448l-.432-.655.124.543a6.78,6.78,0,0,1-.824.358c-.049-.21-.111-.432-.167-.642l-.269.049v4.962H14.621V15.532c-.525.065-1.034.151-1.553.213l-.114-1.074a2.567,2.567,0,0,0,.621-.065,15.5,15.5,0,0,0,.988-1.4,6.223,6.223,0,0,0-1.436-.556V12.1a13.824,13.824,0,0,0,1.924-2.961,10.023,10.023,0,0,1,1.081.565c.086.049.232.127.232.259s-.176.164-.25.164c-.55.639-1.1,1.281-1.7,1.874.216.127.429.259.633.383a9.966,9.966,0,0,0,.571-1c.17.1,1.084.667,1.084.868,0,.133-.154.161-.241.133-.59.741-1.173,1.494-1.785,2.22.352-.034.695-.083,1.05-.12-.065-.21-.127-.432-.21-.63.281-.111.565-.235.843-.358.136.408.253.812.364,1.223a6.826,6.826,0,0,0,1.809-1.21,10.857,10.857,0,0,1-1.392-1.791l.689-.7h-1.01V9.941H21.7v.929a8.559,8.559,0,0,1-1.562,2.6,7.9,7.9,0,0,0,2.652,1.346c-.238.371-.448.766-.664,1.149m-5.783,2.751a22.845,22.845,0,0,1-.54-2.245l.877-.361a15.069,15.069,0,0,0,.528,2.211Zm.232,1.408V19.1H18.8V17.635H17.153V16.607h1.633V15.214c.284.037.571.059.852.1a1.729,1.729,0,0,1,.374.052.118.118,0,0,1,.1.12.237.237,0,0,1-.167.2v.923h1.8v1.028h-1.8V19.1h2.359v1.025Zm1.6-9.111a7.182,7.182,0,0,0,1.1,1.655,6.078,6.078,0,0,0,.957-1.655Z" transform="translate(26.52 19.082)" fill="#fff"/><path d="M18.191,14.641a18,18,0,0,0-1.766-1.223l.747-1.186a9.4,9.4,0,0,1,1.646,1.408Zm-.364,5.406a.352.352,0,0,1,.052.188.111.111,0,0,1-.1.108,13.034,13.034,0,0,1-1.269-.815,18.37,18.37,0,0,0,1.4-4.159l1,.936c-.346,1.263-.685,2.507-1.084,3.742m.614-8.5a14.56,14.56,0,0,0-1.528-1.078l.812-1.183a10.134,10.134,0,0,1,1.362,1.309Zm7.376,4.1a10.81,10.81,0,0,1-1.056-.346v5.023H23.619V18.257H21a5.014,5.014,0,0,1-1.38,2.26l-.9-.692c1.278-1.084,1.5-2.9,1.5-4.628a7.055,7.055,0,0,1-1.084.383l-.58-1.025A8.083,8.083,0,0,0,21.51,13.4a8.674,8.674,0,0,1-1.383-1.782H19.21V10.544h2.458V9.136l1.309.086a.214.214,0,0,1,.195.2c0,.124-.124.185-.207.21v.914h2.893v1.071H24.743a7.469,7.469,0,0,1-1.4,1.791,8.337,8.337,0,0,0,3.05.988Zm-2.2.79H21.313c-.022.284-.052.577-.1.861h2.4Zm0-1.556a13.912,13.912,0,0,1-1.226-.8,10.623,10.623,0,0,1-1.031.593c0,.272,0,.531-.009.8h2.266ZM21.436,11.6a4.581,4.581,0,0,0,.988,1.136,4.1,4.1,0,0,0,.9-1.136Z" transform="translate(34.288 19.071)" fill="#fff"/><path d="M29.184,20.536a8.326,8.326,0,0,1-2.334-2.316,6.638,6.638,0,0,1-2.569,2.238l-.865-.831A6.4,6.4,0,0,0,26.2,17.075a13.616,13.616,0,0,1-1.247-4.628H22.391v.065c0,.463.012.92.012,1.383H24.9a27.9,27.9,0,0,1-.139,2.831c-.2,1.535-.685,2.022-1.973,2.152l-.58-1c1.275-.151,1.445-.651,1.467-2.09l.009-.852H22.369c0,1.772-.275,4.214-1.349,5.533l-.994-.716c1.084-1.257,1.161-3.344,1.161-5.042,0-1.133-.065-2.276-.086-3.409h3.773c-.062-.741-.083-1.5-.1-2.238l1.383.176c.074.012.222.049.222.176a.353.353,0,0,1-.2.266c-.009.3-.009.59-.009.892,0,.238,0,.488.009.729h3.378v1.17H26.226a13.625,13.625,0,0,0,.645,3.3,11.653,11.653,0,0,0,.738-2.708l1.318.831a.285.285,0,0,1,.13.225c0,.139-.213.188-.3.2a14.658,14.658,0,0,1-1.152,2.788A7.286,7.286,0,0,0,30.073,19.3ZM28.866,10c-.253.417-.494.843-.763,1.244l-.969-.337a14.991,14.991,0,0,0,.593-1.825l1.223.5c.077.04.173.1.173.213,0,.127-.173.191-.256.2" transform="translate(41.805 18.925)" fill="#fff"/><path d="M32.122,19.88a8.023,8.023,0,0,1-4.286-3.616A23.641,23.641,0,0,0,30.51,15.3H26.774v2.8l1.7-.435-.139,1.167c-1.121.29-2.254.58-3.378.883-.028.083-.1.191-.188.191a.14.14,0,0,1-.111-.086l-.54-1.266c.5-.08,1-.142,1.491-.25V15.363H23.878V14.205H25.61V9.3h6.444v1.093h-5.27v.655H31.39v.985H26.783v.627H31.39v.954H26.783v.614H32.7V15.3H31.27l.571.88a.161.161,0,0,1-.157.17.4.4,0,0,1-.2-.074c-.651.157-1.315.29-1.973.4.63,1.071,2.362,1.772,3.393,2.038Z" transform="translate(49.846 19.418)" fill="#fff"/><path d="M32.2,19.925c-1.479.012-2.915-.614-2.936-2.606,0-.3.031-.593.052-.889-.769-.269-1.806-.614-1.828-1.763a4.541,4.541,0,0,1,.466-1.581c.4.086.8.207,1.192.3a2.342,2.342,0,0,0-.516,1.087c.012.432.611.614.9.692.167-.976.358-1.939.525-2.915-.188.235-.367.469-.547.7a19.72,19.72,0,0,0-1.692-1.457q.352-.556.732-1.112a15.13,15.13,0,0,1,1.572,1.359,16.128,16.128,0,0,0,.34-2.467c.337.062.685.157,1.025.244a2.652,2.652,0,0,1,.42.114c.074.025.148.062.148.157a.48.48,0,0,1-.2.321c-.077.272-.139.568-.2.84-.127.58-.253,1.161-.392,1.741-.2.914-.411,1.84-.568,2.766.423.074.855.074,1.278.111l-.191,1.195a8.449,8.449,0,0,1-1.244-.1,2.922,2.922,0,0,0-.034.543,1.374,1.374,0,0,0,1.531,1.445c.9-.012,1.3-.556,1.291-1.578a5.246,5.246,0,0,0-1.553-3.1,9.62,9.62,0,0,0,1.161-.568A5.816,5.816,0,0,1,34.7,17.421a2.376,2.376,0,0,1-2.5,2.5" transform="translate(57.389 19.357)" fill="#fff"/></g></g></g><g transform="translate(703.844 5516.099)"><rect width="143.901" height="143.901" transform="translate(0 0)" fill="#e85200"/><g transform="translate(0 0)"><g clip-path="url(#b)"><path d="M5.733,30.352a7.649,7.649,0,0,1-1.643-5.27v-.4H9.034a6.357,6.357,0,0,0,.392,2.643,1.618,1.618,0,0,0,1.609.778,1.556,1.556,0,0,0,1.269-.509,3.4,3.4,0,0,0,.593-1.677,24.933,24.933,0,0,0,.17-3.369V19.765a2.924,2.924,0,0,1-1.389,1.167,5.324,5.324,0,0,1-2.2.426,4.834,4.834,0,0,1-4.437-2.238,11.113,11.113,0,0,1-1.389-5.928q0-9.244,7.385-9.247,3.793,0,5.588,2.337a10.331,10.331,0,0,1,1.8,6.438V22.71a12.4,12.4,0,0,1-1.646,6.913Q15.135,32.1,11,32.1q-3.659,0-5.267-1.744m7.333-14.246V11.737a7.526,7.526,0,0,0-.442-2.847,1.59,1.59,0,0,0-1.59-1.05A1.584,1.584,0,0,0,9.407,8.977,11.562,11.562,0,0,0,9,12.583a26.635,26.635,0,0,0,.1,2.692,2.889,2.889,0,0,0,.559,1.507,1.686,1.686,0,0,0,1.408.577,2.251,2.251,0,0,0,2-1.254" transform="translate(7.617 8.233)" fill="#fff"/><path d="M84.507,58.515,67.322,48.6V28.757a1.173,1.173,0,0,0-.584-1.016L48.97,17.484a1.166,1.166,0,0,0-1.17,0L30.03,27.741a1.17,1.17,0,0,0-.587,1.016V48.6L12.262,58.515a1.17,1.17,0,0,0-.587,1.016V80.05a1.17,1.17,0,0,0,.587,1.016L30.03,91.323a1.166,1.166,0,0,0,1.17,0l17.185-9.917,17.179,9.917a1.171,1.171,0,0,0,1.173,0L84.507,81.066a1.17,1.17,0,0,0,.587-1.016V59.531a1.17,1.17,0,0,0-.587-1.016M47.213,78.022,32.961,69.791l14.252-8.228ZM63.805,49.274,49.556,57.5V41.046ZM47.213,57.5,32.961,49.274l14.252-8.228Zm3.517,2.029,15.422-8.9,15.425,8.9L66.152,68.438ZM64.978,47.245,50.729,39.014l14.249-8.225ZM46.039,39.014,31.787,47.245V30.789Zm-16.6,49.265-15.425-8.9V61.562L29.444,70.47Zm2.343,0V71.822L46.039,80.05Zm50.963-8.9-15.428,8.9V70.47L82.75,61.562Z" transform="translate(24.372 36.17)" fill="#fff"/><path d="M15.226,9.028c.009.321.019.636.019.96a13.866,13.866,0,0,1-.475,3.866,6.223,6.223,0,0,1-.747,1.723l-.985-.71a8.265,8.265,0,0,0,1.016-4.579c0-.763-.022-1.538-.052-2.3h2.09c-.188-.374-.367-.763-.571-1.124l.772-.349H13.969V5.382H17.4V4.11l1.269.086c.093,0,.2,0,.2.148a.236.236,0,0,1-.161.188v.849h3.582V6.518H19.885l.685.262a.133.133,0,0,1,.1.123c0,.074-.083.114-.136.127-.161.324-.306.648-.488.96h2.6V9.028Zm-.052,6.342v-1h3V13.258h-1.6V12.3h1.6v-.926H16.841a9.212,9.212,0,0,1-.772,1.9l-.874-.584a10.419,10.419,0,0,0,.926-3.347l1.124.315a.145.145,0,0,1,.127.136c0,.1-.086.139-.161.148-.043.151-.083.3-.127.451h1.078V9.214l1.288.108c.065,0,.108.093.108.154,0,.123-.139.2-.222.222v.627h2.723v1.022H19.336v.923h2.174v.988H19.336v1.084h3.112V15.37Zm1.593-8.852c.148.414.371,1.136.488,1.562a.416.416,0,0,1-.54-.09h2.229c.139-.485.262-.973.358-1.473Z" transform="translate(27.215 8.579)" fill="#fff"/><path d="M25.949,15.363A7.463,7.463,0,0,1,22.2,13.069V15.5h-1.17V13.044a7.981,7.981,0,0,1-3.656,2.26l-.7-1.025a7.243,7.243,0,0,0,3.455-1.865H17.085V11.4h3.943v-.494H18.082V9.981h2.946v-.54H17.437V8.453h2.186c-.114-.287-.222-.584-.361-.865h-2.3V6.551h1.8a10.6,10.6,0,0,0-.886-1.457L19,4.4c.253.605.5,1.223.729,1.84l-.593.309H20.1V4.192l1.183.111a.108.108,0,0,1,.114.124c0,.09-.093.161-.157.185V6.551h.719V4.183l1.2.1a.128.128,0,0,1,.117.136c0,.086-.108.148-.161.173V6.539h.889l-.531-.284c.235-.618.475-1.223.658-1.865l1.2.58a.22.22,0,0,1,.136.185c0,.139-.182.148-.253.148-.262.42-.528.827-.79,1.235h1.859v1.05H24.007c-.17.3-.34.577-.506.865h2.427v.988H22.188v.54H25.22v.926H22.188V11.4h3.983v1.013H23c.689.926,2.621,1.581,3.637,1.84ZM20.54,7.589l.161.865h1.72c.074-.287.139-.584.2-.865Z" transform="translate(34.808 8.732)" fill="#fff"/><path d="M24.476,14.635c-1.482,0-3.847-.235-3.847-2.594,0-1.717,1.244-2.594,2.414-3.186a19.116,19.116,0,0,1-.414-4.369c.309.025.633.049.945.077.151.012.309.022.463.046.052.012.114.04.114.111a.264.264,0,0,1-.071.136,8.244,8.244,0,0,0-.062,1.136A7.56,7.56,0,0,0,24.214,8.2a.145.145,0,0,0,.1.034,11.426,11.426,0,0,0,2.609-1.1c.154.531.259,1.084.383,1.63-1.294.309-5.409,1.1-5.409,3.134,0,1.149,1.535,1.371,2.251,1.371a8.819,8.819,0,0,0,3.325-.553c.065.516.114,1.047.145,1.575a14.8,14.8,0,0,1-3.137.337" transform="translate(43.064 9.364)" fill="#fff"/><path d="M26.413,10.3v2.652a2.847,2.847,0,0,1-1.34,2.655l-.911-.837a2.03,2.03,0,0,0,1.1-1.976V10.818c-.29.2-.6.358-.88.568-.006.1-.049.256-.154.256-.062,0-.086-.059-.1-.12l-.355-1.359c.5-.222,1-.445,1.494-.692V7.721H24.014V6.634h1.235V4.25l1.207.161a.13.13,0,0,1,.114.108.317.317,0,0,1-.145.213v1.9h.763V7.721H26.4V9.1l.889-.457V9.808c-.293.17-.587.318-.88.491m6.487,5.27a7.662,7.662,0,0,1-2.714-1.877A7.606,7.606,0,0,1,27.4,15.458l-.837-.939a6.345,6.345,0,0,0,2.828-1.738A10.019,10.019,0,0,1,27.954,10.2l.46-.432h-.806V8.743h1.846V7.165H27.42v-1.1h1.991V4.238l1.257.111a.165.165,0,0,1,.17.185c0,.1-.139.173-.2.2V6.053h2.581V7.165h-2.6V8.743H32.65v.741c0,.037-.136.457-.157.531a8.105,8.105,0,0,1-1.51,2.813,6.757,6.757,0,0,0,2.7,1.584ZM29,9.743A7.276,7.276,0,0,0,30.2,11.966a6.821,6.821,0,0,0,1.047-2.223Z" transform="translate(49.609 8.846)" fill="#fff"/><path d="M32.858,8.043v7.28H31.694V8.053H30.385V7.9c-.241.469-.472.936-.744,1.38v6.086H28.477V10.807a6.251,6.251,0,0,1-.618.63l-.587-.976A10.174,10.174,0,0,0,29.632,6.8l.753.676V7h1.291V4.326l1.2.124c.071.012.179.037.179.145a.262.262,0,0,1-.2.235V7H34.3V8.043ZM30.3,5.462A11.015,11.015,0,0,1,28.32,7.781L27.471,7A7.666,7.666,0,0,0,29.4,4.351l1.084.75a.213.213,0,0,1,.1.164.228.228,0,0,1-.284.2m1.059,4.357a23.578,23.578,0,0,1-.577,4.295l-.9-.8a18.77,18.77,0,0,0,.451-4.2l1.09.408a.133.133,0,0,1,.074.124c0,.074-.093.148-.136.173m2.387,3.52a20.5,20.5,0,0,1-.584-3.754l.985-.3a20.5,20.5,0,0,0,.556,3.5ZM34.7,6.25V5.339a.128.128,0,0,1-.136.1c-.161.442-.318.9-.494,1.343l-.753-.346c.145-.565.241-1.133.367-1.7l.985.479.031.052V5.042h2.229V6.25Zm1.6,2.964v3.952a2.016,2.016,0,0,1-1.467,2.269l-.778-.963a1.278,1.278,0,0,0,1.093-1.445V9.214h-.9V8.142h2.865V9.214Z" transform="translate(56.934 9.03)" fill="#fff"/><path d="M36.188,13.938V15.8H35.024V13.938H30.952v-1.1h4.072v-.8h-2.9V8.652h2.9v-.6H33.456v-1.5H31.279V5.463h2.158V4.237l1.213.09c.052,0,.136.049.136.12s-.1.167-.157.2v.812h1.982V4.237l1.216.09c.052,0,.136.049.136.12s-.1.167-.154.2v.812h2.1v1.09h-2.09v1.5H36.17v.6H39.2v3.387H36.17v.8h4.174v1.1ZM35.024,9.612H33.261V11.03h1.763Zm1.6-3.112H34.642v.676h1.979ZM38,9.612H36.17V11.03H38Z" transform="translate(64.614 8.844)" fill="#fff"/><path d="M37.727,9.427l-.006.738h1.59v.985H37.857a4.986,4.986,0,0,0,1.306,1.291l-.58.926a4.5,4.5,0,0,1-.855-.843V15.59H36.634V12.666a6.181,6.181,0,0,1-1.4,1.612l-.763-.865a6.275,6.275,0,0,0,1.837-2.263H34.837v-.985h1.8V9.427H34.782v-1h1.192c-.173-.475-.352-.951-.565-1.4l.732-.275H34.958V5.7h1.649V4.249l1.21.074a.157.157,0,0,1,.164.148.232.232,0,0,1-.164.216V5.7h1.476V6.75H38.138l.722.414a.181.181,0,0,1,.1.133c0,.142-.148.179-.235.179-.142.324-.3.636-.463.951h1.087v1ZM36.545,6.75c.111.463.386,1.507.479,1.979-.2.1-.546-.392-.75-.3h1.093c.13-.55.25-1.115.355-1.677Zm6.342,2.689V15.5H41.7V9.439h-.8c-.012,2.062-.327,4.7-1.778,6l-.858-.75c1.46-1.362,1.522-3.687,1.522-5.761,0-1.152-.037-2.316-.046-3.464l.7.049a3.176,3.176,0,0,0,.7-.2A15.3,15.3,0,0,0,42.9,4.527l.8,1.448a.174.174,0,0,1-.179.188.3.3,0,0,1-.2-.077,22.2,22.2,0,0,1-2.405.4V8.4h2.936V9.439Z" transform="translate(71.97 8.869)" fill="#fff"/><path d="M43.132,14.183c-.318-.374-.6-.769-.92-1.127,1.615-.485,3.106-1.186,3.106-3.612,0-1.646-.793-3.14-2.134-3.47-.275,2.208-.818,5.718-2.424,7.021a1.48,1.48,0,0,1-.948.408,1.5,1.5,0,0,1-1.093-.741,4.793,4.793,0,0,1-.655-2.618c0-3.125,2.072-5.335,4.508-5.335,2.245,0,4.072,1.677,4.072,4.647a4.591,4.591,0,0,1-3.514,4.829M39.538,8.295a5.188,5.188,0,0,0-.287,1.748c0,.528.09,1.88.664,1.88.2,0,.38-.244.5-.411.96-1.226,1.368-3.844,1.47-5.514a3.773,3.773,0,0,0-2.347,2.3" transform="translate(79.463 9.825)" fill="#fff"/><path d="M22.372,18.8A6.988,6.988,0,0,1,20.6,17.711v.741h-2v.812h3.134v1H14.363v-1H17.45v-.812H15.5v-.827A8.771,8.771,0,0,1,13.7,18.761l-.7-.939a6.719,6.719,0,0,0,2.77-2H13.338V14.738h2.189V11.511H13.72V10.456h1.788V9.131l1.2.074a.128.128,0,0,1,.127.136c0,.086-.093.161-.157.185v.929h2.714V9.131l1.226.074a.137.137,0,0,1,.136.136c0,.086-.1.161-.157.185v.929h1.67v1.056H20.6v3.226H22.73v1.084h-2.5a6.6,6.6,0,0,0,2.9,1.9ZM18.759,15.76H17.206a7.676,7.676,0,0,1-1.5,1.692h1.732V16.365l1.161.086a.134.134,0,0,1,.139.127.228.228,0,0,1-.157.195v.679h1.711a7.65,7.65,0,0,1-1.531-1.692m.624-4.248h-2.7v.531h2.7Zm0,1.386h-2.7v.509h2.7Zm0,1.346h-2.7v.543h2.7Z" transform="translate(27.14 19.061)" fill="#fff"/><path d="M26.145,16.616A6.675,6.675,0,0,1,23.78,15.6a7.1,7.1,0,0,1-1.945.8l-.59-.815a1.482,1.482,0,0,1-1.133.914l-.673-.729c.59-.173.874-.358.874-1.136V13.285l-.346.034v2h-.858v-1.9l-.262.025a5.132,5.132,0,0,1-1.016,3.307l-.92-.568a4.228,4.228,0,0,0,.868-2.606c-.17.037-.337.09-.506.124-.022.09-.083.173-.17.173s-.1-.1-.127-.173l-.262-1.108c.346,0,.707,0,1.056-.025,0-.84-.022-1.692-.022-2.532h1.1c.127-.321.235-.651.337-.985l1.312.157a.165.165,0,0,1,.127.148c0,.161-.182.222-.287.235-.127.148-.253.3-.389.445h1.426v4.406a3.688,3.688,0,0,1-.127,1.124,5.7,5.7,0,0,0,1.636-.642,7.417,7.417,0,0,1-.932-.96c.139-.111.287-.21.435-.309h-.741v-.9h.763l-.877-.4a2.956,2.956,0,0,0,.485-1.828c0-.284-.009-.58-.022-.865h2.992c-.009.482-.025.966-.025,1.445,0,.309.065.42.34.42a2.538,2.538,0,0,0,1.195-.593L26.411,12.2a3.026,3.026,0,0,1-1.331.346c-.8,0-1.229-.086-1.229-1.1,0-.272.012-.556.012-.824h-.75a3.052,3.052,0,0,1-.664,2.13h3.538v.707a4.531,4.531,0,0,1-1.281,1.467,5.942,5.942,0,0,0,2.029.618ZM17.059,20.47v-1h1.195v-2.9h6.981v2.9h1.078v1Zm3.233-9.507H18.846v.593c.253-.173.506-.346.76-.506.2.3.389.605.584.914l-.605.519.707-.049Zm-1.445.618v.951l.7-.049a9.709,9.709,0,0,0-.7-.9m1.426,5.95H19.4v1.951h.877Zm1.886,0h-.852v1.951h.852Zm.9-3.875a5.721,5.721,0,0,0,.75.7,3.307,3.307,0,0,0,.707-.7Zm1.047,3.875H23.2v1.951h.911Z" transform="translate(34.889 18.896)" fill="#fff"/><path d="M28.93,14.725a.32.32,0,0,1-.161-.059c-.756.256-2.226.837-2.921,1.158v1.9L24.6,17.711c.009-.17.009-.358.009-.568v-.689c-.846.392-1.269.9-1.269,1.467,0,.494.488.756,1.448.756a9.334,9.334,0,0,0,3.075-.494l-.046,1.442a8.549,8.549,0,0,1-2.649.358c-2.069,0-3.1-.655-3.1-1.973a2.432,2.432,0,0,1,.865-1.778,7.525,7.525,0,0,1,1.606-1.062c-.022-.553-.191-.84-.5-.84a1.554,1.554,0,0,0-1.087.469,9.15,9.15,0,0,0-.812.84c-.392.432-.636.729-.784.874-.188-.219-.485-.553-.874-1.01A8.94,8.94,0,0,0,23.14,12.16c-.559.071-1.183.12-1.859.161-.04-.472-.1-.9-.17-1.284a18.33,18.33,0,0,0,2.421-.124,10.625,10.625,0,0,0,.361-1.7l1.423.321a.15.15,0,0,1,.13.148c0,.074-.056.136-.173.185-.052.21-.145.531-.284.951a16.846,16.846,0,0,0,1.976-.457l-.117,1.359c-.577.12-1.362.247-2.334.38a7.948,7.948,0,0,1-.655,1.238,2.031,2.031,0,0,1,.605-.086c.642,0,1.062.429,1.254,1.318.846-.445,1.806-.9,2.853-1.368l.488,1.38c0,.1-.04.148-.13.148" transform="translate(42.757 19.221)" fill="#fff"/><path d="M29.765,17.546a9.386,9.386,0,0,1-1.893.509c-.327-.389-.633-.8-.979-1.149a14.147,14.147,0,0,0,2.433-.645,3.023,3.023,0,0,0,2.232-2.952c-.034-1.627-.874-2.146-2.112-2.115-1.711.049-3.288,1.337-4.959,1.819-.056-.173-.543-1.544-.546-1.606,0-.12.151-.077.225-.08a9,9,0,0,0,2.535-.71,9.431,9.431,0,0,1,3.088-.766,3.076,3.076,0,0,1,3.149,3.3c.052,2.566-1.315,3.705-3.174,4.4" transform="translate(49.98 20.563)" fill="#fff"/><path d="M32.579,20.027a20.533,20.533,0,0,0-3.18-3.591,10.168,10.168,0,0,0-.92-.806,2.538,2.538,0,0,1-.531-.466,1.079,1.079,0,0,1-.2-.664,1.41,1.41,0,0,1,.485-1.05c.509-.546,1.034-1.05,1.531-1.609.741-.84,1.491-1.677,2.208-2.566.309.259.614.506.92.766a2.141,2.141,0,0,1,.349.293.165.165,0,0,1,.052.114c0,.17-.232.2-.349.17-.695.667-1.414,1.325-2.121,2-.3.284-.571.6-.868.877-.136.136-.293.259-.423.408a.816.816,0,0,0-.253.494.47.47,0,0,0,.191.371c.445.42.939.778,1.392,1.173a21.474,21.474,0,0,1,2.813,3.023c-.374.346-.732.716-1.1,1.062" transform="translate(57.929 19.363)" fill="#fff"/><path d="M34.02,19.762a5.6,5.6,0,0,0-.571-1.013.255.255,0,0,1-.052-.114c0-.034.052-.043.074-.059a9.2,9.2,0,0,0,1.562-.2,2.34,2.34,0,0,0,2.1-2.356,1.539,1.539,0,0,0-1.732-1.7,3.577,3.577,0,0,0-2.77,1.729c-.423.553-.8,1.133-1.17,1.726-.358-.321-.719-.651-1.078-.985a35.445,35.445,0,0,0,3.02-4.162A10.939,10.939,0,0,0,34.316,11c-.278.062-.55.148-.824.222-.5.136-1,.287-1.51.4-.077-.482-.151-.963-.244-1.445A22.919,22.919,0,0,0,35.2,9.564a5,5,0,0,0,.729-.232,8.211,8.211,0,0,1,.667,1.047c0,.124-.13.161-.2.173a21.319,21.319,0,0,0-2.155,2.841,5.157,5.157,0,0,1,1.371-.21,2.721,2.721,0,0,1,2.884,3c0,2.631-2.661,3.48-4.477,3.582" transform="translate(63.432 19.48)" fill="#fff"/><path d="M36.412,20.655c-.389-.367-.778-.747-1.192-1.078a5.107,5.107,0,0,0,3.041-2.2,4.164,4.164,0,0,0,.414-1.865c0-1.127-.361-1.775-1.343-1.775a8.734,8.734,0,0,0-2.992,1.355c-.071-.188-.577-1.494-.577-1.609,0-.09.1-.077.145-.077a6.72,6.72,0,0,0,1.312-.367,7.089,7.089,0,0,1,2.461-.645c1.689,0,2.43,1.371,2.43,3.257a5.4,5.4,0,0,1-3.7,5.008m1.849-9.139a15.207,15.207,0,0,0-2.989-1.142c.2-.454.392-.911.59-1.368a11.46,11.46,0,0,1,3.063,1.155c-.21.454-.42.911-.664,1.355" transform="translate(70.482 18.8)" fill="#fff"/></g></g></g></g></svg>